<?xml version="1.0" standalone="no"?>
<!DOCTYPE svg PUBLIC "-//W3C//DTD SVG 20010904//EN"
 "http://www.w3.org/TR/2001/REC-SVG-20010904/DTD/svg10.dtd">
<svg version="1.0" xmlns="http://www.w3.org/2000/svg"
 width="786.000000pt" height="786.000000pt" viewBox="0 0 786.000000 786.000000"
 preserveAspectRatio="xMidYMid meet">

<g transform="translate(0.000000,786.000000) scale(0.100000,-0.100000)"
fill="#000000" stroke="none">
<path d="M1207 7744 c-102 -17 -132 -27 -255 -86 -77 -37 -120 -65 -170 -113
-92 -86 -126 -154 -131 -258 -3 -71 0 -83 32 -150 50 -105 133 -183 265 -249
56 -28 101 -56 99 -62 -2 -6 -32 -12 -68 -12 -144 -4 -287 -15 -336 -28 -59
-16 -160 -75 -204 -120 -17 -17 -50 -63 -73 -102 -52 -84 -67 -158 -60 -289 3
-80 8 -99 44 -172 51 -104 128 -181 225 -227 39 -18 87 -36 107 -40 21 -4 40
-11 43 -17 4 -5 -7 -38 -24 -73 -17 -34 -31 -70 -31 -78 0 -22 -25 -29 -56
-18 -33 13 -109 13 -158 -1 -46 -13 -118 -76 -141 -126 -21 -45 -18 -214 6
-251 13 -21 12 -25 -5 -38 -11 -8 -27 -14 -36 -14 -19 0 -89 -46 -112 -75 -29
-35 -58 -124 -58 -178 0 -60 33 -139 74 -176 32 -30 33 -48 2 -72 -43 -34 -93
-113 -106 -168 -29 -124 5 -244 94 -331 45 -43 57 -72 36 -85 -6 -4 -22 -30
-37 -58 -24 -46 -27 -64 -27 -152 -1 -91 1 -104 26 -145 33 -56 76 -97 136
-131 50 -28 52 -32 28 -94 -51 -136 27 -296 161 -325 26 -6 79 -10 117 -8 l69
3 18 -59 c21 -71 81 -138 146 -162 61 -23 166 -16 227 16 l47 25 22 -30 c79
-107 130 -139 227 -138 73 0 145 30 189 77 31 33 46 33 87 -4 41 -36 99 -53
181 -54 34 -1 59 -4 55 -8 -4 -4 -45 -18 -92 -32 -47 -13 -121 -36 -165 -49
-44 -14 -125 -39 -180 -56 -94 -28 -130 -41 -345 -121 -188 -69 -338 -153
-398 -221 -60 -68 -71 -104 -74 -229 -3 -128 5 -154 76 -239 20 -24 36 -47 36
-53 0 -5 -24 -33 -54 -61 -56 -55 -96 -136 -96 -199 0 -57 42 -213 72 -267
l30 -53 -57 -57 c-91 -90 -113 -154 -95 -281 19 -136 82 -243 155 -267 33 -11
34 -15 15 -108 -34 -169 58 -255 269 -255 143 1 287 25 438 74 118 38 378 128
478 165 149 54 535 155 654 170 231 30 783 44 1066 27 61 -3 227 -13 370 -21
143 -9 283 -20 310 -25 28 -6 118 -22 200 -36 168 -28 404 -89 540 -139 50
-18 117 -40 150 -48 91 -22 354 -137 387 -170 65 -64 220 -139 390 -187 205
-59 592 -50 798 19 30 10 80 26 110 36 202 64 470 239 589 383 103 124 177
268 212 405 18 73 7 258 -20 332 -17 47 -24 96 -31 225 -9 186 -17 215 -100
365 -79 143 -176 345 -198 410 -11 33 -28 116 -37 185 -9 69 -25 175 -35 235
-35 205 -66 790 -57 1085 7 234 30 510 52 620 8 41 24 138 36 215 26 176 34
220 100 545 18 89 96 338 133 425 43 102 30 152 -51 194 -34 17 -29 48 10 64
46 20 160 145 191 211 37 79 48 146 41 253 -8 110 -20 154 -60 212 -103 150
-205 214 -372 231 -54 5 -145 11 -202 12 -115 3 -140 17 -77 43 57 24 166 93
223 141 55 47 118 149 131 212 12 55 -4 164 -30 215 -46 90 -183 208 -280 243
-23 8 -46 18 -52 23 -22 17 -143 50 -219 61 -196 26 -520 6 -644 -40 -199 -74
-330 -179 -384 -308 -28 -68 -31 -84 -27 -152 3 -55 12 -89 31 -125 46 -91
179 -203 303 -257 30 -13 54 -28 54 -34 0 -19 -116 -25 -470 -24 -401 2 -416
5 -299 65 269 136 371 316 295 519 -62 165 -256 295 -516 346 -177 35 -519 24
-659 -21 -20 -6 -82 -34 -139 -61 -153 -73 -255 -177 -296 -300 -9 -30 -21
-20 -49 45 -44 100 -181 225 -289 263 -23 8 -46 18 -52 23 -22 17 -143 50
-219 61 -196 26 -520 6 -644 -40 -199 -74 -330 -179 -384 -308 -28 -68 -31
-84 -27 -152 3 -55 12 -89 31 -125 46 -91 179 -203 303 -257 30 -13 54 -28 54
-34 0 -19 -116 -25 -470 -24 -401 2 -416 5 -299 65 269 136 371 316 295 519
-62 165 -256 295 -516 346 -120 24 -414 26 -543 4z m473 -79 c159 -26 326 -97
411 -172 54 -49 107 -146 116 -212 6 -45 -26 -120 -78 -184 -94 -114 -321
-209 -544 -228 -136 -12 -271 -5 -360 17 -316 81 -489 220 -487 393 0 72 16
103 93 186 51 54 79 74 163 114 106 51 148 64 311 92 111 19 231 17 375 -6z
m1635 10 c146 -22 219 -42 322 -89 99 -45 143 -80 216 -170 46 -56 47 -60 47
-126 0 -38 -5 -81 -11 -97 -33 -87 -161 -198 -288 -249 -244 -99 -535 -107
-793 -24 -129 42 -194 79 -269 152 -108 104 -131 202 -74 308 89 164 309 272
610 299 133 12 132 12 240 -4z m1725 -10 c159 -26 326 -97 411 -172 54 -49
107 -146 116 -212 6 -45 -26 -120 -78 -184 -94 -114 -321 -209 -544 -228 -136
-12 -271 -5 -360 17 -316 81 -489 220 -487 393 0 72 16 103 93 186 51 54 79
74 163 114 106 51 148 64 311 92 111 19 231 17 375 -6z m1635 10 c146 -22 219
-42 322 -89 99 -45 143 -80 216 -170 46 -56 47 -60 47 -126 0 -38 -5 -81 -11
-97 -33 -87 -161 -198 -288 -249 -244 -99 -535 -107 -793 -24 -129 42 -194 79
-269 152 -108 104 -131 202 -74 308 89 164 309 272 610 299 133 12 132 12 240
-4z m-2635 -535 c51 -105 138 -187 267 -252 57 -28 102 -56 100 -62 -6 -17
-799 -15 -805 2 -2 7 12 19 32 27 58 25 178 101 231 148 35 31 62 68 90 125
22 45 43 82 46 82 3 0 20 -32 39 -70z m3205 -420 c207 -23 343 -152 379 -358
7 -42 -17 -166 -44 -230 -28 -66 -99 -132 -190 -179 l-75 -38 -3305 0 c-3268
0 -3306 0 -3350 20 -173 76 -270 213 -270 382 1 206 154 379 358 403 103 12
6389 12 6497 0z m-5792 -894 c112 -48 131 -195 34 -266 -44 -33 -129 -39 -177
-12 -75 41 -100 123 -61 200 42 82 123 113 204 78z m363 -10 c4 -10 -26 -46
-79 -100 -89 -89 -97 -91 -97 -23 0 18 -4 48 -10 67 -18 64 -10 70 91 70 69 0
91 -3 95 -14z m2034 -5 c0 -14 -14 -23 -51 -35 -93 -31 -225 -97 -341 -171
-127 -81 -327 -269 -420 -395 -68 -91 -167 -269 -203 -365 -34 -92 -44 -102
-113 -107 -100 -8 -179 -44 -249 -115 -69 -70 -88 -114 -97 -228 -8 -83 11
-166 50 -224 31 -47 26 -62 -21 -54 -60 10 -123 -6 -161 -40 -35 -30 -37 -30
-80 -19 -65 18 -119 15 -176 -10 -50 -21 -51 -21 -103 -3 -52 17 -104 17 -175
0 -19 -5 -36 2 -72 30 -41 32 -57 38 -114 43 -63 5 -67 6 -89 42 -13 21 -36
47 -51 59 -26 21 -28 26 -26 95 3 80 -7 118 -42 156 -34 36 -36 50 -13 94 25
50 18 119 -19 191 l-26 52 21 39 c14 26 21 57 21 97 0 55 1 59 29 68 33 12 72
57 95 112 l15 37 65 0 c36 0 77 5 91 10 24 9 30 7 54 -22 14 -17 58 -64 96
-103 80 -82 150 -120 246 -136 74 -13 221 -4 277 15 118 42 266 188 299 295
24 79 28 206 8 286 -25 101 -48 139 -134 225 -42 43 -75 82 -73 89 3 8 198 11
743 11 717 0 739 -1 739 -19z m2967 3 c4 -12 -3 -23 -23 -37 -44 -31 -129
-123 -147 -160 -67 -136 -177 -439 -177 -486 0 -11 -15 -71 -34 -133 -19 -62
-39 -140 -45 -173 -6 -33 -20 -85 -31 -115 -11 -30 -29 -111 -40 -180 -39
-242 -95 -548 -111 -612 -5 -21 -15 -38 -22 -38 -7 0 -25 24 -41 53 -16 28
-41 66 -56 82 l-28 30 -5 225 c-4 200 -7 238 -31 340 -78 330 -220 580 -459
806 -168 159 -318 256 -537 346 -88 36 -101 45 -80 58 9 6 377 10 938 10 847
0 923 -1 929 -16z m-5657 -15 c0 -5 -7 -9 -15 -9 -15 0 -20 12 -9 23 8 8 24
-1 24 -14z m3356 -32 c12 -14 34 -63 49 -109 25 -76 27 -93 22 -193 -4 -91 -9
-121 -32 -172 -15 -35 -34 -63 -41 -63 -8 0 -78 -1 -157 -1 -111 0 -159 -5
-217 -20 -111 -30 -169 -30 -206 1 -46 38 -95 105 -122 169 -29 67 -41 209
-23 264 16 47 63 66 296 121 98 23 194 33 309 31 94 -1 100 -3 122 -28z m2624
18 c0 -8 -17 -41 -37 -72 -105 -163 -169 -413 -129 -504 21 -49 76 -95 180
-149 47 -25 86 -49 87 -55 3 -25 -4 -75 -17 -135 -8 -36 -19 -96 -24 -135 -33
-239 -40 -286 -44 -293 -3 -5 -15 -98 -27 -208 -41 -380 -26 -1090 31 -1469 5
-33 14 -105 21 -160 17 -152 45 -274 85 -382 20 -54 40 -103 45 -109 6 -7 23
-39 39 -72 16 -33 45 -85 65 -116 52 -82 91 -172 110 -260 25 -113 10 -133
-53 -70 -92 92 -256 182 -392 214 -41 10 -109 26 -150 37 -121 29 -387 25
-550 -10 -153 -33 -161 -35 -285 -82 -175 -65 -288 -131 -427 -248 -138 -116
-201 -195 -273 -342 -56 -114 -68 -178 -63 -345 4 -123 8 -153 27 -197 23 -53
23 -86 -1 -79 -7 3 -105 35 -218 71 -252 82 -448 137 -550 155 -347 62 -703
90 -1163 95 -232 2 -332 6 -342 15 -8 7 -16 42 -21 91 -4 46 -12 83 -20 90
-21 18 -28 -12 -20 -95 5 -55 3 -76 -7 -84 -7 -6 -99 -16 -212 -22 -110 -6
-207 -13 -216 -16 -10 -2 -30 -6 -45 -8 -97 -13 -136 -20 -197 -38 -52 -15
-71 -18 -80 -9 -7 6 -19 49 -28 94 -11 58 -20 83 -31 85 -23 4 -26 -15 -18
-98 4 -41 3 -82 -1 -91 -9 -17 -144 -67 -239 -89 -30 -7 -75 -21 -99 -32 -65
-27 -81 -26 -162 15 l-74 37 -135 1 c-210 0 -260 -11 -435 -96 -216 -105 -225
-109 -244 -91 -13 14 -13 21 2 69 13 42 31 67 80 115 35 33 86 71 113 84 27
13 58 29 69 35 149 83 500 222 660 263 39 9 111 29 160 43 50 14 137 33 195
42 58 10 130 23 160 31 51 12 143 26 265 39 101 11 281 36 335 45 30 5 132 17
225 25 94 8 265 25 380 36 354 35 376 37 504 45 103 6 126 10 141 27 13 13 16
26 11 41 -11 28 -50 31 -205 16 -67 -6 -150 -13 -186 -16 -36 -3 -90 -9 -120
-14 -30 -5 -147 -16 -260 -25 -113 -8 -226 -18 -252 -21 -44 -6 -47 -5 -62 24
-9 17 -19 55 -22 86 -7 57 -26 97 -40 84 -8 -9 -8 -59 1 -131 8 -60 -3 -74
-63 -82 -26 -3 -87 -12 -137 -20 -49 -7 -162 -21 -250 -30 -88 -9 -186 -22
-217 -30 -68 -18 -114 -19 -123 -5 -5 8 -16 98 -25 198 0 2 -10 2 -22 0 -22
-3 -23 -7 -19 -68 9 -135 8 -143 -19 -156 -14 -7 -52 -18 -85 -24 -80 -16
-305 -76 -380 -101 -89 -30 -115 -32 -174 -11 -67 24 -233 28 -336 8 -82 -16
-202 -58 -260 -91 -65 -38 -194 -87 -210 -81 -35 13 -10 134 39 188 73 82 377
232 711 352 72 26 165 60 208 76 42 16 137 45 210 64 72 20 153 42 179 50 26
8 78 20 115 25 38 6 113 20 168 31 101 21 201 35 488 70 87 11 161 22 166 24
4 3 68 10 142 16 74 6 157 13 184 15 28 3 136 12 240 20 105 9 213 19 240 25
28 5 106 11 175 15 326 15 465 27 479 40 20 20 6 62 -23 69 -14 3 -89 2 -168
-4 -313 -22 -425 -31 -478 -40 -30 -5 -140 -14 -245 -20 -104 -6 -255 -17
-335 -25 -120 -11 -147 -11 -159 0 -10 10 -27 102 -31 168 0 5 -10 7 -22 5
-25 -3 -25 -7 -17 -128 4 -51 2 -55 -24 -68 -15 -7 -72 -18 -125 -24 -147 -15
-406 -49 -415 -55 -21 -13 -213 -40 -228 -33 -12 7 -19 34 -27 96 -12 93 -21
111 -47 100 -12 -4 -15 -14 -11 -33 2 -16 8 -58 11 -94 5 -54 3 -68 -10 -79
-21 -17 -131 -53 -250 -81 -49 -12 -118 -32 -153 -45 -81 -31 -109 -30 -212 7
-115 42 -279 51 -385 21 -83 -24 -249 -86 -287 -107 -32 -18 -58 -10 -58 19 0
45 88 166 121 166 5 0 32 15 62 34 62 40 224 117 296 141 28 9 53 20 56 25 3
5 45 21 93 35 48 15 112 37 142 50 30 12 93 33 140 45 47 13 97 29 113 37 15
7 78 25 140 39 61 13 139 33 172 43 33 10 114 29 180 41 66 13 154 31 195 41
41 10 102 20 135 24 33 3 83 10 110 15 28 5 73 12 100 15 28 3 95 14 150 25
88 16 193 29 345 44 63 7 186 24 245 36 28 5 120 17 205 25 97 10 160 21 169
30 16 16 8 60 -12 68 -15 6 -297 -25 -432 -47 -49 -9 -144 -20 -210 -26 -66
-6 -148 -15 -183 -21 -86 -15 -109 -8 -121 39 -6 20 -11 56 -11 78 0 33 -4 43
-20 47 -27 7 -34 -21 -20 -89 14 -68 7 -102 -23 -108 -12 -3 -105 -17 -207
-31 -102 -14 -210 -33 -240 -41 -65 -17 -273 -55 -314 -57 -36 -2 -42 8 -57
116 -8 59 -17 91 -27 94 -32 13 -36 -43 -11 -159 13 -56 1 -85 -39 -93 -15 -3
-61 -15 -102 -26 -41 -12 -117 -33 -169 -47 l-93 -25 -108 37 c-146 51 -264
59 -395 26 -89 -22 -108 -29 -242 -90 -94 -43 -108 -38 -99 38 8 67 30 103 97
155 50 39 232 137 254 137 7 0 46 14 86 32 69 29 182 72 274 103 87 30 383
114 430 123 28 5 86 19 130 30 137 35 599 117 775 137 30 4 73 11 95 17 35 9
250 43 435 68 36 5 85 13 110 19 25 5 110 15 190 21 80 6 163 13 185 15 180
18 497 27 925 24 272 -2 574 -1 670 1 157 5 179 7 210 26 19 12 56 29 82 38
284 95 533 333 592 564 8 31 25 93 36 137 23 84 31 130 49 260 6 44 18 109 25
145 8 36 25 128 37 205 12 77 29 160 39 185 9 25 27 90 39 145 51 228 155 563
211 682 93 194 212 276 438 302 6 0 12 -6 12 -14z m-6126 -17 c52 -34 81 -84
79 -135 -3 -94 -85 -159 -187 -151 -157 13 -200 196 -67 285 46 31 128 32 175
1z m1239 -19 c84 -34 169 -114 209 -197 31 -63 33 -73 33 -172 0 -95 -3 -110
-29 -163 -79 -161 -268 -259 -439 -226 -207 40 -345 212 -336 417 3 61 10 90
34 137 50 100 155 190 265 226 50 17 201 4 263 -22z m5142 14 c20 -9 38 -26
41 -38 3 -11 -12 -65 -32 -120 -51 -139 -103 -330 -119 -437 -8 -55 -32 -57
-121 -11 -87 44 -114 78 -114 145 0 45 25 154 39 172 5 6 16 34 25 61 23 70
93 173 144 212 49 37 84 41 137 16z m-2761 -16 c50 -76 69 -233 41 -348 -18
-75 -63 -176 -66 -149 -2 19 -3 14 17 107 22 106 15 257 -15 332 -21 53 -22
81 -2 81 6 0 17 -10 25 -23z m167 -6 c51 -12 219 -69 234 -81 6 -4 28 -13 50
-20 78 -25 306 -176 401 -267 73 -69 170 -178 202 -224 77 -115 132 -203 132
-213 0 -6 16 -45 36 -86 20 -41 42 -97 49 -125 7 -27 21 -77 30 -110 9 -33 23
-96 30 -140 16 -95 15 -329 -1 -345 -8 -8 -27 -7 -70 4 -92 23 -209 29 -314
17 -82 -10 -96 -10 -106 3 -6 9 -16 71 -22 138 -28 303 -183 554 -461 748 -45
31 -214 116 -260 131 -61 19 -63 29 -29 127 28 79 31 98 31 207 0 81 -6 138
-17 174 -17 58 -9 86 23 77 9 -3 37 -10 62 -15z m-1069 -218 c6 -125 44 -225
118 -304 58 -63 53 -91 -7 -42 -54 43 -98 103 -124 170 -36 92 -39 273 -5 273
10 0 15 -25 18 -97z m-91 32 c4 -17 7 -57 8 -89 2 -118 47 -223 133 -310 15
-15 28 -33 28 -40 0 -6 -42 -39 -93 -73 -50 -34 -115 -82 -144 -107 -63 -57
-202 -238 -219 -286 -7 -19 -26 -64 -42 -98 -17 -36 -38 -106 -48 -159 -19
-105 -37 -135 -76 -126 -42 10 -48 23 -48 92 0 99 -20 161 -71 222 -53 64 -91
99 -133 119 -47 24 -41 69 27 210 80 162 163 276 304 417 123 122 319 267 353
261 8 -2 18 -17 21 -33z m-3042 0 c99 -50 125 -181 53 -259 -126 -135 -328 0
-257 171 9 21 23 46 33 57 39 43 119 58 171 31z m620 -54 c20 -15 60 -36 89
-46 58 -19 71 -35 54 -68 -7 -12 -16 -34 -22 -49 -9 -27 -13 -28 -76 -28 -56
0 -74 -5 -110 -27 -55 -35 -84 -86 -84 -150 0 -46 -3 -52 -41 -83 -69 -55 -89
-140 -48 -206 l21 -34 -32 -48 c-30 -45 -31 -51 -28 -129 3 -78 5 -84 37 -117
l35 -36 -23 -46 c-32 -63 -25 -148 14 -200 15 -20 35 -38 44 -41 41 -15 51
-35 51 -99 0 -56 3 -67 31 -98 33 -38 79 -56 146 -56 38 0 73 -19 73 -40 0 -4
16 -24 36 -43 35 -34 98 -59 133 -53 9 2 34 7 56 11 53 11 64 8 102 -26 58
-51 149 -59 222 -21 l44 23 69 -22 c61 -19 73 -20 114 -9 25 7 64 26 86 43
l42 30 50 -16 c28 -9 60 -18 71 -19 16 -3 20 -10 18 -38 -1 -19 -5 -95 -9
-168 l-7 -134 -31 8 c-17 5 -65 9 -106 8 -89 0 -141 -25 -208 -99 l-41 -45
-63 30 c-111 52 -234 35 -307 -44 -30 -32 -53 -33 -87 -3 -38 33 -81 45 -164
46 -55 0 -87 -5 -119 -19 -41 -19 -81 -19 -81 0 0 4 -20 31 -45 58 -58 65
-118 87 -216 80 -76 -6 -83 -2 -94 52 -13 61 -60 117 -126 150 -55 28 -72 51
-49 65 16 10 50 135 50 186 0 26 -11 79 -25 116 -19 54 -36 79 -80 121 l-56
53 19 27 c51 72 73 132 74 205 2 100 -21 164 -84 233 l-51 55 37 38 c25 26 44
59 57 102 25 79 26 121 5 179 -27 75 -25 86 18 94 77 15 159 111 176 206 l6
35 87 -4 c146 -6 203 18 279 117 22 28 23 28 67 -7z m391 -1 c0 -26 -38 -47
-46 -25 -7 18 12 45 32 45 8 0 14 -9 14 -20z m-31 -134 c5 -4 13 -21 16 -38 6
-27 3 -36 -19 -55 -62 -53 -162 -7 -136 62 17 45 90 61 139 31z m-273 -171
c18 -18 23 -31 19 -48 -18 -60 -106 -79 -144 -30 -56 70 60 143 125 78z m-868
-82 c70 -52 91 -138 53 -217 -30 -61 -62 -80 -136 -81 -72 0 -116 27 -140 87
-35 88 1 188 80 225 39 17 110 11 143 -14z m4067 17 c469 -68 840 -449 862
-886 6 -116 -3 -158 -34 -152 -12 2 -16 19 -18 73 -8 186 -44 330 -111 436
-38 62 -143 199 -152 199 -4 0 -20 13 -37 28 -87 81 -198 146 -333 193 -174
61 -423 65 -610 9 -57 -16 -135 -46 -175 -66 -69 -35 -257 -168 -257 -182 0
-4 -10 -18 -23 -32 -103 -114 -184 -283 -210 -442 -13 -76 -30 -95 -63 -67
-19 16 -12 78 23 199 31 107 87 216 161 308 65 81 209 207 289 252 88 50 235
106 313 119 41 7 80 15 85 16 24 8 226 4 290 -5z m-3321 -155 c46 -46 18 -108
-52 -113 -71 -5 -103 48 -61 102 16 20 29 26 59 26 21 0 45 -7 54 -15z m3425
-29 c77 -23 147 -50 185 -74 87 -53 196 -138 231 -181 53 -64 95 -120 95 -126
0 -3 11 -23 25 -45 14 -22 37 -89 51 -148 22 -92 25 -123 21 -222 -4 -124 -13
-152 -53 -173 -77 -40 -211 -241 -228 -342 -10 -55 -27 -78 -89 -119 -115 -76
-256 -120 -356 -111 -42 4 -93 1 -141 -8 -41 -9 -79 -12 -84 -7 -4 5 4 33 19
65 51 103 24 202 -80 293 -88 78 -157 80 -223 8 -42 -45 -59 -96 -48 -139 3
-12 21 -42 41 -65 65 -75 27 -119 -58 -69 -75 45 -85 59 -91 134 -7 78 -58
250 -85 285 -10 12 -30 44 -45 70 -30 52 -95 118 -165 168 l-44 32 7 72 c13
155 75 303 182 434 113 139 309 250 514 291 80 16 84 16 194 14 83 -1 123 -8
225 -37z m-3444 -210 c67 -29 84 -122 28 -166 -36 -28 -104 -27 -138 3 -55 48
-34 145 37 166 18 5 34 10 36 10 1 1 18 -5 37 -13z m-709 -97 c94 -90 104
-204 29 -317 -79 -120 -278 -79 -314 63 -26 102 -8 177 55 237 57 55 67 58
137 55 50 -3 62 -8 93 -38z m2427 -18 c62 -30 123 -89 147 -143 26 -58 28
-168 3 -190 -10 -9 -63 -28 -118 -43 -98 -26 -173 -59 -228 -97 -42 -30 -57
-18 -57 46 0 84 27 185 65 242 30 47 32 54 19 70 -13 18 -15 18 -36 -6 -38
-45 -79 -149 -90 -233 -15 -108 -26 -120 -66 -71 -112 136 -63 343 100 423 56
27 72 31 138 28 54 -2 88 -9 123 -26z m-1642 -210 c84 -84 -22 -202 -131 -146
-35 18 -50 43 -50 82 0 85 118 127 181 64z m2061 -261 c159 -53 307 -178 371
-315 49 -103 61 -155 61 -260 -1 -92 -4 -107 -38 -189 -42 -101 -79 -159 -129
-203 -37 -32 -92 -44 -402 -83 -88 -12 -201 -28 -251 -36 -50 -8 -100 -11
-110 -7 -50 20 -132 79 -163 117 -33 40 -33 42 -29 121 4 70 9 90 46 160 49
92 78 126 154 183 71 52 144 89 215 107 96 25 121 35 127 52 11 28 -10 36 -86
34 -95 -2 -187 -22 -284 -61 -119 -47 -189 -97 -267 -188 -15 -18 -32 -30 -37
-27 -16 10 -11 116 9 181 52 171 188 326 343 389 174 71 310 78 470 25z
m-1959 -21 c24 -30 21 -54 -9 -78 -73 -57 -185 13 -131 81 26 34 111 32 140
-3z m-871 -1 c108 -32 165 -187 110 -299 -53 -109 -192 -142 -286 -68 -65 51
-85 181 -42 267 28 55 48 75 96 96 43 19 71 20 122 4z m5407 -82 c67 -25 93
-41 135 -83 111 -108 111 -268 0 -433 -51 -77 -110 -128 -236 -204 -149 -90
-349 -120 -516 -77 -195 51 -290 210 -232 387 63 191 245 348 475 410 78 21
106 24 210 20 77 -3 136 -10 164 -20z m-4302 -38 c30 -28 29 -53 -2 -83 -39
-39 -110 -31 -135 16 -34 63 81 120 137 67z m851 6 c15 -10 22 -25 22 -49 0
-83 -141 -90 -165 -8 -4 17 1 30 19 48 30 29 89 34 124 9z m-298 -51 c33 -19
43 -46 28 -78 -26 -59 -130 -58 -157 1 -30 68 57 120 129 77z m-293 -3 c53
-19 62 -84 14 -109 -68 -37 -155 12 -131 74 15 40 62 54 117 35z m2336 -277
c21 -21 46 -51 54 -67 22 -42 12 -107 -27 -169 -64 -102 -48 -153 44 -144 28
3 66 9 84 13 24 5 32 3 32 -7 0 -19 -9 -30 -50 -60 -69 -51 -98 -47 -161 26
-67 77 -82 103 -74 138 20 98 18 109 -24 161 -52 61 -55 102 -11 139 25 22 35
24 62 16 17 -5 49 -26 71 -46z m-1402 0 c-6 -10 -39 -46 -73 -80 -52 -50 -70
-77 -101 -150 -20 -48 -37 -98 -37 -110 0 -37 -26 -26 -44 17 -20 52 -20 57 6
121 25 62 79 124 158 179 59 42 109 54 91 23z m-2131 -79 c63 -34 90 -74 90
-134 0 -65 -26 -111 -80 -137 -55 -28 -109 -29 -161 -3 -60 31 -81 72 -75 145
4 56 7 63 50 102 61 55 110 63 176 27z m4288 -187 c6 -28 -15 -45 -108 -92
-93 -47 -238 -89 -337 -100 -58 -5 -63 -4 -63 13 0 25 40 44 140 67 107 25
205 60 275 99 66 37 88 40 93 13z m-1000 -41 c88 -45 123 -79 103 -99 -15 -15
-199 61 -218 90 -17 26 -11 53 12 53 8 0 55 -20 103 -44z m-2890 -16 c45 -33
65 -82 60 -142 -9 -91 -72 -142 -166 -134 -102 9 -157 67 -149 158 5 55 43
113 91 134 45 21 125 13 164 -16z m1271 16 c15 -8 42 -31 60 -51 25 -29 31
-44 31 -83 0 -93 -53 -152 -142 -159 -86 -7 -143 25 -167 96 -25 76 -2 141 68
188 40 27 107 31 150 9z m-401 -108 c66 -53 81 -119 46 -194 -68 -143 -314
-94 -314 64 0 95 73 162 176 162 44 0 58 -5 92 -32z m3147 -13 c36 -31 47 -47
39 -55 -15 -15 -276 -9 -281 7 -2 6 11 16 29 22 18 6 53 25 78 41 25 16 54 30
65 30 11 -1 43 -21 70 -45z m-3597 -1 c49 -29 67 -63 67 -129 0 -78 -20 -109
-92 -142 -63 -29 -97 -26 -156 13 -107 70 -81 235 42 275 35 11 107 3 139 -17z
m2382 -14 c89 -45 82 -53 -56 -65 -54 -5 -73 -3 -77 7 -8 24 35 88 60 88 7 0
40 -14 73 -30z m-1308 -82 c9 -13 36 -43 61 -68 32 -31 44 -49 38 -58 -8 -13
-84 -29 -246 -52 -44 -6 -109 -17 -145 -25 -36 -8 -92 -19 -125 -26 -33 -7
-85 -18 -115 -25 -63 -16 -100 -18 -100 -5 0 5 9 13 21 16 11 4 47 34 80 68
l60 61 45 -22 c25 -13 72 -29 104 -36 55 -13 61 -12 116 10 56 23 144 100 144
127 0 16 29 57 39 57 5 0 15 -10 23 -22z m-1179 -968 c46 -22 36 -33 -68 -68
-60 -20 -163 -63 -344 -141 -52 -23 -103 -39 -112 -36 -16 5 -79 81 -79 94 1
28 217 132 325 157 71 16 237 13 278 -6z m5633 -450 c125 -30 180 -49 244 -83
142 -76 248 -177 302 -288 52 -107 61 -151 55 -276 -4 -96 -8 -117 -40 -191
-85 -197 -197 -325 -412 -468 -151 -101 -400 -193 -596 -220 -132 -18 -337
-15 -481 5 -139 20 -346 117 -460 214 -111 96 -188 264 -188 411 0 96 39 252
81 319 56 91 150 206 198 241 25 19 57 46 71 61 26 29 181 124 265 163 157 74
267 105 490 141 162 26 269 19 471 -29z m-5696 -101 c69 -15 63 -36 -20 -70
-36 -15 -76 -32 -90 -37 -14 -6 -47 -20 -75 -31 -27 -11 -99 -42 -160 -70
-147 -68 -192 -67 -215 4 -24 74 -18 79 160 147 171 65 285 82 400 57z m20
-582 c0 -12 -140 -84 -220 -112 -24 -9 -54 -24 -65 -34 -11 -10 -45 -31 -75
-45 -30 -15 -71 -40 -90 -54 -59 -46 -162 -31 -176 25 -8 32 -3 37 126 102
118 60 259 113 325 122 91 12 175 10 175 -4z m273 -438 c71 -19 46 -39 -123
-97 -214 -74 -485 -121 -530 -92 -23 14 -2 30 135 98 110 55 196 82 300 95 65
8 182 6 218 -4z"/>
<path d="M2000 5711 c-147 -48 -235 -155 -247 -300 -10 -119 37 -225 129 -296
62 -47 116 -65 197 -66 107 -2 183 25 251 88 96 88 130 195 102 318 -24 108
-80 181 -181 231 -44 23 -69 28 -140 31 -47 1 -97 -1 -111 -6z m20 -76 c8 -10
11 -31 7 -58 -7 -48 -60 -106 -99 -108 -65 -3 -98 10 -98 37 0 21 79 103 119
124 44 23 55 24 71 5z m90 5 c0 -5 -7 -10 -15 -10 -8 0 -15 5 -15 10 0 6 7 10
15 10 8 0 15 -4 15 -10z m156 -15 c28 -18 93 -104 94 -122 0 -25 -48 -46 -91
-40 -47 6 -76 29 -95 74 -15 35 -19 95 -6 107 10 11 70 0 98 -19z m-142 -110
c33 -84 115 -128 202 -106 50 13 71 5 61 -23 -5 -12 -22 -16 -69 -16 -101 -1
-187 -54 -204 -128 -4 -15 -9 -31 -12 -36 -6 -11 -31 33 -32 55 0 18 -40 62
-79 87 -16 11 -48 16 -105 17 -74 0 -81 2 -84 21 -5 32 18 45 60 34 70 -20
184 37 213 106 8 19 18 34 23 34 5 0 17 -20 26 -45z m-157 -215 c44 -26 65
-70 61 -128 -3 -43 -5 -47 -31 -50 -35 -4 -86 27 -132 81 -40 47 -44 79 -13
101 30 22 76 20 115 -4z m361 14 c62 -12 50 -59 -35 -141 -57 -55 -90 -64
-116 -32 -38 47 -5 143 58 169 25 11 54 12 93 4z m-212 -199 c-3 -9 -12 -15
-19 -13 -17 6 -21 36 -6 55 12 13 14 13 22 -5 5 -12 7 -28 3 -37z"/>
<path d="M4275 4829 c-73 -21 -113 -107 -82 -180 11 -26 28 -43 70 -64 l55
-29 56 17 c81 26 108 52 113 114 6 61 -5 84 -59 123 -43 32 -91 38 -153 19z
m88 -88 c33 -13 42 -39 20 -63 -23 -26 -81 -21 -100 9 -13 19 -12 24 6 42 23
23 38 25 74 12z"/>
<path d="M5538 3679 c-74 -33 -99 -109 -58 -176 23 -39 60 -59 122 -67 55 -7
85 4 136 53 28 27 32 38 32 82 0 40 -5 55 -25 75 -55 55 -129 67 -207 33z
m106 -79 c48 -18 27 -70 -29 -70 -51 0 -76 47 -37 69 22 13 34 13 66 1z"/>
<path d="M6605 1078 c-96 -12 -209 -59 -266 -110 -41 -37 -82 -108 -86 -152
-4 -35 0 -48 30 -87 70 -91 209 -121 367 -79 101 27 131 41 189 88 210 170 68
378 -234 340z m185 -107 c69 -37 77 -71 29 -126 -89 -101 -293 -156 -405 -109
-47 20 -63 40 -64 80 0 62 144 160 252 172 75 9 153 1 188 -17z"/>
</g>
</svg>
