<?xml version="1.0" standalone="no"?>
<!DOCTYPE svg PUBLIC "-//W3C//DTD SVG 20010904//EN"
 "http://www.w3.org/TR/2001/REC-SVG-20010904/DTD/svg10.dtd">
<svg version="1.0" xmlns="http://www.w3.org/2000/svg"
 width="786.000000pt" height="786.000000pt" viewBox="0 0 786.000000 786.000000"
 preserveAspectRatio="xMidYMid meet">

<g transform="translate(0.000000,786.000000) scale(0.100000,-0.100000)"
fill="#000000" stroke="none">
<path d="M1877 6860 c-141 -36 -240 -158 -242 -297 0 -65 -4 -73 -24 -49 -27
32 -115 60 -191 60 -130 1 -234 -65 -289 -183 -37 -79 -37 -186 1 -258 l26
-50 -54 -6 c-155 -16 -274 -136 -290 -294 -12 -109 43 -233 130 -295 l45 -31
-56 -23 c-82 -34 -130 -79 -171 -164 -22 -46 -26 -69 -26 -135 0 -119 50 -217
139 -274 l43 -27 -49 -23 c-140 -67 -231 -261 -200 -427 24 -131 97 -235 201
-287 l50 -25 -44 -21 c-138 -67 -228 -262 -197 -429 23 -123 96 -233 186 -279
l37 -19 -41 -28 c-84 -58 -139 -182 -127 -284 12 -100 61 -180 143 -232 l42
-27 -49 -32 c-90 -59 -148 -182 -136 -290 13 -114 96 -222 197 -258 l47 -17
-40 -39 c-96 -93 -122 -244 -63 -361 57 -113 171 -181 293 -174 52 2 61 1 56
-12 -37 -96 -26 -201 30 -286 124 -186 396 -192 526 -12 l29 40 6 -29 c28
-123 110 -215 223 -249 174 -53 364 55 403 230 l12 53 41 -42 c123 -122 314
-127 444 -10 80 72 120 202 93 299 -6 22 -9 41 -8 42 1 2 27 -13 57 -32 113
-72 318 -157 463 -193 198 -49 241 -51 1082 -51 916 0 976 4 1209 82 637 211
1084 747 1171 1404 12 86 15 257 15 819 0 840 -4 890 -92 1150 -84 252 -231
487 -417 669 l-60 59 53 61 c99 115 143 201 172 336 84 394 -221 781 -714 906
-525 133 -1084 -68 -1303 -470 l-27 -49 -26 50 c-59 117 -188 248 -326 329
-309 182 -701 221 -1058 105 -111 -37 -187 -74 -289 -144 l-79 -54 -24 40
c-80 126 -263 179 -401 115 -63 -29 -119 -80 -148 -136 -11 -20 -20 -30 -21
-21 -1 42 -35 123 -70 168 -69 88 -208 137 -313 111z m169 -100 c65 -32 97
-68 120 -132 66 -187 -132 -371 -312 -289 -149 68 -187 254 -75 374 72 78 171
96 267 47z m3822 -55 c404 -77 691 -356 692 -671 0 -79 -37 -206 -80 -278 -19
-31 -57 -78 -85 -105 l-50 -49 -90 60 c-166 110 -342 188 -540 237 l-110 27
-37 73 c-45 88 -48 117 -12 133 22 10 35 7 102 -26 42 -21 127 -69 188 -107
155 -97 188 -104 228 -47 47 67 -26 245 -142 350 -81 74 -176 100 -357 102
-150 1 -207 -16 -275 -83 -90 -88 -100 -173 -34 -298 19 -36 34 -67 34 -69 0
-2 -144 -4 -321 -4 -289 0 -321 2 -315 16 3 9 6 27 6 40 0 17 6 24 19 24 15 0
19 10 25 54 32 279 268 510 612 602 50 13 124 28 165 33 97 13 273 6 377 -14z
m-2108 5 c420 -47 742 -291 792 -600 7 -41 18 -79 25 -83 14 -9 17 -35 7 -61
-5 -14 -42 -16 -313 -16 l-307 0 39 79 c63 127 60 204 -11 283 -76 84 -178
115 -336 104 -200 -15 -291 -56 -375 -170 -110 -149 -130 -275 -48 -314 34
-17 73 0 211 88 100 63 230 130 253 130 7 0 22 -9 33 -20 20 -20 20 -20 -1
-71 -11 -29 -31 -71 -44 -93 -24 -41 -27 -42 -122 -65 -210 -49 -425 -150
-631 -296 -22 -16 -116 95 -162 190 -67 142 -75 266 -25 409 117 334 563 557
1015 506z m-1092 -49 c45 -24 97 -77 111 -114 10 -25 6 -33 -40 -90 -43 -53
-101 -157 -122 -219 -5 -14 -17 -18 -50 -18 -171 0 -292 168 -227 317 56 130
206 187 328 124z m-1138 -191 c100 -52 156 -180 119 -277 -75 -202 -350 -218
-445 -27 -26 54 -25 146 3 200 36 68 88 106 178 128 33 8 107 -5 145 -24z
m721 -92 c6 -24 26 -67 46 -97 27 -41 31 -52 17 -47 -39 15 -148 34 -204 35
-25 1 -25 1 5 19 38 24 101 93 110 122 9 28 15 21 26 -32z m1577 -54 c82 -24
142 -88 142 -152 0 -33 -70 -182 -99 -211 -15 -15 -34 -21 -66 -21 -45 0 -45
0 -31 23 46 70 60 169 29 211 -25 35 -88 59 -133 51 -40 -7 -174 -77 -304
-159 -49 -31 -93 -56 -98 -56 -27 0 21 115 80 192 40 53 88 89 142 107 93 30
262 38 338 15z m1927 -19 c33 -9 77 -27 97 -40 42 -28 110 -115 139 -178 18
-40 25 -87 13 -87 -9 0 -46 22 -131 77 -101 65 -258 143 -290 143 -37 0 -88
-25 -111 -55 -29 -37 -28 -90 3 -161 14 -31 25 -58 25 -61 0 -6 -88 0 -99 6
-16 11 -90 161 -97 196 -13 71 61 155 156 175 60 12 220 4 295 -15z m-3904
-49 l40 -12 -68 -27 c-37 -16 -74 -31 -82 -34 -11 -5 -13 -2 -8 11 4 10 7 40
7 68 l0 50 36 -22 c19 -13 53 -28 75 -34z m436 -97 c89 -27 180 -78 243 -137
43 -39 53 -55 61 -97 5 -27 12 -59 15 -70 3 -14 -7 -7 -33 21 -210 225 -531
268 -777 103 -118 -79 -195 -181 -238 -319 l-23 -75 0 -1660 0 -1660 29 -75
c35 -91 82 -166 140 -225 226 -226 597 -232 830 -14 l63 58 22 -30 22 -30 -36
-44 c-20 -25 -63 -65 -95 -90 -377 -290 -914 -125 -1068 330 l-27 80 0 1695
c0 1830 -3 1719 52 1854 83 201 279 359 498 402 91 18 233 10 322 -17z m303
-44 c0 -31 -7 -31 -45 0 l-30 25 38 0 c33 0 37 -3 37 -25z m-1415 -126 c92
-23 175 -132 175 -230 0 -99 -49 -182 -132 -223 -112 -56 -238 -13 -296 100
-65 128 -14 281 113 340 56 27 78 29 140 13z m1071 -9 c270 -69 428 -332 356
-591 -101 -362 -566 -479 -839 -212 -64 62 -119 171 -135 268 -40 240 128 478
379 539 82 20 148 19 239 -4z m-791 -57 c-43 -67 -39 -66 -63 -18 l-22 45 51
0 51 0 -17 -27z m4049 -118 c248 -30 464 -110 676 -250 301 -199 514 -478 628
-821 78 -234 77 -220 77 -1109 0 -781 0 -791 -22 -891 -100 -449 -339 -793
-723 -1039 -135 -87 -307 -157 -499 -202 l-116 -28 -885 0 c-880 0 -886 0
-986 22 -140 31 -240 66 -370 128 -499 237 -834 709 -894 1257 -6 58 -10 370
-10 772 0 702 5 812 46 971 138 533 517 944 1034 1120 235 80 267 82 1160 84
617 1 789 -2 884 -14z m-2765 -209 c40 -51 44 -120 7 -155 l-23 -22 -6 93 c-3
51 -9 102 -13 113 -9 25 -4 21 35 -29z m-1409 -213 c-1 -124 -1 -127 -17 -98
-28 52 -64 94 -99 116 -19 11 -34 24 -34 27 0 4 22 15 49 25 27 9 59 26 72 37
13 10 25 19 27 20 1 0 2 -57 2 -127z m-238 -14 c127 -29 208 -185 164 -314
-23 -68 -58 -109 -118 -139 -114 -57 -239 -13 -299 106 -62 121 -9 276 111
332 57 26 82 29 142 15z m635 -269 c26 -23 71 -55 98 -71 l50 -29 -132 0 -133
0 0 122 0 123 34 -51 c19 -28 56 -70 83 -94z m678 -155 c-24 -53 -53 -129 -66
-170 -13 -41 -26 -74 -29 -74 -3 0 -20 32 -39 70 -24 48 -53 87 -93 125 l-59
54 34 0 c60 0 140 21 212 55 39 18 73 34 77 34 3 1 -13 -42 -37 -94z m-1076
-127 c0 -101 -3 -176 -6 -168 -18 46 -86 117 -150 156 l-34 20 41 19 c43 19
113 88 132 130 6 14 13 25 15 25 1 0 3 -82 2 -182z m730 67 c90 -50 154 -144
192 -281 20 -74 21 -86 9 -199 -10 -99 -17 -132 -45 -192 -40 -87 -100 -154
-168 -188 -49 -24 -57 -25 -244 -25 l-193 0 0 461 0 461 198 -4 197 -3 54 -30z
m-932 -147 c182 -86 217 -378 64 -521 -115 -108 -265 -100 -369 18 -54 61 -77
130 -76 225 1 224 196 367 381 278z m203 -665 l0 -187 -32 46 c-38 52 -78 88
-137 121 l-41 23 37 18 c57 27 109 72 140 121 15 25 29 45 31 45 1 0 2 -84 2
-187z m920 -146 l0 -173 -67 66 c-49 47 -83 70 -122 84 l-55 19 40 14 c55 19
123 68 164 119 19 23 36 43 38 43 1 1 2 -77 2 -172z m-1163 68 c66 -20 135
-81 170 -153 24 -50 28 -69 28 -147 0 -76 -4 -99 -26 -146 -81 -173 -269 -220
-401 -101 -49 44 -82 102 -98 171 -36 153 56 334 190 376 59 18 76 18 137 0z
m934 -162 c69 -22 154 -104 195 -188 29 -60 29 -61 29 -240 l0 -180 -32 -65
c-37 -74 -98 -141 -157 -173 -38 -20 -58 -22 -243 -25 l-203 -3 0 445 0 446
179 0 c141 0 190 -4 232 -17z m-691 -489 l0 -157 -35 46 c-20 26 -56 59 -82
74 -41 24 -44 28 -28 37 37 22 91 75 115 115 14 22 26 41 28 41 1 0 2 -70 2
-156z m-170 -100 c154 -84 158 -304 7 -398 -230 -142 -473 159 -288 357 73 79
182 95 281 41z m1094 -322 c0 -1 -28 1 -61 4 l-60 7 56 56 56 56 5 -60 c3 -33
5 -61 4 -63z m-924 -168 l0 -147 -35 46 c-20 26 -56 59 -81 73 l-46 27 34 18
c36 18 118 101 118 119 0 5 2 10 5 10 3 0 5 -66 5 -146z m535 105 c-96 -51
-188 -141 -238 -234 -16 -29 -16 -25 -17 113 l0 142 147 0 148 0 -40 -21z
m349 -15 c36 -5 47 -11 50 -28 3 -11 12 -61 21 -111 31 -172 112 -379 217
-558 38 -64 40 -68 25 -91 -61 -92 -244 -176 -382 -176 -252 1 -460 176 -498
419 -48 310 242 589 567 545z m-1054 -180 c201 -109 130 -415 -101 -432 -174
-13 -301 175 -223 330 63 126 201 169 324 102z m190 -474 c4 -25 7 -46 6 -47
-1 -1 -30 12 -64 29 l-62 31 45 48 c25 26 46 54 46 61 1 12 8 -18 29 -122z
m-94 -86 c166 -79 177 -312 19 -409 -42 -26 -58 -30 -119 -30 -59 0 -79 5
-116 27 -103 61 -146 184 -99 288 58 128 194 181 315 124z m287 -279 l56 -60
-78 0 -78 0 14 44 c7 24 13 56 13 70 0 14 4 21 8 16 5 -6 34 -37 65 -70z
m1227 -15 c0 -3 -24 -5 -53 -5 -28 0 -65 -4 -82 -9 -29 -7 -29 -7 15 42 l45
49 38 -36 c20 -19 37 -38 37 -41z m53 -106 c167 -84 181 -311 26 -407 -192
-118 -437 77 -349 280 55 127 205 186 323 127z m-1193 -44 c122 -62 165 -212
94 -327 -124 -201 -441 -113 -438 122 1 174 187 285 344 205z m815 -12 c-13
-24 -29 -64 -35 -89 l-12 -47 -45 44 c-25 24 -49 44 -54 44 -25 0 -4 18 34 30
23 7 62 23 87 36 25 13 46 23 47 24 1 0 -9 -19 -22 -42z m-523 -77 c-17 -15
-41 -43 -55 -63 l-24 -37 -12 54 c-7 30 -23 70 -37 90 -13 20 -24 37 -24 38 0
2 41 -11 91 -27 l91 -30 -30 -25z m312 -28 c126 -63 172 -214 100 -330 -98
-158 -339 -145 -419 23 -59 124 4 268 137 315 60 22 130 19 182 -8z"/>
<path d="M5595 6544 c-77 -11 -155 -29 -211 -50 -108 -40 -231 -123 -276 -187
l-22 -30 30 -23 29 -24 55 54 c166 164 440 225 692 155 293 -82 450 -315 362
-542 -4 -11 5 -18 31 -27 20 -7 37 -10 39 -8 17 26 29 78 33 143 6 93 -16 173
-71 259 -73 114 -226 215 -391 256 -77 20 -239 33 -300 24z"/>
<path d="M3466 6539 c-89 -12 -220 -57 -293 -100 -155 -92 -263 -262 -263
-414 0 -47 19 -129 34 -151 12 -15 17 -16 45 -5 17 8 31 16 31 18 0 3 -7 30
-16 61 -54 186 92 395 336 478 261 88 562 29 736 -143 l53 -53 28 24 c26 23
27 24 10 49 -29 44 -134 125 -211 162 -141 68 -330 96 -490 74z"/>
<path d="M2015 5671 c-163 -74 -121 -284 60 -299 120 -10 217 88 191 192 -15
62 -104 126 -176 126 -19 0 -53 -9 -75 -19z m152 -96 c32 -36 29 -68 -8 -99
-44 -37 -101 -36 -140 3 -31 31 -35 51 -19 81 29 55 126 63 167 15z"/>
<path d="M4569 5736 c-3 -3 -149 -6 -325 -7 -333 -1 -452 -11 -606 -50 -499
-126 -907 -503 -1071 -989 -81 -239 -87 -312 -87 -1052 0 -668 5 -757 51 -928
74 -272 195 -485 388 -683 245 -252 523 -394 883 -451 143 -23 1518 -24 1671
-1 191 29 373 87 519 168 370 202 647 551 753 948 52 198 55 242 55 948 0 679
-4 755 -46 926 -123 497 -512 919 -997 1080 -212 70 -319 83 -727 84 -179 1
-354 4 -390 7 -36 4 -68 4 -71 0z m132 -92 c85 -25 134 -66 169 -139 26 -54
25 -109 -4 -171 -72 -155 -321 -193 -450 -68 -91 88 -98 201 -19 294 73 85
190 118 304 84z m228 3 c-2 -1 -11 -8 -20 -15 -13 -10 -19 -9 -29 3 -11 13 -8
15 20 15 19 0 31 -1 29 -3z m-696 -36 c70 -33 71 -33 53 -76 -9 -21 -19 -62
-22 -92 l-7 -53 -55 -16 c-141 -41 -327 16 -347 107 -13 58 46 118 145 146 60
17 180 9 233 -16z m1362 -3 c261 -60 499 -193 695 -388 254 -254 402 -580 427
-940 l6 -86 -139 -66 c-388 -185 -902 -306 -1504 -353 -222 -17 -694 -16 -915
1 -574 46 -1112 175 -1482 355 l-123 60 0 42 c0 63 27 236 50 324 65 253 192
474 381 662 198 197 415 320 684 386 55 14 112 25 127 25 l27 0 -24 -36 c-122
-180 131 -366 407 -299 53 13 73 14 76 6 10 -29 71 -97 115 -127 170 -117 441
-62 528 109 15 29 23 36 33 28 7 -6 39 -17 71 -26 168 -43 360 16 414 128 35
73 25 135 -32 196 l-32 33 60 -7 c33 -3 101 -16 150 -27z m-305 -9 c104 -45
128 -114 62 -179 -70 -70 -228 -91 -339 -45 -40 16 -43 20 -43 55 0 21 -7 57
-15 80 -8 23 -15 44 -15 46 0 10 94 56 131 64 64 13 161 4 219 -21z m1430
-1647 l0 -99 -107 -51 c-414 -195 -911 -314 -1533 -367 -153 -13 -791 -13
-905 0 -27 3 -95 10 -150 16 -516 52 -1054 192 -1394 364 l-71 35 0 96 c0 73
3 95 13 91 6 -3 62 -28 122 -55 374 -168 918 -294 1455 -336 137 -11 743 -15
880 -5 614 42 1201 174 1575 354 61 29 111 54 113 54 1 1 2 -43 2 -97z m-3952
-286 c194 -79 486 -167 692 -207 52 -11 60 -14 38 -19 l-28 -5 -4 -125 c-8
-233 -82 -401 -245 -552 -125 -116 -269 -176 -443 -185 -74 -4 -106 -9 -102
-17 3 -6 -1 -3 -9 7 -22 27 -75 220 -92 338 -11 81 -15 197 -15 483 l0 376 50
-25 c28 -14 99 -45 158 -69z m3949 -333 c-3 -398 -5 -435 -26 -528 -12 -55
-32 -129 -45 -165 l-22 -65 -85 1 c-297 3 -570 230 -661 551 -17 60 -22 106
-23 195 l0 118 -45 1 c-42 1 -43 2 -15 10 17 5 102 26 190 48 200 50 489 148
620 211 55 27 104 49 108 49 5 1 7 -191 4 -426z m-991 -21 c2 -138 21 -231 70
-345 71 -163 214 -326 364 -413 90 -54 234 -101 330 -110 38 -4 70 -9 70 -12
0 -2 -14 -29 -32 -60 l-31 -55 -86 6 c-399 29 -737 345 -827 771 -20 96 -30
277 -16 302 9 17 52 29 147 43 6 0 11 -48 11 -127z m-2041 103 c95 -12 89 0
82 -149 -17 -381 -222 -705 -542 -857 -126 -59 -202 -79 -335 -86 l-105 -5
-32 55 c-18 30 -33 57 -33 60 0 2 39 7 88 10 114 8 187 28 299 82 182 89 318
227 408 418 52 108 76 213 82 360 5 110 8 127 22 123 9 -2 39 -7 66 -11z
m1798 -138 c15 -297 107 -525 293 -725 151 -164 335 -263 562 -301 l102 -17
-53 -64 c-161 -194 -387 -356 -610 -437 -182 -66 -345 -93 -568 -93 l-156 0
-7 71 c-15 147 -72 266 -141 295 -27 11 -93 14 -300 14 -296 0 -313 -3 -360
-64 -34 -44 -71 -159 -80 -250 l-8 -68 -166 5 c-364 11 -660 124 -926 354 -75
64 -215 216 -215 233 0 4 35 10 79 14 267 22 525 167 694 389 143 187 227 434
227 668 l0 89 38 -5 c224 -30 412 -40 747 -40 248 0 549 10 565 20 3 1 37 6
75 9 62 6 179 21 196 25 3 0 9 -54 12 -122z m-602 -1347 c39 -21 88 -165 89
-257 l0 -33 -366 0 -366 0 7 63 c10 87 40 179 69 210 l25 27 261 0 c161 0 269
-4 281 -10z"/>
<path d="M2052 2528 c-43 -15 -99 -78 -108 -122 -24 -130 122 -226 252 -167
60 27 89 73 89 141 0 61 -23 103 -75 134 -37 21 -115 28 -158 14z m136 -103
c35 -42 28 -86 -19 -110 -45 -24 -87 -19 -120 14 -33 33 -36 56 -13 89 34 49
112 52 152 7z"/>
</g>
</svg>
