<?xml version="1.0" standalone="no"?>
<!DOCTYPE svg PUBLIC "-//W3C//DTD SVG 20010904//EN"
 "http://www.w3.org/TR/2001/REC-SVG-20010904/DTD/svg10.dtd">
<svg version="1.0" xmlns="http://www.w3.org/2000/svg"
 width="786.000000pt" height="786.000000pt" viewBox="0 0 786.000000 786.000000"
 preserveAspectRatio="xMidYMid meet">

<g transform="translate(0.000000,786.000000) scale(0.100000,-0.100000)"
fill="#000000" stroke="none">
<path d="M3878 7174 c-36 -8 -111 -33 -165 -55 -341 -142 -1125 -593 -1239
-713 -83 -87 -113 -219 -93 -406 13 -128 42 -240 84 -325 70 -145 228 -293
353 -330 l59 -18 -50 -48 c-28 -27 -51 -48 -51 -46 -1 1 -12 24 -26 52 -30 59
-87 97 -137 92 -32 -3 -33 -2 -33 38 0 57 -41 140 -82 165 -53 32 -92 35 -140
11 -23 -11 -42 -19 -43 -18 0 1 -13 18 -28 39 -38 51 -103 75 -159 59 -23 -7
-54 -26 -69 -42 l-27 -29 -16 25 c-20 30 -85 65 -122 65 -50 0 -114 -51 -150
-118 0 -1 -18 5 -39 14 -100 41 -198 -37 -212 -170 l-5 -51 -48 -1 c-58 -1
-102 -30 -131 -86 -26 -51 -35 -126 -20 -171 12 -36 11 -37 -27 -74 -70 -67
-90 -193 -46 -285 l17 -36 -36 -36 c-71 -71 -85 -199 -32 -293 l25 -45 -25
-30 c-79 -93 -85 -252 -14 -363 l29 -46 -23 -32 c-40 -53 -52 -97 -52 -182 0
-68 5 -89 29 -138 15 -32 36 -63 45 -69 17 -10 16 -14 -5 -53 -50 -88 -40
-201 22 -274 l35 -40 -18 -33 c-12 -23 -17 -55 -17 -103 0 -83 26 -143 77
-177 l33 -21 -14 -41 c-42 -121 41 -276 148 -276 37 0 37 0 43 -49 16 -138
127 -218 229 -165 29 15 32 15 41 -2 6 -11 26 -34 44 -53 19 -18 32 -34 31
-35 -2 -1 -35 -14 -73 -29 -39 -15 -106 -47 -148 -71 -378 -215 -499 -576
-297 -879 191 -285 591 -451 1050 -434 233 9 422 56 602 149 l77 40 35 -21
c107 -66 340 -143 541 -178 127 -22 511 -25 625 -4 197 35 344 79 486 146 l90
42 65 -32 c35 -18 104 -47 152 -64 454 -160 1026 -75 1343 200 146 126 234
298 234 459 0 160 -78 322 -215 449 -43 40 -46 45 -29 54 38 20 143 136 168
185 73 144 75 331 5 479 -32 67 -134 179 -189 208 l-32 16 62 30 c85 40 190
146 230 231 49 104 63 234 39 350 -34 161 -169 315 -322 367 l-49 17 42 29
c57 40 136 128 166 186 49 99 67 245 43 361 -34 161 -172 318 -325 368 l-38
13 40 20 c56 29 167 143 198 204 72 143 75 332 6 477 l-28 59 57 76 c66 87
124 188 116 201 -3 4 2 39 11 77 22 91 14 251 -16 348 -91 288 -321 499 -638
582 -82 22 -119 26 -237 26 -162 0 -258 -17 -381 -68 -201 -83 -355 -216 -449
-388 l-40 -73 -34 23 c-83 56 -193 65 -286 24 l-45 -20 -4 22 c-2 12 -11 79
-20 150 -35 272 -70 398 -133 481 -96 125 -229 168 -405 130z m176 -73 c16 -6
-35 -44 -255 -192 -151 -102 -290 -191 -309 -199 -19 -7 -105 -48 -190 -91
-367 -184 -570 -367 -570 -516 0 -93 49 -177 238 -402 66 -79 136 -171 156
-205 31 -53 34 -61 20 -69 -9 -5 -71 -12 -138 -14 -148 -7 -191 5 -286 76
-173 130 -262 335 -262 606 0 120 15 185 58 241 69 93 860 552 1204 699 145
63 277 89 334 66z m104 -44 c87 -65 123 -155 169 -422 36 -215 39 -445 7 -516
-27 -57 -74 -111 -133 -152 -83 -57 -274 -179 -361 -230 -193 -112 -584 -297
-630 -297 -4 0 -23 26 -40 58 -38 66 -59 95 -195 257 -242 290 -258 370 -105
529 109 114 301 235 575 363 99 46 195 105 404 247 151 102 275 186 276 186 0
0 15 -11 33 -23z m1732 -267 c174 -42 348 -152 455 -285 96 -121 143 -243 152
-395 9 -160 -39 -305 -143 -431 -45 -56 -87 -79 -141 -79 -53 0 -55 12 -12 88
22 40 27 57 19 67 -8 10 -5 14 14 19 21 5 27 16 40 75 50 220 -31 443 -209
578 -122 92 -229 127 -390 127 -125 -1 -214 -25 -322 -88 -80 -47 -180 -155
-221 -238 -56 -115 -75 -269 -46 -374 5 -20 4 -20 -63 -8 -37 7 -89 16 -115
19 l-47 6 -13 57 c-7 31 -12 104 -12 162 2 184 68 336 208 476 171 171 399
257 656 248 60 -2 142 -12 190 -24z m-40 -339 c79 -25 149 -67 213 -129 60
-59 61 -72 0 -26 -110 84 -224 119 -383 118 -97 -1 -127 -5 -194 -28 -96 -33
-150 -63 -218 -124 -51 -46 -51 -46 -32 -13 50 88 195 185 320 215 78 19 211
13 294 -13z m-1148 -118 c17 -10 40 -30 52 -46 19 -26 19 -30 6 -70 -35 -100
-212 -119 -290 -30 -26 29 -31 41 -26 67 18 89 165 134 258 79z m1103 -8 c224
-47 385 -223 385 -419 0 -52 -15 -122 -28 -130 -4 -2 -38 4 -77 15 -62 16
-116 18 -482 18 l-412 1 -7 56 c-36 290 287 529 621 459z m-1221 -273 c56 -4
100 3 147 22 13 6 17 -8 27 -83 7 -50 15 -97 18 -105 5 -13 -2 -16 -31 -16
-31 0 -47 8 -85 44 -80 75 -194 94 -299 50 -43 -18 -96 -67 -111 -103 -8 -20
-23 -30 -56 -40 -24 -7 -76 -28 -114 -47 -39 -18 -70 -32 -70 -30 0 2 60 43
134 90 139 90 219 163 255 234 l21 41 51 -27 c35 -17 72 -28 113 -30z m-17
-166 c27 -15 27 -15 -37 -16 -36 0 -92 -3 -125 -6 -46 -5 -57 -3 -49 6 38 39
152 48 211 16z m1933 -46 c0 -5 -5 -10 -11 -10 -5 0 -7 5 -4 10 3 6 8 10 11
10 2 0 4 -4 4 -10z m-1555 -61 c242 -33 462 -161 605 -351 99 -131 158 -270
180 -425 8 -54 10 -366 8 -1038 l-3 -960 -23 -80 c-91 -325 -332 -567 -657
-657 -75 -21 -100 -22 -395 -22 -296 0 -320 1 -395 22 -295 83 -533 302 -630
581 -56 158 -56 166 -53 1207 3 949 4 960 25 1035 51 181 126 310 250 430 147
143 296 220 487 254 91 16 495 19 601 4z m1096 -59 c29 -6 57 -14 61 -18 5 -5
2 -25 -7 -45 -21 -50 -19 -71 9 -104 24 -27 27 -28 123 -28 l98 0 22 -55 c12
-30 24 -76 28 -102 l7 -48 -335 0 c-303 0 -335 2 -341 17 -14 36 -102 158
-155 216 -31 33 -91 87 -134 119 l-79 58 325 0 c178 0 348 -5 378 -10z m-2156
-62 c-141 -111 -275 -298 -324 -450 l-13 -38 -37 48 c-47 59 -97 103 -157 138
-46 27 -47 28 -23 38 123 49 505 241 563 282 37 26 31 14 -9 -18z m-1945 -76
c50 -50 52 -151 5 -198 -33 -33 -68 -31 -99 6 -48 58 -43 157 11 199 34 28 49
26 83 -7z m271 -10 c78 -70 28 -231 -65 -208 -29 7 -66 69 -66 111 0 56 48
125 87 125 7 0 27 -13 44 -28z m249 -70 c50 -50 52 -151 5 -198 -33 -33 -68
-31 -99 6 -48 58 -43 157 11 199 34 28 49 26 83 -7z m-765 -6 c62 -62 30 -216
-45 -216 -30 0 -68 42 -76 85 -13 69 31 155 78 155 11 0 30 -11 43 -24z m363
-167 l24 -29 -24 4 c-13 3 -33 5 -46 5 -23 1 -23 1 -5 26 10 13 20 24 23 24 3
0 15 -13 28 -30z m1225 -27 c111 -51 248 -212 231 -270 -4 -15 -10 -130 -13
-257 l-6 -229 -80 -24 c-54 -16 -108 -24 -167 -25 -79 -2 -88 0 -113 23 -37
35 -58 79 -91 195 -27 96 -87 259 -111 300 -9 16 -15 17 -36 8 -21 -10 -26
-22 -36 -90 -19 -135 -24 -293 -12 -373 16 -105 49 -166 129 -242 144 -135
279 -160 465 -84 l57 24 0 -64 0 -64 -40 -20 c-141 -72 -289 -64 -455 23 -73
39 -183 146 -209 205 -19 41 -29 48 -59 36 -36 -13 27 -118 125 -210 71 -66
176 -122 278 -149 88 -23 202 -16 293 18 l67 26 0 -37 c0 -66 -119 -195 -226
-244 -39 -18 -67 -23 -134 -23 -74 0 -93 4 -145 30 -71 35 -165 128 -214 209
-45 75 -95 210 -118 316 -26 121 -24 351 4 480 39 183 115 331 221 432 125
119 256 146 395 80z m-946 -77 c24 -16 51 -25 75 -25 36 0 38 -2 38 -32 1 -18
7 -50 14 -70 24 -66 -7 -54 -101 41 -56 56 -108 97 -142 114 -30 15 -46 27
-35 27 10 0 33 8 49 19 l30 18 18 -33 c9 -18 34 -45 54 -59z m-505 71 c15 -11
11 -15 -39 -40 l-56 -27 27 31 c14 17 26 36 26 41 0 13 22 11 42 -5z m828 -24
c50 -50 52 -151 5 -198 -33 -33 -68 -31 -99 6 -48 58 -43 157 11 199 34 28 49
26 83 -7z m-1188 7 c46 -25 62 -130 28 -186 -39 -65 -110 -49 -130 29 -15 53
-6 100 26 138 28 32 44 36 76 19z m4908 -27 c0 -36 -26 -126 -51 -174 -32 -62
-125 -147 -198 -181 -59 -27 -78 -31 -188 -35 l-123 -4 0 50 c0 67 -32 232
-59 302 -12 30 -21 58 -21 63 0 4 144 7 320 7 l320 0 0 -28z m-4237 -52 c58
-22 154 -94 200 -153 l31 -37 -24 -66 c-26 -74 -24 -144 6 -206 l17 -37 -27
-22 c-28 -22 -66 -87 -66 -113 0 -19 -91 -38 -180 -39 -106 0 -137 30 -188
188 -16 50 -48 129 -72 178 -35 73 -46 87 -65 87 -31 0 -41 -32 -56 -175 -29
-277 27 -395 239 -497 99 -48 190 -59 280 -35 28 8 52 13 52 12 0 0 -10 -21
-22 -46 -18 -36 -22 -60 -21 -129 1 -47 3 -94 5 -105 2 -16 -13 -27 -76 -60
-76 -39 -82 -40 -175 -40 -88 0 -102 3 -164 32 -95 45 -189 141 -245 250 -205
398 -42 927 318 1030 58 17 164 9 233 -17z m-493 -47 c-30 -28 -55 -51 -55
-50 -1 1 1 25 3 52 l4 50 51 0 52 0 -55 -52z m-137 -188 c-12 -24 -19 -31 -25
-23 -13 21 -9 33 15 44 12 7 23 12 24 13 2 0 -5 -15 -14 -34z m-128 -1 c62
-67 36 -223 -38 -232 -21 -3 -31 4 -47 30 -41 67 -38 145 6 198 32 37 48 38
79 4z m1140 -10 c62 -67 36 -223 -38 -232 -21 -3 -31 4 -47 30 -41 67 -38 145
6 198 32 37 48 38 79 4z m433 -162 c11 -37 30 -98 41 -137 11 -38 35 -95 53
-125 61 -103 145 -121 336 -75 57 14 105 25 108 25 2 0 4 -36 4 -79 l0 -80
-82 -32 c-114 -44 -208 -46 -290 -6 -130 64 -210 176 -224 310 -3 37 -3 120 1
184 8 133 16 135 53 15z m-1135 -7 c15 -35 27 -69 27 -75 0 -6 14 -44 30 -84
30 -71 71 -121 119 -146 27 -14 169 -16 228 -2 l41 9 12 -46 c6 -25 16 -51 22
-58 16 -20 2 -30 -67 -48 -44 -12 -83 -16 -125 -12 -114 10 -280 116 -315 201
-8 18 -17 56 -21 84 -7 56 4 242 14 242 4 0 19 -29 35 -65z m4296 -35 c110
-21 227 -104 285 -203 26 -43 56 -143 56 -184 l0 -23 -320 0 -320 0 0 210 0
210 124 0 c68 0 146 -4 175 -10z m-4698 -103 c-8 -8 -11 -7 -11 4 0 20 13 34
18 19 3 -7 -1 -17 -7 -23z m-107 -18 c29 -14 56 -73 56 -125 0 -117 -97 -167
-140 -71 -33 72 -19 155 31 191 28 19 22 19 53 5z m1151 -23 c61 -61 35 -215
-37 -224 -77 -9 -103 165 -35 228 27 26 43 25 72 -4z m-949 -444 c54 -110 154
-223 241 -273 l54 -31 -60 -40 c-122 -79 -226 -223 -276 -380 l-21 -67 -17 38
c-10 21 -26 46 -36 55 -18 16 -18 18 12 73 54 101 46 256 -19 333 -24 28 -25
32 -11 48 80 92 87 292 13 379 l-24 27 31 38 30 38 19 -72 c10 -40 38 -115 64
-166z m1091 48 c54 -209 184 -402 328 -486 16 -9 13 -13 -31 -39 -82 -47 -185
-161 -237 -262 -25 -48 -51 -108 -59 -133 l-13 -45 -6 60 c-3 33 -18 86 -33
118 l-27 59 27 54 c50 102 40 250 -21 322 l-25 30 35 57 c53 89 60 202 16 299
-18 41 -19 52 -8 97 l12 52 9 -44 c4 -24 19 -87 33 -139z m3853 67 c0 -31 -28
-123 -51 -169 -26 -52 -116 -141 -169 -168 -76 -39 -137 -50 -282 -50 l-138 0
0 205 0 205 320 0 320 0 0 -23z m-5140 -15 c67 -67 66 -217 -2 -289 -12 -13
-32 -23 -44 -23 -44 0 -94 88 -94 166 0 53 29 132 57 153 34 28 49 26 83 -7z
m1140 -10 c67 -67 66 -217 -2 -289 -29 -32 -61 -29 -92 7 -64 76 -57 236 11
290 34 27 49 25 83 -8z m-162 -381 c-12 -14 -26 -30 -29 -34 -4 -5 -21 -1 -39
8 l-33 17 49 28 c36 20 53 25 62 17 10 -8 8 -15 -10 -36z m-978 -39 c67 -67
66 -217 -2 -289 -29 -32 -61 -29 -92 7 -64 76 -57 236 11 290 34 27 49 25 83
-8z m1140 -10 c74 -75 60 -255 -23 -302 -24 -13 -30 -13 -54 0 -90 49 -91 272
-2 317 35 19 47 16 79 -15z m1040 -114 l0 -142 -42 41 c-24 23 -64 55 -91 71
l-47 30 47 30 c27 17 66 49 88 71 21 23 40 41 42 41 2 0 3 -64 3 -142z m-1395
97 c32 -9 75 -25 94 -36 l36 -20 0 -72 c1 -86 17 -137 57 -182 l29 -34 -28
-48 c-37 -63 -39 -156 -6 -220 l22 -42 -37 -10 c-106 -27 -222 -33 -259 -12
-35 18 -64 67 -98 169 -18 53 -52 136 -75 185 -35 73 -46 87 -65 87 -31 0 -41
-32 -56 -175 -14 -134 -6 -239 22 -306 29 -68 111 -140 216 -191 125 -60 186
-62 361 -12 16 5 22 2 22 -9 0 -9 18 -35 40 -58 l40 -42 -31 -48 c-28 -44
-150 -168 -167 -170 -4 0 -30 -1 -58 -2 -38 -2 -59 -9 -87 -30 -43 -33 -68
-34 -108 -5 -23 17 -45 23 -88 24 -69 0 -106 21 -177 96 -98 105 -152 218
-180 381 -42 241 32 504 185 656 120 121 253 163 396 126z m4205 -34 c142 -59
243 -185 265 -334 l7 -47 -381 0 -381 0 0 206 0 206 218 -4 c198 -4 222 -6
272 -27z m-3077 -121 c80 -25 172 -91 226 -163 l41 -54 0 -161 c0 -88 5 -195
11 -237 6 -42 8 -79 6 -81 -2 -3 -58 -18 -123 -35 -136 -35 -229 -36 -266 -3
-28 26 -62 97 -83 174 -17 60 -67 192 -102 268 -11 23 -22 32 -39 32 -31 0
-41 -37 -56 -211 -23 -267 22 -388 182 -494 73 -48 151 -75 220 -75 60 0 168
31 265 75 43 19 80 33 83 31 11 -11 -11 -80 -32 -101 -34 -34 -136 -83 -208
-100 -123 -29 -208 -18 -346 46 -91 42 -198 134 -227 195 -9 20 -23 34 -34 34
-10 0 -26 10 -37 21 -10 12 -33 28 -51 35 l-32 14 5 112 c15 339 163 600 383
675 82 28 131 29 214 3z m-1416 -263 c13 -28 34 -84 47 -123 37 -111 70 -159
127 -189 52 -28 196 -22 322 13 20 6 37 10 37 9 0 -1 -7 -20 -15 -42 -8 -22
-14 -54 -15 -72 0 -31 -2 -33 -71 -54 -99 -30 -174 -23 -272 25 -83 41 -161
110 -182 160 -8 18 -17 56 -21 84 -7 56 4 242 14 242 4 0 17 -24 29 -53z
m-477 23 c71 -71 40 -230 -45 -230 -26 0 -63 48 -70 90 -9 53 1 94 32 130 29
35 55 38 83 10z m1114 -1 c14 -7 32 -26 41 -44 52 -112 -45 -240 -120 -159
-48 51 -42 152 12 193 30 24 34 25 67 10z m4126 -87 c0 -36 -26 -126 -51 -174
-31 -62 -125 -147 -198 -182 l-66 -31 -234 -3 -234 -4 7 34 c4 18 9 113 13
211 l5 177 379 0 379 0 0 -28z m-3633 -129 c11 -32 33 -97 48 -146 32 -101 70
-164 117 -192 49 -30 183 -26 309 9 53 14 101 26 106 26 9 0 48 -109 41 -115
-10 -10 -201 -86 -241 -96 -104 -26 -218 9 -316 97 -62 56 -98 128 -107 215
-7 71 3 259 14 259 4 0 17 -26 29 -57z m-1559 -109 c63 -44 70 -156 12 -214
-29 -29 -64 -25 -94 10 -48 58 -43 157 11 199 31 25 42 26 71 5z m1132 -4 c71
-71 40 -230 -45 -230 -26 0 -63 48 -70 90 -9 53 1 94 32 130 29 35 55 38 83
10z m3649 -240 c110 -21 227 -104 285 -203 26 -43 56 -143 56 -184 l0 -23
-501 0 -500 0 41 44 c87 93 178 239 210 339 l12 37 172 0 c95 0 196 -4 225
-10z m-4689 -70 c71 -71 40 -230 -45 -230 -26 0 -63 48 -70 90 -9 53 1 94 32
130 29 35 55 38 83 10z m1175 -14 c62 -62 30 -216 -45 -216 -30 0 -68 42 -76
85 -13 69 31 155 78 155 11 0 30 -11 43 -24z m-205 -111 c0 -17 -4 -23 -15
-19 -11 5 -12 10 -2 25 15 25 17 24 17 -6z m484 -115 c30 -17 88 -43 128 -57
62 -23 89 -27 183 -27 108 0 159 11 269 59 35 15 -23 -73 -99 -150 -96 -98
-142 -119 -273 -123 -96 -4 -106 -2 -165 26 -80 38 -142 94 -203 182 l-48 70
17 35 c9 19 20 53 23 75 l7 40 53 -49 c30 -27 79 -64 108 -81z m877 -96 c74
-70 136 -114 234 -166 l70 -37 -355 0 -355 0 36 32 c84 75 171 211 213 331 5
15 14 8 50 -40 23 -33 72 -86 107 -120z m-2133 110 c85 -60 58 -234 -36 -234
-27 0 -70 53 -78 96 -9 48 10 108 43 133 31 25 42 26 71 5z m777 -18 c62 -62
30 -216 -45 -216 -30 0 -68 42 -76 85 -13 69 31 155 78 155 11 0 30 -11 43
-24z m-255 -66 c41 -41 52 -113 26 -175 -30 -70 -95 -71 -126 -2 -31 67 -23
126 22 175 27 27 52 28 78 2z m-278 -1 c48 -26 63 -134 25 -190 -61 -92 -163
5 -128 122 12 41 45 79 69 79 7 0 22 -5 34 -11z m790 -69 c25 -36 68 -86 96
-112 l51 -48 -207 1 c-121 0 -198 4 -186 9 54 22 104 112 104 187 0 30 2 32
43 35 23 2 45 1 48 -2 3 -3 26 -34 51 -70z m3798 -23 c0 -31 -28 -123 -51
-169 -22 -43 -104 -129 -149 -157 l-33 -20 -51 30 c-156 91 -379 158 -581 173
-33 2 -145 5 -250 5 l-190 1 82 44 c45 25 103 61 129 80 l47 36 523 0 524 0 0
-23z m-4141 -134 c2 -2 -15 -3 -38 -3 -39 0 -41 1 -31 20 10 19 12 19 38 3 15
-9 29 -18 31 -20z m-329 -19 c0 -8 -9 -14 -20 -14 -17 0 -19 3 -8 19 13 21 28
19 28 -5z m3684 -80 c187 -25 375 -92 508 -181 487 -323 356 -858 -260 -1063
-135 -45 -234 -61 -397 -67 -235 -9 -440 31 -632 122 l-91 43 -13 -29 -12 -30
-18 31 c-10 16 -21 30 -24 30 -3 0 -36 -15 -74 -34 -392 -198 -981 -221 -1420
-55 -58 22 -137 57 -174 79 l-68 39 -11 -25 c-10 -21 -13 -22 -27 -10 -14 13
-28 8 -114 -34 -229 -112 -525 -155 -806 -115 -546 78 -896 435 -775 790 38
110 131 227 250 311 140 100 383 186 574 203 47 4 850 8 1785 8 1371 1 1719
-2 1799 -13z"/>
<path d="M3927 6552 c-41 -28 -56 -53 -57 -94 -1 -110 191 -98 214 14 16 80
-81 129 -157 80z m113 -42 c20 -38 -23 -89 -75 -90 -57 0 -73 43 -30 85 31 32
89 35 105 5z"/>
<path d="M3649 6260 c-35 -19 -69 -70 -69 -105 0 -29 55 -75 90 -75 104 0 169
115 99 174 -36 31 -70 32 -120 6z m92 -30 c34 -19 22 -73 -22 -95 -38 -20 -62
-19 -83 4 -16 17 -16 23 -4 47 21 45 70 64 109 44z"/>
<path d="M3445 5961 c-47 -12 -74 -29 -90 -61 -20 -39 -19 -73 4 -101 16 -20
28 -24 76 -24 53 0 59 3 91 37 41 45 45 85 12 122 -27 29 -52 36 -93 27z m69
-64 c13 -21 -8 -61 -41 -76 -73 -33 -120 13 -73 72 31 39 91 41 114 4z"/>
<path d="M4425 5640 c-307 -43 -557 -260 -652 -565 l-28 -90 -3 -947 c-3 -909
-2 -951 17 -1043 60 -291 275 -523 567 -607 73 -21 97 -23 339 -23 279 0 312
4 436 56 192 79 352 239 428 430 63 158 62 136 58 1189 -3 886 -4 959 -21
1015 -84 279 -281 480 -551 561 -84 25 -104 27 -310 30 -121 1 -247 -1 -280
-6z m563 -99 c204 -60 363 -195 453 -386 70 -150 69 -127 69 -1149 0 -747 -3
-928 -14 -988 -49 -257 -224 -455 -481 -545 -80 -28 -81 -28 -340 -28 -221 0
-270 3 -324 18 -200 57 -362 190 -452 372 -78 160 -74 93 -74 1170 l0 960 23
80 c35 123 92 217 186 310 92 90 162 135 264 171 109 38 162 43 397 40 190 -3
230 -6 293 -25z"/>
<path d="M4058 4713 c-108 -69 -59 -250 110 -408 50 -47 146 -94 208 -101 141
-17 196 106 118 262 -39 79 -152 192 -229 229 -74 37 -166 45 -207 18z m170
-68 c119 -55 242 -214 242 -311 0 -79 -61 -95 -168 -44 -153 72 -282 273 -228
355 22 34 82 34 154 0z"/>
<path d="M5119 4717 c-112 -32 -242 -145 -300 -263 -60 -121 -43 -211 47 -250
76 -32 208 20 312 125 140 140 180 314 86 376 -33 21 -93 26 -145 12z m119
-70 c7 -8 13 -33 14 -58 2 -131 -197 -332 -329 -332 -58 0 -78 20 -77 77 3
167 300 404 392 313z"/>
<path d="M4599 4221 c-108 -35 -150 -150 -85 -235 36 -48 87 -69 153 -64 91 8
148 66 148 151 0 86 -54 142 -147 152 -24 2 -55 1 -69 -4z m134 -91 c41 -47
32 -107 -22 -135 -62 -31 -139 -9 -162 48 -17 39 -2 76 41 105 48 32 104 25
143 -18z"/>
<path d="M4824 3932 c-63 -40 -71 -139 -18 -247 38 -78 140 -181 224 -225 55
-29 75 -35 132 -35 63 0 70 2 100 33 30 30 33 38 33 95 0 171 -202 381 -379
394 -48 3 -67 0 -92 -15z m177 -69 c68 -33 178 -142 208 -206 13 -27 26 -68
28 -92 14 -122 -138 -110 -278 22 -108 102 -160 232 -112 285 24 27 88 23 154
-9z"/>
<path d="M4310 3921 c-156 -48 -322 -244 -324 -384 -2 -180 209 -181 390 -2
143 141 181 295 93 369 -25 21 -41 26 -82 25 -29 0 -63 -4 -77 -8z m126 -65
c14 -11 19 -26 18 -59 -3 -130 -177 -314 -316 -333 -133 -18 -119 148 24 289
100 98 219 143 274 103z"/>
<path d="M2425 2070 c-549 -61 -921 -306 -892 -587 29 -276 395 -489 928 -539
l66 -6 7 32 c3 18 6 36 6 40 0 4 -35 11 -77 14 -428 37 -768 204 -837 409 -21
63 -20 95 5 161 72 194 396 355 794 395 50 5 270 9 489 10 l400 1 -22 -22
c-33 -36 -55 -96 -47 -135 18 -95 173 -173 345 -173 120 0 229 33 293 90 l36
31 39 -30 c136 -110 457 -105 575 7 71 67 75 132 13 200 l-21 24 435 -5 c384
-4 448 -7 545 -25 282 -53 478 -141 593 -266 194 -211 67 -446 -318 -589 -94
-35 -266 -77 -314 -77 -31 0 -37 -10 -30 -49 8 -38 25 -40 158 -11 181 40 321
95 443 176 96 64 161 133 200 212 24 48 28 70 28 137 0 69 -4 89 -31 146 -40
84 -116 161 -226 228 -174 108 -379 165 -698 195 -100 10 -2803 15 -2885 6z
m1524 -79 c2 -1 -4 -10 -14 -21 -17 -19 -19 -19 -37 -4 -10 10 -18 20 -18 24
0 6 34 6 69 1z m-198 -30 c71 -27 114 -70 105 -105 -14 -56 -141 -106 -266
-106 -120 0 -249 49 -265 101 -15 45 65 108 166 129 67 14 197 4 260 -19z
m645 3 c164 -55 142 -153 -44 -193 -187 -39 -414 35 -374 123 13 29 102 74
169 86 66 12 190 4 249 -16z"/>
<path d="M4524 1075 c-345 -125 -808 -127 -1185 -6 -53 17 -99 31 -102 31 -9
0 -27 -64 -20 -71 12 -10 163 -58 250 -79 154 -36 236 -44 458 -45 244 0 359
14 539 66 90 25 206 67 206 74 0 1 -5 16 -11 34 -13 38 -18 38 -135 -4z"/>
<path d="M4642 6879 c-169 -67 -189 -240 -38 -334 45 -27 57 -30 135 -30 73 0
93 4 130 25 97 55 136 152 93 236 -24 47 -43 65 -102 94 -64 32 -151 36 -218
9z m160 -71 c47 -14 98 -69 98 -104 0 -90 -143 -143 -247 -93 -102 49 -89 154
24 194 48 18 75 18 125 3z"/>
</g>
</svg>
