<?xml version="1.0" standalone="no"?>
<!DOCTYPE svg PUBLIC "-//W3C//DTD SVG 20010904//EN"
 "http://www.w3.org/TR/2001/REC-SVG-20010904/DTD/svg10.dtd">
<svg version="1.0" xmlns="http://www.w3.org/2000/svg"
 width="786.000000pt" height="786.000000pt" viewBox="0 0 786.000000 786.000000"
 preserveAspectRatio="xMidYMid meet">

<g transform="translate(0.000000,786.000000) scale(0.100000,-0.100000)"
fill="#000000" stroke="none">
<path d="M1675 7140 c-122 -25 -233 -96 -309 -200 -66 -89 -87 -160 -93 -312
l-6 -127 -27 57 c-54 112 -150 217 -245 265 -17 8 -58 21 -93 27 -123 25 -241
-20 -344 -129 -79 -83 -118 -149 -157 -266 -129 -384 8 -856 286 -988 61 -29
77 -32 158 -32 80 0 97 4 150 30 88 43 183 143 234 245 l41 82 0 -1843 0
-1844 -25 53 c-57 123 -151 225 -252 273 -59 28 -78 33 -148 33 -122 -1 -180
-27 -280 -128 -96 -96 -143 -183 -180 -332 -67 -262 -25 -552 107 -750 60 -89
112 -137 198 -178 58 -28 75 -31 155 -31 80 0 97 4 150 30 84 41 180 140 232
240 l42 80 1 -120 c1 -199 40 -311 147 -418 272 -272 730 -145 828 230 13 48
15 184 15 880 l0 822 33 -19 c17 -10 75 -35 127 -55 52 -20 115 -48 140 -62
94 -54 380 -236 380 -242 0 -3 -84 -4 -187 -3 -248 5 -328 -13 -411 -92 -47
-44 -65 -83 -65 -141 0 -98 30 -136 310 -391 371 -338 635 -551 828 -670 316
-193 471 -246 790 -269 50 -4 101 -9 115 -12 47 -9 855 -11 990 -3 337 21 487
45 825 130 223 57 334 93 451 150 234 113 388 276 514 544 163 345 306 985
390 1741 18 160 20 249 20 810 0 583 -1 639 -20 755 -43 268 -91 446 -215 805
-185 536 -324 806 -518 1011 -258 273 -520 363 -1067 368 -303 3 -552 -8 -715
-32 -77 -12 -165 -24 -195 -27 -202 -23 -648 -101 -860 -151 -292 -68 -431
-142 -505 -268 -14 -24 -48 -104 -75 -178 -26 -73 -66 -176 -88 -228 -64 -150
-115 -336 -213 -765 -128 -561 -169 -694 -256 -839 -55 -90 -170 -205 -288
-286 -57 -40 -134 -99 -170 -132 l-65 -60 0 1269 c0 1382 2 1320 -56 1436 -33
65 -142 173 -211 210 -89 48 -219 67 -318 47z m165 -80 c131 -25 245 -114 303
-237 l32 -68 3 -2799 c2 -3089 7 -2865 -60 -2968 -43 -68 -132 -144 -198 -170
-74 -30 -222 -32 -295 -4 -107 41 -203 135 -247 243 l-23 58 -3 2785 c-1 1889
1 2801 8 2835 31 152 151 279 300 319 67 18 110 19 180 6z m3725 -10 c267 -38
472 -142 552 -278 18 -31 27 -63 31 -112 7 -99 -31 -177 -136 -279 -151 -148
-404 -261 -707 -317 -143 -27 -503 -27 -625 -1 -176 38 -325 106 -407 187 -72
70 -88 108 -88 205 0 108 24 156 129 260 166 163 431 279 756 328 111 17 394
21 495 7z m500 -9 c160 -24 244 -49 359 -109 280 -144 486 -423 674 -912 81
-211 225 -651 256 -782 76 -323 100 -550 100 -968 1 -367 -11 -608 -25 -517
-4 27 -10 51 -13 54 -3 3 -42 0 -88 -6 -407 -56 -1082 -136 -1393 -166 -88 -8
-180 -17 -205 -20 -352 -36 -997 -42 -1255 -12 -288 33 -530 80 -825 159 -102
28 -202 55 -223 60 -27 8 -39 17 -43 34 -9 34 -87 101 -178 153 -74 42 -77 43
-91 25 -8 -11 -15 -22 -15 -25 0 -4 33 -26 73 -49 93 -55 144 -96 152 -120 14
-44 -81 -123 -198 -165 l-66 -24 -3 71 -3 71 -31 -74 c-27 -67 -33 -74 -61
-77 -20 -2 -67 13 -134 43 -169 76 -347 167 -384 197 -39 32 -78 107 -99 190
l-15 58 52 50 c29 27 99 83 157 122 185 129 307 272 380 445 44 104 103 316
165 590 138 611 167 716 245 903 26 63 64 162 85 220 68 190 105 240 222 298
115 58 342 116 670 172 98 17 189 33 203 36 14 3 -9 -15 -51 -40 -156 -92
-267 -200 -325 -314 -26 -52 -29 -66 -29 -157 0 -125 21 -173 113 -263 110
-107 310 -190 536 -221 115 -16 370 -13 499 5 237 34 476 114 647 217 119 71
249 201 292 293 30 63 33 77 33 164 0 86 -3 100 -30 150 -46 84 -129 159 -235
213 -108 56 -100 58 105 28z m-5100 -296 c110 -53 210 -198 257 -370 17 -66
21 -108 21 -235 0 -140 -2 -163 -27 -245 -53 -175 -142 -300 -251 -355 -72
-36 -179 -35 -251 2 -110 57 -209 203 -255 374 -32 116 -32 325 -1 449 80 319
299 482 507 380z m1369 -2855 c13 -21 44 -53 68 -73 50 -40 234 -135 428 -218
l135 -59 -3 -42 c-7 -77 -41 -149 -96 -203 -54 -53 -103 -79 -354 -194 -84
-39 -175 -86 -203 -105 l-49 -36 1 553 0 552 24 -68 c13 -38 35 -86 49 -107z
m1015 -172 c-5 -17 -7 -33 -5 -36 7 -6 278 -80 431 -117 287 -69 525 -109 764
-128 l155 -12 7 -28 c37 -139 47 -853 15 -1132 -23 -204 -59 -417 -97 -572
-78 -321 -214 -617 -338 -737 l-40 -39 -138 18 c-171 21 -279 52 -408 115
-294 144 -566 348 -1033 775 -222 202 -287 272 -301 319 -20 74 30 136 137
171 47 15 90 17 357 14 220 -3 307 -1 315 8 22 21 -10 64 -59 80 -24 8 -128
68 -230 132 -260 165 -312 193 -432 241 -59 22 -117 52 -129 65 l-23 25 38 34
c20 19 85 56 144 83 246 111 399 193 444 237 71 68 106 153 125 296 l7 54 60
22 c98 35 152 64 197 105 24 21 44 38 45 39 1 0 -3 -14 -8 -32z m4081 -98 c0
-57 -31 -336 -60 -540 -90 -632 -208 -1109 -345 -1396 -67 -142 -112 -210
-200 -303 -114 -119 -235 -195 -415 -259 -66 -23 -425 -118 -552 -146 -11 -3
1 21 36 73 158 226 277 586 345 1041 38 261 46 386 45 740 0 305 -6 426 -30
626 l-6 51 73 7 c98 9 670 81 879 110 232 33 230 33 230 -4z m-1251 -217 c48
-378 38 -923 -24 -1332 -75 -499 -238 -920 -423 -1094 -22 -21 -45 -30 -86
-36 -31 -4 -56 -5 -56 -1 0 4 11 17 25 30 14 13 47 55 74 94 179 260 309 703
367 1248 31 301 29 814 -6 1093 -10 81 -8 85 66 85 l51 0 12 -87z m-216 45
c32 -130 44 -849 19 -1083 -52 -473 -132 -807 -257 -1072 -62 -131 -110 -205
-182 -284 -33 -35 -51 -63 -48 -72 5 -11 -9 -16 -72 -21 -108 -9 -853 -20
-853 -13 0 3 25 41 56 84 186 258 318 697 379 1258 32 294 29 852 -5 1105 -5
35 -8 65 -7 66 1 1 94 4 207 8 221 6 309 12 525 31 218 20 232 19 238 -7z
m-1049 -60 c32 -179 43 -850 18 -1083 -72 -656 -217 -1109 -429 -1345 -42 -47
-48 -50 -94 -50 -27 0 -49 2 -49 5 0 2 23 35 51 72 28 37 79 127 114 198 141
291 227 640 277 1135 25 239 13 919 -18 1073 l-6 27 65 0 65 0 6 -32z m-3949
-1033 c110 -53 210 -198 257 -370 29 -109 31 -346 4 -450 -45 -176 -149 -329
-261 -385 -72 -36 -179 -35 -250 2 -193 101 -313 410 -276 710 47 384 288 610
526 493z"/>
<path d="M5103 7004 c-434 -61 -765 -260 -799 -481 -10 -65 19 -142 75 -198
83 -84 192 -133 366 -166 152 -28 426 -21 596 14 494 103 780 359 664 593 -30
61 -61 91 -140 139 -164 98 -476 139 -762 99z m307 -99 c100 -73 150 -153 158
-252 4 -56 1 -70 -27 -127 -41 -83 -127 -164 -227 -212 -41 -20 -77 -34 -79
-32 -2 2 20 22 49 44 64 50 130 147 152 222 34 115 -1 245 -92 342 l-47 50 33
0 c21 0 49 -12 80 -35z m-182 -15 c89 -70 132 -142 140 -236 4 -52 0 -71 -21
-117 -53 -117 -173 -210 -342 -266 -133 -44 -199 -48 -318 -17 -167 43 -285
125 -301 209 -32 173 231 361 619 443 154 32 164 31 223 -16z m414 16 c113
-29 189 -65 241 -115 50 -47 67 -80 67 -131 0 -54 -28 -107 -89 -165 -62 -60
-86 -76 -185 -126 -62 -32 -240 -99 -262 -99 -3 0 23 21 57 48 200 151 234
397 79 566 -51 56 -45 57 92 22z"/>
<path d="M6325 5485 c-28 -27 -30 -42 -14 -79 22 -47 95 -52 118 -7 17 32 13
51 -18 82 -36 35 -54 36 -86 4z m69 -42 c8 -20 -11 -43 -29 -36 -8 2 -17 14
-21 25 -11 36 37 46 50 11z"/>
<path d="M4020 5084 c-14 -3 -79 -16 -145 -29 -66 -13 -142 -27 -170 -31 -61
-8 -396 -82 -403 -89 -12 -12 239 -4 303 9 39 8 90 16 114 18 l45 3 -2 -50
c-3 -65 17 -97 110 -174 82 -69 177 -121 219 -121 16 0 63 11 106 25 56 18
100 25 159 25 72 0 89 -4 139 -30 118 -62 108 -32 -40 120 -56 58 -123 135
-149 172 -51 72 -104 124 -143 139 -30 11 -109 18 -143 13z m144 -83 c19 -12
65 -63 102 -114 36 -51 79 -102 95 -115 16 -13 29 -28 29 -33 0 -5 -28 -9 -62
-9 -41 0 -90 -9 -141 -26 -53 -18 -89 -24 -111 -20 -41 8 -134 71 -203 139
-55 53 -60 69 -47 134 6 29 9 30 107 50 122 24 184 23 231 -6z"/>
<path d="M5710 4843 c-33 -12 -60 -47 -60 -79 0 -35 15 -52 51 -58 46 -7 109
43 109 86 0 41 -54 68 -100 51z m57 -49 c6 -18 -26 -44 -53 -44 -29 0 -34 33
-6 49 21 13 54 10 59 -5z"/>
<path d="M4788 4555 c-51 -28 -65 -98 -28 -135 52 -52 160 -5 160 69 0 62 -74
99 -132 66z m82 -40 c19 -23 4 -62 -28 -73 -36 -12 -62 1 -62 33 0 43 64 71
90 40z"/>
</g>
</svg>
