<?xml version="1.0" standalone="no"?>
<!DOCTYPE svg PUBLIC "-//W3C//DTD SVG 20010904//EN"
 "http://www.w3.org/TR/2001/REC-SVG-20010904/DTD/svg10.dtd">
<svg version="1.0" xmlns="http://www.w3.org/2000/svg"
 width="786.000000pt" height="786.000000pt" viewBox="0 0 786.000000 786.000000"
 preserveAspectRatio="xMidYMid meet">

<g transform="translate(0.000000,786.000000) scale(0.100000,-0.100000)"
fill="#000000" stroke="none">
<path d="M3915 6847 c-139 -37 -227 -125 -250 -249 l-7 -37 -32 23 c-147 112
-399 38 -491 -144 -14 -29 -29 -74 -32 -101 -3 -27 -7 -49 -8 -49 -1 0 -19 7
-38 15 -51 21 -136 19 -202 -6 -148 -55 -259 -241 -227 -380 16 -66 15 -69 -7
-69 -10 0 -42 -8 -71 -17 -117 -38 -209 -182 -210 -329 0 -92 61 -218 125
-255 l34 -21 -42 -32 c-54 -41 -101 -119 -117 -196 -45 -210 104 -418 284
-398 l44 5 -60 -91 c-156 -237 -270 -575 -341 -1006 -2 -14 -5 639 -6 1450 -1
1291 -3 1483 -16 1535 -61 231 -294 385 -527 346 -191 -31 -352 -188 -387
-376 -8 -41 -11 -793 -11 -2534 0 -2710 -3 -2541 58 -2655 15 -28 53 -76 84
-108 257 -257 691 -136 783 219 11 42 15 119 16 283 1 124 4 214 6 200 39
-248 103 -489 162 -614 91 -194 232 -275 461 -263 168 9 327 65 405 142 38 39
85 124 105 193 7 23 16 42 19 42 3 0 17 -17 31 -37 36 -53 141 -136 229 -182
139 -71 297 -110 536 -131 237 -20 320 -23 600 -23 442 1 695 36 903 126 226
98 435 295 510 481 50 123 54 181 56 741 1 631 -6 736 -99 1390 -59 412 -118
623 -219 784 l-28 44 23 -7 c107 -32 183 -13 260 63 45 45 60 70 79 125 45
137 8 293 -92 380 l-48 42 44 37 c94 78 130 227 86 357 -42 124 -133 209 -242
225 -53 8 -53 8 -38 35 21 39 30 119 20 172 -15 79 -48 137 -111 199 -98 97
-231 127 -332 75 l-47 -23 0 52 c0 87 -25 142 -99 216 -50 50 -81 71 -126 88
-107 40 -244 25 -306 -35 l-26 -25 -6 52 c-19 160 -172 273 -356 264 -61 -3
-88 -10 -147 -40 -68 -33 -98 -58 -134 -114 l-15 -22 -32 44 c-71 101 -246
158 -378 124z m220 -100 c94 -48 142 -121 132 -203 -20 -182 -301 -259 -450
-125 -72 65 -93 141 -58 216 58 125 243 180 376 112z m629 4 c89 -40 148 -139
132 -223 -10 -55 -59 -114 -118 -144 -139 -70 -317 -23 -373 99 -29 61 -31 94
-9 145 53 128 228 187 368 123z m-2880 4 c115 -30 205 -105 259 -215 l32 -65
0 -2535 0 -2535 -32 -67 c-40 -85 -106 -151 -191 -191 -61 -29 -76 -32 -162
-32 -85 0 -102 3 -160 31 -71 34 -150 107 -181 166 -52 101 -49 -38 -49 2628
0 2674 -3 2531 51 2626 51 90 144 162 244 189 67 18 119 18 189 0z m1685 -228
c122 -81 78 -268 -82 -354 -49 -27 -196 -25 -233 3 -72 53 -91 126 -54 211 45
105 162 178 273 169 40 -3 70 -12 96 -29z m1738 -13 c165 -79 205 -280 72
-359 -52 -30 -158 -27 -225 7 -100 52 -163 154 -150 243 19 123 164 176 303
109z m-928 -137 c13 -15 45 -40 71 -55 l47 -27 -174 -1 -173 -1 49 28 c47 27
120 101 122 123 0 6 8 0 17 -14 9 -13 28 -37 41 -53z m-556 -64 c17 -9 60 -24
94 -33 l61 -16 -65 -12 c-37 -7 -120 -30 -186 -52 l-120 -39 31 32 c38 40 70
103 78 156 l7 41 33 -30 c19 -16 49 -37 67 -47z m1131 -63 c10 -19 25 -43 34
-52 19 -22 18 -22 -49 1 -51 18 -185 54 -234 63 -13 3 0 10 35 21 58 17 135
61 160 91 13 16 15 13 25 -36 6 -29 19 -69 29 -88z m-1896 -36 c15 -11 37 -40
50 -65 69 -131 -47 -325 -212 -353 -80 -14 -163 40 -185 121 -15 54 -14 75 9
136 44 116 147 192 253 185 36 -3 67 -11 85 -24z m1176 -2 c9 -15 -40 -194
-79 -287 -69 -167 -156 -298 -284 -425 -234 -233 -523 -350 -836 -337 -66 2
-127 8 -136 11 -13 6 -14 16 -7 64 26 177 118 362 248 505 l51 56 44 -34 c110
-83 252 -98 370 -37 123 63 217 194 250 352 9 41 21 78 28 82 14 9 167 36 262
47 39 5 73 9 77 10 4 0 9 -3 12 -7z m380 -18 c55 -8 101 -16 104 -18 2 -3 10
-40 18 -83 28 -162 132 -310 261 -371 50 -23 71 -27 148 -27 79 0 97 4 147 29
31 16 75 47 98 69 l42 39 50 -48 c151 -147 264 -363 292 -560 l6 -42 -75 -11
c-217 -32 -452 7 -653 108 -318 161 -567 484 -648 841 -8 36 -17 73 -20 82 -5
16 1 17 63 12 37 -3 113 -12 167 -20z m1163 1 c102 -43 175 -147 176 -252 2
-226 -283 -241 -392 -21 -74 148 -9 286 137 288 23 0 59 -7 79 -15z m-1416
-213 c78 -236 231 -463 414 -615 54 -45 57 -50 30 -44 -146 31 -697 33 -905 3
-58 -9 -109 -16 -113 -16 -4 0 18 22 50 48 144 121 263 271 348 440 45 89 115
284 115 319 0 37 15 34 23 -4 4 -21 21 -80 38 -131z m565 138 c117 -40 270
-115 368 -181 l79 -53 -47 -42 c-117 -106 -291 -94 -401 28 -70 77 -145 278
-103 278 8 0 54 -14 104 -30z m-1151 -32 c-12 -74 -72 -183 -131 -237 -96 -88
-206 -105 -315 -48 -34 17 -64 37 -66 44 -5 15 102 95 206 154 75 43 274 128
299 129 11 0 12 -10 7 -42z m1677 -38 c-2 -36 2 -78 11 -105 l16 -44 -62 47
c-34 26 -80 58 -101 71 l-38 24 64 16 c49 13 113 41 113 50 0 1 -2 -26 -3 -59z
m-2147 24 c33 -8 74 -11 90 -8 23 5 12 -6 -45 -43 -41 -27 -104 -74 -140 -105
l-65 -55 28 57 c18 36 31 81 34 119 5 52 8 61 22 55 9 -4 43 -13 76 -20z
m-264 -321 c-51 -67 -88 -122 -118 -178 l-33 -60 0 45 c0 25 -9 68 -19 97
l-17 51 58 11 c33 6 78 21 101 35 23 13 44 24 45 25 2 1 -6 -11 -17 -26z
m-322 -12 c17 -12 43 -43 58 -69 24 -41 28 -58 28 -127 0 -70 -4 -87 -30 -134
-44 -79 -91 -114 -163 -119 -48 -3 -63 0 -92 20 -121 82 -132 268 -23 389 20
22 50 47 67 54 43 20 117 13 155 -14z m3051 -54 c51 -2 57 -6 41 -22 -5 -6
-18 -36 -29 -67 l-19 -58 -55 89 -56 89 34 -14 c19 -8 56 -15 84 -17z m316 4
c53 -24 107 -89 127 -152 75 -229 -136 -414 -289 -254 -47 48 -84 135 -84 194
0 49 22 122 49 159 24 34 94 72 131 72 14 0 43 -9 66 -19z m-3267 -403 c-4
-24 -11 -64 -14 -91 l-6 -47 -41 35 c-23 19 -46 35 -51 35 -6 0 8 13 29 29 21
15 50 40 63 55 14 14 25 26 27 26 1 0 -2 -19 -7 -42z m1746 -39 c50 -6 94 -15
99 -19 35 -34 68 -398 48 -540 -6 -41 -10 -75 -9 -76 1 -1 18 -4 39 -7 46 -7
47 -4 54 173 6 132 -4 267 -28 378 -6 28 -9 54 -7 57 8 8 219 -51 304 -85 107
-42 216 -101 297 -162 193 -143 277 -336 219 -502 -23 -66 -68 -140 -104 -175
l-24 -22 -99 67 c-228 155 -546 262 -874 293 -105 10 -359 8 -456 -4 -41 -5
-52 -4 -57 9 -15 38 -19 247 -7 351 12 103 43 251 56 264 20 21 372 20 549 0z
m-645 -16 c0 -5 -10 -55 -21 -113 -23 -112 -32 -364 -16 -465 l7 -50 -86 -18
c-216 -45 -447 -142 -620 -262 l-93 -64 -34 40 c-50 58 -93 145 -108 217 -15
71 -3 156 33 226 107 214 409 393 804 476 98 20 134 24 134 13z m1961 -20 c8
-9 25 -23 40 -32 l25 -16 -42 -32 -42 -31 -4 64 c-3 67 1 75 23 47z m-3215
-62 c147 -67 166 -326 31 -435 -34 -27 -47 -31 -97 -31 -50 0 -63 4 -96 31
-60 48 -89 114 -89 204 0 62 5 85 28 132 50 102 134 139 223 99z m3465 -66
c66 -35 114 -144 107 -244 -5 -73 -40 -143 -91 -185 -34 -27 -47 -31 -97 -31
-50 0 -63 4 -96 31 -60 48 -89 114 -89 204 1 183 132 294 266 225z m-3082 -4
l75 -1 -50 -31 c-27 -17 -77 -53 -110 -80 l-62 -49 -11 76 c-16 108 -18 102
37 93 26 -4 81 -8 121 -8z m2731 -3 c0 -39 -20 -151 -36 -203 l-16 -50 -82 80
c-44 44 -114 102 -154 128 -39 27 -72 49 -72 50 0 1 46 1 102 -1 57 -2 128 1
158 6 91 16 100 15 100 -10z m-55 -420 c77 -171 22 -366 -150 -526 -193 -181
-499 -309 -898 -374 -178 -30 -611 -32 -782 -5 -552 88 -930 287 -1065 560
-41 83 -44 93 -44 175 -1 103 18 163 67 210 l34 33 -15 -73 c-48 -239 120
-483 445 -647 156 -78 372 -143 593 -178 161 -25 557 -25 720 0 378 58 685
188 869 368 158 154 216 337 159 507 l-25 73 33 -32 c18 -17 44 -58 59 -91z
m-1225 -113 c240 -26 417 -73 619 -166 78 -36 271 -156 271 -168 -1 -21 -239
-153 -357 -197 -88 -33 -279 -80 -413 -101 -161 -25 -550 -25 -700 0 -300 51
-531 132 -703 249 -69 47 -69 47 43 121 320 209 793 309 1240 262z m1416 -101
c64 -115 123 -303 158 -509 22 -129 93 -660 106 -790 23 -237 28 -428 25 -865
-4 -514 -9 -565 -72 -688 -44 -88 -180 -237 -275 -301 -169 -114 -366 -175
-643 -201 -124 -12 -675 -15 -812 -5 -380 28 -534 59 -688 138 -89 46 -210
153 -231 204 -20 46 -17 154 5 248 39 164 93 556 78 571 -5 5 -106 -292 -126
-371 -6 -22 -22 -103 -36 -180 -53 -287 -106 -445 -172 -507 -74 -70 -264
-124 -407 -116 -107 7 -186 37 -244 95 -125 126 -222 495 -279 1072 -20 202
-22 665 -4 861 54 600 183 1082 359 1347 l36 54 17 -84 c23 -117 76 -213 169
-310 204 -215 554 -365 1010 -434 159 -24 608 -24 763 0 356 55 615 145 835
290 227 150 351 340 352 540 l1 52 20 -24 c11 -13 36 -52 55 -87z"/>
</g>
</svg>
