<?xml version="1.0" standalone="no"?>
<!DOCTYPE svg PUBLIC "-//W3C//DTD SVG 20010904//EN"
 "http://www.w3.org/TR/2001/REC-SVG-20010904/DTD/svg10.dtd">
<svg version="1.0" xmlns="http://www.w3.org/2000/svg"
 width="786.000000pt" height="786.000000pt" viewBox="0 0 786.000000 786.000000"
 preserveAspectRatio="xMidYMid meet">

<g transform="translate(0.000000,786.000000) scale(0.100000,-0.100000)"
fill="#000000" stroke="none">
<path d="M3580 7409 c-153 -23 -345 -99 -468 -186 -112 -80 -246 -222 -333
-353 l-17 -25 -12 45 c-21 78 -61 143 -129 211 -218 218 -561 190 -745 -61
-65 -88 -87 -161 -93 -309 l-6 -123 -35 66 c-53 102 -139 188 -230 233 -69 35
-83 38 -156 38 -69 0 -90 -5 -146 -31 -157 -74 -264 -229 -322 -462 -26 -103
-31 -329 -10 -427 40 -182 98 -302 198 -403 99 -100 159 -127 279 -127 82 0
97 3 155 32 97 48 181 135 238 248 l31 60 0 -365 0 -365 -36 67 c-55 104 -140
190 -231 235 -69 35 -83 38 -156 38 -69 0 -90 -5 -146 -31 -333 -158 -455
-736 -242 -1149 48 -92 159 -205 238 -243 51 -23 72 -27 149 -27 82 0 97 3
155 32 97 48 181 135 238 248 l31 60 0 -350 0 -350 -36 67 c-55 104 -140 190
-231 235 -69 35 -83 38 -156 38 -69 0 -90 -5 -146 -31 -333 -158 -455 -736
-242 -1149 48 -92 159 -205 238 -243 51 -23 72 -27 149 -27 82 0 97 3 157 33
83 40 184 145 232 240 l35 67 0 -365 0 -365 -36 67 c-55 104 -140 190 -231
235 -69 35 -83 38 -156 38 -70 0 -90 -5 -146 -31 -333 -159 -455 -736 -242
-1149 48 -92 159 -205 238 -243 51 -23 72 -27 149 -27 82 0 97 3 155 32 97 48
181 135 238 248 l31 60 1 -115 c1 -194 41 -307 147 -413 215 -215 561 -191
744 53 20 27 39 55 42 62 3 8 17 0 40 -23 19 -20 55 -46 80 -58 57 -28 190
-44 332 -39 l114 3 -29 -23 c-64 -50 -26 -118 98 -179 71 -36 81 -38 166 -37
80 0 102 4 181 36 174 69 430 201 477 245 l26 25 17 -32 c27 -53 139 -157 204
-190 103 -51 155 -60 368 -60 105 0 216 5 245 11 118 25 249 113 315 212 l29
44 36 -31 c71 -62 394 -223 532 -265 37 -12 90 -21 116 -21 102 0 229 59 283
132 25 34 17 73 -22 96 -27 17 -25 17 100 14 279 -7 396 42 467 196 49 108 38
232 -29 337 -43 66 -207 228 -291 288 -163 115 -278 154 -506 171 -58 5 -60
11 -11 30 61 25 222 119 314 184 107 77 282 247 368 357 184 237 303 504 363
815 21 109 32 929 15 1104 -34 342 -155 650 -365 931 -110 148 -335 355 -474
437 l-43 25 118 6 c184 8 283 55 408 190 107 115 163 229 196 400 32 164 20
337 -30 435 -67 131 -288 284 -496 343 -102 29 -245 17 -485 -41 -63 -15 -138
-31 -166 -35 l-52 -7 -69 69 c-81 80 -167 133 -278 170 -79 27 -83 27 -355 28
-232 0 -285 -3 -340 -18 -95 -25 -196 -78 -273 -143 l-68 -56 -62 27 c-305
135 -428 140 -605 26 -77 -51 -160 -135 -196 -201 -40 -73 -34 -143 23 -271
24 -52 45 -100 48 -108 10 -22 -90 37 -136 80 -48 46 -56 79 -48 191 8 118 31
156 211 339 203 207 232 268 145 298 -36 12 -59 12 -139 0z m90 -75 c0 -3 -69
-76 -153 -163 -84 -86 -165 -177 -180 -203 -55 -95 -75 -263 -41 -361 19 -55
77 -111 170 -163 78 -44 116 -51 149 -30 34 22 32 60 -6 144 -51 111 -79 191
-79 225 0 73 117 199 241 261 61 31 82 36 140 36 77 0 181 -29 303 -85 l76
-34 -34 -63 c-46 -85 -76 -187 -83 -283 -15 -208 91 -446 253 -569 53 -41 59
-38 -142 -62 -102 -12 -172 -14 -264 -9 -235 13 -395 13 -545 -1 -269 -24
-325 -37 -537 -120 -76 -30 -145 -54 -153 -54 -25 0 8 69 54 111 54 49 123 69
456 135 446 88 422 82 439 108 14 22 13 25 -9 46 -24 22 -29 23 -287 25 -364
4 -424 19 -526 129 -78 84 -140 249 -125 329 31 168 277 440 498 550 117 58
385 129 385 101z m-1320 -174 c164 -31 295 -159 329 -320 9 -41 11 -727 9
-2790 -3 -2657 -4 -2737 -22 -2803 -17 -60 -18 -76 -7 -134 11 -60 10 -68 -10
-109 -27 -58 -108 -146 -162 -177 -115 -67 -262 -74 -382 -18 -74 34 -161 115
-194 179 -54 106 -51 -76 -51 2982 0 3052 -3 2876 50 2980 29 57 119 143 182
174 87 42 166 53 258 36z m2945 -5 c83 -17 192 -70 255 -122 59 -48 129 -134
144 -176 7 -17 21 -50 33 -72 12 -22 26 -67 32 -100 58 -311 -133 -609 -438
-686 -75 -19 -105 -20 -339 -17 -249 3 -259 4 -331 30 -226 82 -380 283 -397
522 -21 286 185 560 466 620 93 20 481 21 575 1z m1173 -193 c96 -34 223 -108
295 -173 99 -88 134 -194 124 -372 -13 -220 -97 -407 -238 -530 -109 -95 -208
-123 -414 -115 -74 3 -135 2 -135 -2 0 -5 -22 1 -50 13 -27 11 -50 24 -50 27
0 3 22 22 48 41 226 169 344 325 373 492 28 167 -22 320 -126 386 -61 39 -181
76 -350 110 -112 23 -142 32 -153 50 -13 19 -13 21 10 21 13 0 80 14 148 31
271 66 378 71 518 21z m-4991 -124 c72 -33 155 -123 202 -220 117 -238 120
-545 8 -781 -133 -279 -365 -348 -551 -163 -97 96 -155 223 -181 396 -19 123
-19 194 1 311 21 122 63 230 123 316 60 86 125 136 211 164 39 13 135 1 187
-23z m4508 -88 c114 -25 225 -62 270 -90 100 -62 123 -273 47 -429 -34 -70
-157 -200 -289 -305 l-103 -83 -116 34 c-63 18 -173 41 -242 51 -85 13 -120
21 -105 26 41 13 168 103 215 152 144 152 214 377 179 579 -17 96 -12 98 144
65z m-3107 -476 c84 -83 192 -121 360 -126 45 -1 82 -5 82 -8 0 -4 -44 -15
-97 -24 -216 -41 -353 -83 -425 -130 l-28 -18 0 223 0 222 31 -46 c17 -26 52
-67 77 -93z m1110 -380 l63 -7 -93 -32 c-286 -98 -512 -238 -719 -446 -197
-198 -335 -414 -435 -684 l-33 -90 0 537 -1 536 53 18 c28 9 106 38 173 65
168 67 272 89 499 105 55 3 102 8 105 11 6 6 314 -4 388 -13z m669 -30 c-3 -3
-12 -4 -19 -1 -8 3 -5 6 6 6 11 1 17 -2 13 -5z m797 -4 c732 -70 1346 -593
1531 -1305 50 -195 57 -295 52 -804 -4 -501 -7 -535 -63 -729 -85 -294 -230
-539 -448 -758 -209 -208 -431 -344 -708 -433 -96 -30 -325 -77 -335 -67 -3 2
2 46 11 98 38 229 66 559 66 803 l0 150 63 40 c126 81 176 142 204 248 31 122
-2 334 -71 452 -46 77 -150 115 -335 120 -146 4 -181 -13 -181 -85 0 -41 32
-84 75 -100 15 -6 71 -10 126 -10 138 0 187 -13 205 -56 36 -85 5 -282 -55
-358 -76 -95 -224 -181 -374 -216 -150 -36 -416 -26 -662 25 -142 29 -215 64
-279 136 -103 115 -154 238 -186 449 -48 313 -19 399 205 598 119 107 436 347
561 426 156 98 213 156 269 271 96 198 142 539 100 740 -28 132 -116 280 -208
346 l-40 29 184 0 c101 0 233 -5 293 -10z m-967 -24 c376 -77 487 -181 522
-491 21 -182 -25 -391 -115 -527 -64 -95 -140 -158 -464 -383 -357 -248 -449
-343 -513 -535 -102 -306 -56 -716 103 -927 43 -55 131 -124 219 -168 l54 -27
-6 -251 c-9 -333 -54 -747 -81 -747 -6 0 -47 9 -91 19 -640 154 -1163 693
-1295 1333 -33 163 -40 278 -40 680 0 497 13 618 92 858 190 580 699 1036
1295 1159 96 20 135 26 180 30 12 0 75 -10 140 -23z m398 -1 c91 -24 155 -78
215 -182 55 -93 72 -157 77 -295 6 -139 -4 -235 -43 -398 -51 -216 -122 -312
-320 -432 -60 -37 -200 -138 -309 -223 -418 -324 -495 -424 -495 -637 0 -103
32 -320 60 -413 58 -190 192 -352 330 -400 220 -78 635 -110 827 -65 134 31
281 108 363 189 100 100 135 197 128 356 -7 165 -46 197 -248 203 -132 4 -170
16 -170 52 0 10 8 21 18 24 26 8 201 -1 256 -14 103 -23 133 -53 173 -174 22
-68 27 -100 27 -196 1 -136 -14 -180 -86 -248 -60 -58 -101 -84 -217 -143
-118 -59 -245 -101 -371 -125 -295 -54 -791 71 -983 246 -106 97 -166 245
-189 468 -20 194 9 386 82 537 65 133 152 212 495 450 230 159 321 230 393
310 155 170 217 495 146 770 -43 165 -125 258 -290 329 l-59 25 65 1 c36 0 92
-7 125 -15z m-3410 -495 c70 -30 155 -122 204 -222 66 -134 84 -217 84 -393 1
-181 -15 -262 -77 -390 -133 -278 -365 -346 -550 -161 -95 95 -154 220 -181
391 -19 116 -19 199 1 316 43 250 164 424 334 480 38 13 131 2 185 -21z m0
-1471 c74 -34 156 -123 204 -221 66 -133 84 -217 85 -393 1 -181 -14 -256 -77
-388 -216 -454 -659 -299 -737 258 -15 107 -8 237 20 351 51 216 166 365 320
415 41 14 132 3 185 -22z m1405 -1158 c171 -356 456 -650 812 -836 l101 -53
-134 3 c-309 8 -472 -39 -677 -192 -42 -32 -107 -88 -144 -125 l-68 -67 0 772
1 772 34 -95 c19 -52 53 -133 75 -179z m2597 -163 c-7 -224 -33 -506 -65 -693
l-17 -100 -68 -3 c-62 -3 -68 -1 -63 15 34 113 80 574 89 877 l2 78 55 23 c30
13 59 24 64 24 5 1 7 -90 3 -221z m-990 -52 c-6 -213 -25 -427 -53 -611 -22
-144 -16 -135 -77 -128 -29 3 -54 7 -56 9 -2 2 4 52 13 111 30 206 46 399 53
634 l6 237 60 -21 60 -20 -6 -211z m316 154 c150 -18 303 -6 445 36 22 6 22 5
22 -87 0 -213 -53 -719 -86 -831 -5 -17 -30 -18 -348 -18 l-343 0 18 113 c29
184 49 409 56 623 l6 201 61 -13 c34 -6 109 -18 169 -24z m-3325 -282 c26 -12
73 -48 104 -79 198 -201 247 -630 105 -924 -135 -278 -365 -345 -551 -161
-297 294 -240 988 94 1161 77 40 165 41 248 3z m2436 -643 c161 -24 268 -71
374 -162 l34 -28 -41 -45 c-58 -63 -98 -135 -118 -216 -10 -38 -18 -70 -18
-71 0 -1 -57 21 -125 48 -289 116 -463 124 -708 33 -130 -49 -232 -95 -232
-105 0 -18 24 -59 34 -59 6 0 53 18 105 41 328 141 482 140 828 -7 l92 -39 11
-62 c12 -69 11 -69 -44 -123 -39 -39 -349 -192 -466 -231 -117 -39 -170 -37
-264 10 -36 18 -66 36 -66 41 0 5 53 21 118 35 274 63 301 74 366 145 52 58
47 120 -10 120 -12 0 -68 -22 -125 -49 -57 -27 -124 -53 -149 -59 -139 -33
-523 -39 -615 -10 -23 7 -60 33 -87 59 l-47 47 5 124 c3 67 7 133 10 145 6 30
159 190 247 257 190 145 339 187 637 181 80 -2 194 -11 254 -20z m2187 -5
c135 -13 206 -32 296 -77 159 -80 364 -271 421 -392 42 -90 20 -207 -53 -283
-63 -67 -152 -83 -400 -74 -239 8 -314 23 -443 86 -57 27 -112 50 -122 50 -37
0 -50 -12 -50 -46 0 -43 61 -113 124 -143 23 -12 120 -39 216 -61 95 -22 175
-42 178 -44 7 -8 -71 -54 -117 -71 -101 -35 -194 -10 -467 126 -163 81 -244
134 -244 160 0 5 -7 9 -16 9 -11 0 -14 5 -9 18 4 9 12 45 17 80 7 41 16 62 25
62 7 0 35 11 61 24 26 13 88 39 137 58 241 93 360 88 619 -23 76 -32 142 -59
146 -59 13 0 34 61 24 69 -20 18 -248 112 -321 133 -57 16 -106 22 -183 22
-123 0 -196 -18 -365 -89 -60 -26 -116 -47 -124 -48 -9 -1 -18 17 -27 55 -17
74 -51 141 -107 209 l-45 56 53 41 c80 63 183 108 288 127 186 33 335 41 488
25z m-1331 -47 c261 -2 492 -4 513 -6 l37 -2 -57 -44 -56 -43 -36 17 c-109 53
-138 58 -343 63 -218 5 -303 -7 -394 -53 l-48 -24 -35 32 c-20 18 -49 43 -66
55 -18 14 -22 21 -10 16 11 -4 234 -9 495 -11z m231 -103 c166 -31 310 -171
349 -339 16 -69 8 -180 -18 -249 -41 -108 -144 -211 -255 -255 -46 -19 -78
-22 -258 -25 -165 -3 -219 -1 -269 12 -212 54 -356 271 -323 485 16 101 52
172 125 245 112 112 182 134 429 135 92 1 191 -4 220 -9z"/>
<path d="M4938 6795 c-102 -33 -177 -150 -165 -256 30 -250 362 -299 466 -69
53 116 -5 266 -120 314 -56 23 -128 28 -181 11z m166 -94 c105 -65 94 -231
-17 -285 -166 -78 -315 135 -184 262 58 56 133 65 201 23z"/>
<path d="M4705 1307 c-150 -70 -150 -280 0 -348 52 -24 126 -24 173 0 189 97
121 371 -93 371 -16 0 -53 -11 -80 -23z m139 -72 c111 -53 70 -215 -54 -215
-101 0 -155 115 -88 188 41 43 88 53 142 27z"/>
</g>
</svg>
