<?xml version="1.0" standalone="no"?>
<!DOCTYPE svg PUBLIC "-//W3C//DTD SVG 20010904//EN"
 "http://www.w3.org/TR/2001/REC-SVG-20010904/DTD/svg10.dtd">
<svg version="1.0" xmlns="http://www.w3.org/2000/svg"
 width="786.000000pt" height="786.000000pt" viewBox="0 0 786.000000 786.000000"
 preserveAspectRatio="xMidYMid meet">

<g transform="translate(0.000000,786.000000) scale(0.100000,-0.100000)"
fill="#000000" stroke="none">
<path d="M3735 7455 c-27 -7 -63 -17 -78 -24 -46 -18 -158 -94 -212 -143 -48
-43 -53 -46 -130 -52 -258 -23 -477 -127 -650 -308 -131 -136 -203 -263 -253
-447 l-27 -96 0 -585 0 -585 27 -98 c15 -54 39 -124 53 -154 14 -31 24 -57 23
-58 -2 -1 -35 -7 -75 -13 -85 -14 -260 -15 -432 -2 -160 11 -220 38 -268 119
-47 79 -64 169 -73 391 -16 412 35 929 98 993 12 11 33 20 49 19 49 -1 113
-32 128 -63 22 -42 45 -161 45 -233 0 -111 44 -122 197 -46 169 84 210 157
200 364 -11 248 -78 376 -239 457 -129 65 -359 108 -507 95 -180 -16 -256 -53
-390 -186 -105 -103 -152 -178 -190 -302 -88 -289 -188 -1217 -223 -2076 -26
-658 44 -1895 163 -2872 70 -575 153 -797 327 -871 64 -28 170 -34 334 -19
232 20 302 42 463 148 88 59 223 193 255 254 l24 46 99 -146 c137 -205 214
-278 338 -321 104 -37 213 -43 909 -47 496 -3 705 -8 790 -18 71 -8 188 -13
305 -12 162 2 217 8 375 35 271 47 448 87 597 136 160 53 267 107 357 181 l67
55 29 -21 c133 -95 315 -45 395 110 9 17 21 28 27 24 33 -20 38 104 8 191 -38
111 -142 279 -209 340 -35 31 -20 83 56 198 152 227 223 489 209 777 -6 146
-27 256 -74 390 -28 79 -30 99 -36 279 -17 493 -69 781 -198 1085 -28 66 -47
121 -41 123 40 14 182 120 249 187 143 144 232 312 274 516 21 103 21 118 17
875 -4 819 -5 820 -58 1103 -36 191 -69 215 -230 167 -52 -15 -117 -33 -145
-39 -28 -6 -57 -16 -65 -22 -8 -5 -47 -23 -88 -39 -41 -15 -91 -43 -111 -61
-58 -53 -99 -139 -113 -241 l-13 -87 -13 60 c-7 32 -23 84 -35 114 -11 30 -21
60 -21 65 -3 47 -99 156 -170 193 -43 23 -62 27 -140 27 -83 0 -96 -3 -165
-36 -170 -81 -350 -267 -516 -532 l-63 -101 30 -18 c16 -10 33 -18 37 -18 4 0
29 38 57 83 113 187 287 386 410 469 173 116 320 102 415 -40 24 -35 40 -51
52 -48 14 3 15 0 6 -19 -8 -18 -6 -42 11 -102 11 -43 30 -136 40 -206 13 -80
26 -133 35 -143 24 -23 19 -49 -13 -76 -32 -28 -78 -45 -307 -118 -223 -71
-332 -136 -567 -342 l-53 -47 -65 19 c-224 67 -579 74 -809 16 -237 -61 -428
-154 -569 -281 -187 -167 -272 -336 -275 -545 -1 -127 12 -187 69 -305 81
-169 222 -305 430 -417 l70 -37 -340 -1 c-293 0 -352 3 -430 19 -291 60 -526
244 -655 512 -84 176 -84 174 -88 781 -4 584 0 638 53 790 91 260 302 472 561
562 72 26 220 57 228 49 3 -3 -17 -33 -43 -67 -63 -79 -191 -276 -191 -293 0
-7 13 -19 29 -28 l30 -15 86 130 c215 326 419 500 589 502 86 1 171 -51 217
-132 15 -27 27 -37 38 -33 9 3 -3 -14 -25 -38 -85 -90 -149 -179 -268 -367
-15 -24 -26 -45 -24 -46 43 -28 60 -36 67 -32 5 3 27 37 50 75 52 88 171 247
245 328 76 83 201 176 272 203 83 31 161 30 217 -3 46 -27 83 -65 113 -116 11
-19 23 -27 32 -23 9 3 -15 -30 -52 -74 -70 -81 -246 -338 -246 -358 0 -6 14
-19 31 -28 l30 -18 37 61 c195 318 407 525 584 569 99 25 199 -18 260 -111 17
-27 33 -49 35 -49 11 0 63 32 63 39 0 4 -14 28 -31 54 -60 91 -144 144 -244
154 -99 10 -240 -49 -361 -153 l-53 -44 -30 43 c-34 50 -97 109 -139 131 -120
62 -278 27 -441 -99 l-71 -55 -24 38 c-84 131 -216 190 -351 157z m3024 -227
c19 -55 61 -318 69 -437 6 -91 5 -114 -6 -118 -24 -10 -144 26 -179 53 -58 44
-92 135 -118 314 -23 167 -30 152 78 184 50 15 97 29 102 31 29 10 44 3 54
-27z m-319 -158 c15 -128 44 -250 74 -309 48 -93 135 -147 268 -166 45 -7 47
-6 51 21 2 16 4 -295 3 -691 -2 -791 1 -746 -64 -913 -88 -227 -305 -435 -542
-518 -137 -48 -196 -53 -590 -53 l-365 -1 84 46 c473 253 624 715 360 1101
-82 120 -251 255 -418 335 l-86 41 55 49 c98 88 223 178 305 217 44 22 166 67
270 100 198 63 267 97 297 148 12 21 19 74 27 215 6 103 16 210 21 238 10 55
51 139 80 165 16 15 152 76 157 71 1 -1 7 -44 13 -96z m-4519 -194 c102 -26
182 -61 240 -107 70 -55 119 -209 119 -371 0 -113 -12 -148 -66 -198 -40 -37
-137 -90 -164 -90 -6 0 -10 20 -10 45 0 62 -38 209 -64 248 -48 73 -196 112
-267 70 -67 -40 -105 -174 -131 -459 l-12 -134 -84 0 -85 0 7 88 c9 125 33
269 68 412 34 141 51 167 133 206 84 40 124 32 287 -58 118 -65 139 -69 178
-30 34 34 39 75 15 122 -19 37 -49 57 -182 125 -193 96 -315 114 -409 60 -52
-31 -149 -136 -192 -208 -73 -121 -142 -373 -176 -637 -86 -664 -109 -2190
-51 -3320 49 -963 108 -1319 266 -1620 81 -154 123 -176 288 -150 193 31 266
78 393 255 62 87 98 157 98 190 0 32 -50 65 -99 65 -30 0 -33 2 -27 24 7 30
24 153 31 237 l6 67 89 -38 c110 -47 143 -70 164 -115 16 -34 16 -35 -11 -76
-40 -61 -38 -124 7 -214 19 -39 33 -79 31 -90 -15 -99 -192 -275 -364 -361
-93 -47 -151 -61 -332 -75 -247 -20 -323 1 -395 112 -64 100 -109 265 -149
550 -98 697 -182 1873 -190 2629 -6 682 110 1990 213 2392 36 141 81 219 184
322 95 95 169 139 263 155 87 16 272 5 380 -23z m-226 -111 c72 -19 269 -113
313 -150 31 -26 43 -67 23 -80 -6 -3 -69 25 -142 62 -124 64 -136 68 -198 68
-49 0 -78 -6 -114 -24 -221 -109 -290 -369 -347 -1306 -21 -334 -28 -687 -27
-1375 0 -1492 27 -1977 138 -2560 18 -91 35 -167 39 -170 4 -3 21 -34 37 -70
65 -144 149 -163 322 -73 108 57 125 72 166 154 19 37 41 69 50 73 26 10 93 7
100 -4 14 -23 -123 -221 -198 -286 -65 -55 -110 -74 -220 -90 -151 -23 -172
-15 -229 86 -97 172 -163 403 -202 706 -32 250 -68 755 -81 1139 -4 99 -8 198
-11 220 -9 79 -12 1385 -4 1650 40 1296 116 1733 343 1957 89 89 131 101 242
73z m3195 -799 c275 -44 520 -165 687 -339 125 -131 193 -285 193 -440 -1
-309 -268 -598 -670 -725 -172 -55 -255 -66 -475 -66 -224 0 -306 12 -481 69
-186 61 -335 149 -455 269 -283 282 -274 654 22 931 177 165 467 289 729 311
41 4 77 8 79 11 10 8 282 -7 371 -21z m-3330 -186 l0 -40 -88 0 -88 0 4 40 4
40 84 0 84 0 0 -40z m-3 -282 l4 -178 -101 0 -102 0 6 98 c4 53 9 134 12 180
l6 83 85 -3 85 -3 5 -177z m14 -286 l6 -43 -77 2 c-130 3 -140 6 -140 43 0 18
3 36 7 40 4 4 50 5 103 4 l95 -3 6 -43z m-36 -102 l52 0 13 -42 c30 -101 83
-173 155 -210 77 -40 133 -48 365 -54 185 -5 242 -3 319 11 86 15 95 15 103 0
5 -8 36 -48 68 -88 l58 -72 -36 -7 c-21 -4 -98 -10 -172 -13 -74 -4 -222 -18
-328 -31 -243 -30 -357 -31 -448 -3 -199 61 -279 161 -309 386 -8 59 -15 114
-15 122 0 11 12 13 61 7 34 -3 85 -6 114 -6z m-219 -250 c65 -228 248 -354
519 -359 58 -1 184 8 300 23 110 13 252 27 315 30 63 2 156 10 206 17 l91 12
84 -55 c46 -30 115 -68 152 -84 l68 -29 -28 -19 c-57 -40 -153 -148 -206 -233
-30 -48 -102 -183 -160 -299 -98 -195 -133 -250 -292 -468 -13 -18 -16 -18
-127 2 -244 46 -502 53 -633 17 -210 -57 -296 -177 -322 -450 -14 -146 -20
254 -17 1185 3 848 9 1038 26 850 5 -47 15 -110 24 -140z m5025 -539 c121
-291 167 -525 194 -996 l6 -110 -37 50 c-130 174 -303 299 -483 347 -101 27
-268 29 -366 3 -351 -90 -616 -409 -701 -842 -13 -61 -18 -136 -18 -248 0
-185 20 -303 77 -453 l34 -91 -99 -78 c-54 -43 -107 -77 -116 -76 -9 2 -35 6
-58 9 -26 4 -62 0 -99 -11 -79 -22 -163 -105 -190 -185 -69 -206 62 -412 252
-398 110 8 191 68 241 177 21 45 26 72 26 142 l1 85 78 68 77 67 74 -78 74
-78 -72 -75 c-111 -115 -182 -229 -225 -359 -30 -91 -27 -199 5 -187 9 3 20
-7 30 -27 52 -101 129 -156 228 -164 49 -4 72 -1 107 14 62 28 116 77 151 140
l30 53 28 -37 c56 -77 128 -120 224 -132 l51 -7 -95 -31 c-179 -58 -418 -110
-709 -153 -168 -24 -352 -25 -556 -3 -94 10 -310 15 -790 18 -408 2 -694 8
-748 15 -210 26 -274 79 -482 395 -104 158 -165 266 -165 292 0 37 33 83 73
102 57 27 192 44 296 36 90 -6 343 -31 421 -41 25 -3 59 -7 75 -9 17 -2 64 -7
105 -10 41 -4 81 -8 89 -11 7 -2 66 -5 130 -5 127 -1 180 12 200 49 22 41 13
71 -36 124 -58 61 -199 132 -401 202 -236 81 -274 88 -490 92 -188 3 -248 11
-305 41 -31 16 -67 68 -67 97 0 10 25 57 55 105 59 94 91 191 80 243 l-7 31
73 -7 c41 -3 119 -11 173 -17 129 -15 299 -7 351 15 72 31 125 96 125 155 0
60 -72 114 -228 171 -69 25 -81 21 -85 -25 -2 -26 3 -30 89 -64 153 -62 168
-79 116 -131 -44 -43 -97 -53 -252 -47 -74 3 -144 8 -155 10 -11 3 -60 8 -110
11 -133 10 -175 16 -226 31 -104 30 -210 102 -262 179 -25 35 -28 47 -23 87 9
70 50 180 94 256 40 67 78 122 285 403 87 118 129 188 223 375 177 348 258
460 384 529 50 27 54 28 126 17 46 -7 246 -11 522 -11 421 0 453 -1 552 -22
88 -18 139 -22 315 -22 179 0 226 3 316 22 102 21 130 22 585 22 494 0 544 3
679 43 94 28 89 31 136 -82z m-337 -787 c294 -76 539 -374 622 -756 8 -40 18
-127 21 -193 16 -344 -105 -670 -325 -876 -142 -133 -285 -197 -462 -206 -159
-9 -313 41 -451 146 -68 51 -179 166 -179 185 0 6 17 24 37 40 l37 30 40 -46
c282 -314 720 -301 986 28 76 95 149 243 181 369 33 125 33 380 1 497 -51 186
-132 328 -254 444 -253 240 -608 241 -864 2 -78 -74 -172 -210 -207 -304 -55
-143 -70 -228 -71 -384 -1 -152 14 -245 57 -359 l20 -54 -34 -28 c-19 -16 -38
-27 -44 -25 -14 4 -60 144 -81 246 -25 116 -25 352 -1 472 39 193 114 360 225
499 193 241 473 344 746 273z m-3845 -204 c69 -11 127 -23 130 -25 2 -3 -10
-24 -27 -48 -18 -23 -51 -72 -75 -109 -47 -75 -48 -76 -142 -53 -231 56 -354
-37 -425 -320 -33 -128 -25 -122 -174 -124 l-99 -1 6 158 c15 381 77 489 307
538 90 19 340 11 499 -16z m3768 -44 c236 -49 426 -255 504 -546 30 -111 33
-347 6 -454 -115 -458 -494 -691 -845 -519 -77 38 -225 165 -220 189 2 7 134
126 293 265 160 139 290 255 290 259 0 8 -98 129 -105 129 -3 1 -136 -102
-295 -228 -160 -126 -294 -225 -299 -221 -4 5 -20 50 -34 102 -21 79 -25 115
-25 238 -1 159 10 222 63 357 82 213 262 384 446 426 84 19 141 20 221 3z
m-3908 -267 c36 -6 69 -14 73 -18 3 -3 -4 -38 -18 -77 -13 -39 -26 -96 -30
-127 -6 -49 -3 -64 20 -111 48 -97 187 -200 324 -238 36 -9 67 -20 70 -22 10
-11 5 -105 -8 -137 -7 -19 -36 -69 -62 -111 -27 -42 -52 -93 -55 -112 -8 -53
20 -119 70 -161 69 -59 140 -75 367 -79 218 -4 265 -13 475 -87 225 -78 415
-183 386 -212 -15 -15 -196 -9 -390 12 -97 11 -243 28 -326 37 -197 21 -411
22 -487 2 l-58 -16 -16 34 c-23 47 -77 92 -154 126 -36 16 -88 41 -116 55 -99
50 -126 14 -145 -187 -6 -69 -16 -141 -23 -160 -15 -47 -66 -80 -125 -80 -55
0 -85 18 -110 68 -131 258 -69 1297 91 1530 52 76 113 94 247 71z m-445 -430
c2 -2 1 -21 -3 -43 l-6 -39 -100 2 c-55 1 -100 3 -101 4 -1 1 -4 18 -6 37 l-3
35 95 5 c108 6 118 6 124 -1z m4287 -82 c16 -22 9 -28 -403 -387 -230 -201
-433 -377 -452 -392 l-32 -27 -37 44 -37 44 468 370 c257 203 469 370 472 370
3 0 12 -10 21 -22z m-4315 -65 c7 -5 8 -38 2 -107 -4 -55 -11 -133 -14 -172
l-6 -73 -72 0 -73 0 -7 113 c-3 61 -9 142 -12 180 l-7 67 89 0 c49 0 94 -4
100 -8z m-16 -452 l0 -40 -70 0 -70 0 0 40 0 40 70 0 70 0 0 -40z m8 -247 c15
-188 35 -281 75 -363 39 -80 73 -102 169 -109 l68 -6 -18 -35 c-15 -28 -39
-45 -121 -88 -118 -60 -158 -66 -197 -27 -45 46 -61 99 -99 345 -8 53 -17 171
-21 263 l-7 167 69 0 70 0 12 -147z m3282 -5 c100 -51 134 -183 77 -300 -56
-115 -190 -154 -277 -81 -124 104 -84 335 66 388 55 20 83 18 134 -7z m1582
-145 c92 -98 172 -223 208 -328 23 -68 27 -147 7 -139 -8 3 -19 -7 -26 -22
-23 -50 -71 -102 -114 -123 -86 -42 -171 -20 -244 63 -58 66 -73 123 -73 280
l0 131 55 -92 c30 -51 55 -96 56 -100 0 -5 12 -18 27 -29 26 -21 28 -21 49 -4
l22 17 -51 69 c-51 71 -108 173 -108 196 0 8 15 21 33 31 17 10 50 33 72 52
22 19 42 34 45 35 3 0 22 -17 42 -37z m-974 -56 l70 -43 -23 -59 c-12 -33 -38
-87 -58 -119 -38 -62 -38 -69 -7 -86 17 -9 25 -1 64 66 l45 77 3 -124 c4 -144
-8 -203 -55 -272 -64 -95 -169 -132 -253 -89 -47 24 -104 84 -123 129 -9 22
-18 30 -28 26 -14 -5 -15 2 -11 54 11 117 111 297 234 421 34 34 64 62 67 62
3 0 36 -19 75 -43z m657 -438 c-23 -67 -66 -123 -122 -156 -40 -23 -59 -28
-118 -28 -81 0 -124 17 -181 73 -68 66 -78 104 -82 300 -2 94 0 172 5 172 4
-1 37 -9 73 -19 l65 -18 6 -44 c10 -64 38 -126 67 -149 69 -55 135 10 168 164
9 38 11 40 69 55 l60 16 3 -159 c2 -124 -1 -170 -13 -207z m-181 289 c-9 -44
-41 -118 -52 -118 -24 0 -62 77 -62 126 0 23 4 24 60 24 l60 0 -6 -32z m241
-357 c-3 -12 -16 -26 -28 -33 -21 -11 -21 -10 -6 13 9 13 19 30 23 37 11 19
19 7 11 -17z"/>
<path d="M4535 5340 c-59 -12 -91 -26 -141 -60 -100 -69 -130 -197 -69 -296
126 -204 498 -184 591 33 36 85 -6 206 -91 265 -78 53 -199 78 -290 58z m152
-83 c184 -48 219 -223 60 -304 -131 -66 -305 -25 -358 85 -44 89 18 185 140
218 61 17 96 17 158 1z"/>
<path d="M3087 3903 c-18 -17 0 -36 95 -98 109 -72 167 -102 238 -120 42 -10
46 -14 56 -56 16 -64 29 -81 98 -127 85 -58 184 -102 244 -109 56 -6 85 3 164
49 63 36 195 64 240 49 44 -14 108 -21 108 -12 0 14 -65 68 -144 121 -44 29
-116 87 -160 128 -100 93 -167 127 -234 117 -26 -4 -99 -29 -164 -56 -64 -27
-124 -49 -133 -49 -34 0 -231 79 -310 124 -85 49 -88 50 -98 39z m777 -127
c19 -8 67 -45 107 -82 41 -37 96 -83 122 -102 l49 -35 -71 -18 c-39 -10 -100
-34 -135 -54 -34 -19 -77 -35 -94 -35 -40 0 -118 31 -204 81 -74 44 -93 66
-103 119 l-6 35 83 34 c184 76 199 79 252 57z"/>
</g>
</svg>
