<?xml version="1.0" standalone="no"?>
<!DOCTYPE svg PUBLIC "-//W3C//DTD SVG 20010904//EN"
 "http://www.w3.org/TR/2001/REC-SVG-20010904/DTD/svg10.dtd">
<svg version="1.0" xmlns="http://www.w3.org/2000/svg"
 width="786.000000pt" height="786.000000pt" viewBox="0 0 786.000000 786.000000"
 preserveAspectRatio="xMidYMid meet">

<g transform="translate(0.000000,786.000000) scale(0.100000,-0.100000)"
fill="#000000" stroke="none">
<path d="M3190 7224 c-112 -20 -218 -62 -458 -183 -264 -132 -492 -261 -787
-446 -209 -130 -262 -189 -290 -321 -19 -89 -19 -162 1 -292 31 -210 100 -351
234 -474 37 -35 94 -78 126 -95 l57 -31 -33 -7 c-18 -4 -64 -20 -102 -36 -198
-81 -370 -257 -454 -462 -64 -159 -65 -172 -62 -1089 3 -815 4 -824 26 -903
68 -245 230 -441 456 -550 114 -55 185 -74 309 -82 l99 -6 -70 -18 c-327 -83
-580 -316 -637 -585 -28 -134 -10 -262 56 -398 114 -233 400 -413 726 -457
105 -14 299 -7 398 15 102 22 230 70 317 120 l75 42 71 -41 c325 -191 816
-229 1201 -93 91 32 188 78 234 110 27 19 27 19 55 0 73 -52 229 -114 357
-143 92 -21 381 -18 473 4 556 133 837 569 638 990 -27 57 -106 166 -148 205
l-25 23 67 67 c75 75 113 141 135 234 29 124 16 254 -37 366 -37 79 -142 186
-221 226 l-57 28 45 30 c260 173 304 561 88 785 -66 68 -115 101 -191 130
l-53 19 41 29 c208 144 280 426 169 661 -46 99 -160 205 -259 244 -19 7 -36
15 -38 16 -2 1 30 36 72 76 111 110 156 218 156 374 0 84 -16 156 -52 231
l-29 63 50 59 c27 33 57 74 67 90 10 17 22 31 26 31 14 0 51 96 69 180 92 420
-186 825 -647 946 -125 33 -323 38 -449 11 -283 -60 -516 -231 -630 -462 -62
-127 -79 -197 -79 -337 -1 -65 -2 -118 -2 -118 -1 0 -19 7 -40 17 -32 13 -81
17 -289 19 -137 1 -268 -1 -291 -5 l-41 -8 34 56 c50 83 58 120 57 276 -2 221
-61 561 -118 673 -34 66 -109 140 -174 169 -51 24 -163 38 -222 27z m197 -102
c38 -20 121 -98 112 -106 -2 -2 -49 -29 -105 -59 -230 -125 -329 -197 -595
-429 -147 -128 -224 -210 -299 -319 -107 -156 -133 -349 -84 -638 13 -75 14
-95 4 -101 -33 -21 -244 -28 -307 -11 -122 33 -282 199 -333 346 -71 203 -77
435 -14 542 33 57 78 91 294 225 470 291 959 539 1130 572 51 9 158 -3 197
-22z m158 -205 c20 -71 62 -319 76 -452 20 -190 -3 -307 -76 -393 -32 -38
-292 -212 -457 -306 -231 -131 -596 -301 -612 -285 -17 16 -39 212 -39 339 -1
131 2 153 26 226 35 106 103 203 236 334 122 121 345 309 464 391 99 69 349
209 359 203 4 -3 14 -28 23 -57z m1864 -87 c410 -98 681 -485 596 -849 -26
-110 -144 -294 -209 -325 -34 -16 -107 -22 -119 -9 -4 3 9 35 28 71 26 47 33
67 25 77 -8 10 -5 14 14 19 21 5 27 16 42 82 64 289 -107 575 -400 671 -68 22
-99 26 -196 26 -99 1 -126 -3 -193 -26 -299 -103 -472 -396 -399 -677 12 -47
23 -68 39 -76 16 -7 19 -14 12 -21 -7 -7 -1 -25 19 -59 16 -27 33 -60 37 -73
7 -23 7 -24 -54 -19 -53 4 -66 9 -97 39 -20 19 -68 81 -106 139 -62 93 -72
114 -85 185 -73 400 245 782 702 844 95 13 244 5 344 -19z m-49 -339 c102 -32
205 -105 263 -186 19 -26 16 -25 -25 10 -55 49 -155 99 -241 122 -76 21 -240
23 -317 4 -77 -18 -207 -82 -260 -128 -45 -38 -45 -38 -22 -6 62 88 194 171
315 199 80 18 202 11 287 -15z m-53 -127 c189 -39 332 -157 377 -313 26 -90
17 -198 -22 -248 l-17 -21 -70 18 c-62 17 -113 19 -467 19 l-397 1 -13 23 c-7
13 -13 58 -13 107 0 77 3 92 34 155 63 128 175 213 335 255 88 23 155 25 253
4z m-1088 -428 c128 -68 235 -281 335 -669 40 -152 51 -230 66 -467 13 -195
32 -317 66 -420 52 -156 129 -234 414 -421 214 -141 262 -192 315 -333 48
-129 59 -197 59 -386 -1 -162 -3 -182 -28 -265 -36 -118 -88 -212 -160 -291
-98 -108 -204 -174 -370 -233 -435 -154 -1062 -193 -1598 -101 -515 89 -787
252 -902 541 -78 198 -85 442 -20 667 55 189 105 247 360 417 378 252 421 332
459 857 18 246 24 287 71 463 84 313 153 472 249 573 82 87 95 90 405 88 216
-2 249 -4 279 -20z m-785 -58 c-5 -7 -21 -32 -36 -54 -74 -110 -209 -518 -239
-724 l-11 -79 -54 68 c-123 155 -299 261 -493 300 l-84 17 89 33 c177 67 546
262 733 387 53 35 97 64 99 64 2 0 0 -6 -4 -12z m2576 2 c0 -5 -5 -10 -11 -10
-5 0 -7 5 -4 10 3 6 8 10 11 10 2 0 4 -4 4 -10z m-434 -158 c30 -13 31 -14 21
-51 -9 -32 -8 -44 7 -65 22 -35 54 -46 130 -46 62 0 62 0 84 -38 23 -41 52
-141 52 -179 l0 -23 -623 0 -624 0 -37 126 c-20 70 -35 128 -33 131 2 2 16 -1
31 -7 36 -13 115 -13 155 1 52 18 65 66 36 135 l-15 35 393 -3 c284 -3 401 -7
423 -16z m-2956 -416 c36 -9 106 -37 156 -61 143 -71 287 -216 344 -348 16
-37 17 -55 8 -162 -24 -312 -81 -449 -237 -569 l-58 -45 -39 41 c-111 115
-347 225 -446 208 -70 -12 -103 -62 -136 -205 -12 -49 -26 -148 -32 -218 -18
-218 19 -521 75 -612 7 -11 15 -66 18 -122 6 -119 6 -119 -82 -31 -100 99
-157 206 -188 358 -23 109 -23 414 0 540 50 272 134 482 213 530 79 50 209 47
359 -7 99 -36 144 -69 276 -204 l116 -118 28 29 28 29 -134 134 c-105 105
-149 141 -204 169 -106 55 -213 82 -325 82 -84 1 -102 -2 -151 -26 -65 -32
-85 -53 -133 -132 -152 -253 -219 -776 -140 -1095 45 -181 164 -347 320 -444
35 -22 42 -33 58 -88 55 -201 219 -395 415 -494 29 -14 50 -30 45 -34 -20 -17
-122 -52 -197 -67 -63 -13 -119 -15 -266 -12 -167 5 -194 8 -266 32 -209 69
-367 203 -460 391 -84 171 -79 107 -82 1034 -3 714 -2 834 12 907 59 316 294
552 615 619 90 19 401 13 490 -9z m3250 -49 c0 -31 -28 -123 -51 -169 -32 -63
-122 -146 -193 -178 l-66 -30 -433 0 -433 0 -11 128 c-7 70 -20 160 -31 200
l-18 72 618 0 618 0 0 -23z m-150 -485 c146 -62 246 -190 266 -341 l7 -51
-614 2 -613 3 -13 45 c-18 59 -40 196 -48 293 l-7 78 484 -3 c480 -3 483 -3
538 -26z m270 -455 c0 -32 -28 -123 -51 -169 -32 -62 -125 -147 -198 -182 -65
-30 -68 -30 -258 -34 l-191 -4 -134 88 c-190 125 -282 197 -328 258 -22 29
-40 56 -40 59 0 4 270 7 600 7 l600 0 0 -23z m-3517 -50 c35 -13 92 -39 128
-59 64 -36 159 -112 159 -128 0 -4 -24 -23 -52 -41 -105 -66 -235 -167 -270
-210 -51 -63 -88 -140 -118 -248 -15 -52 -29 -90 -32 -85 -6 10 -24 148 -33
259 -11 135 23 398 65 491 17 40 22 44 54 44 19 0 64 -10 99 -23z m3367 -456
c142 -58 243 -185 265 -334 l7 -47 -281 0 -281 0 -6 28 c-34 153 -75 267 -124
337 l-32 47 198 -4 c178 -4 205 -7 254 -27z m267 -469 c-14 -116 -88 -238
-184 -301 -76 -51 -158 -71 -285 -71 -110 0 -110 0 -104 23 17 59 28 189 24
288 l-3 109 279 0 279 0 -6 -48z m-278 -462 c118 -22 244 -117 296 -224 25
-51 54 -171 43 -181 -3 -3 -231 -4 -508 -3 l-503 3 51 32 c103 67 199 179 258
302 l39 80 136 1 c75 0 159 -4 188 -10z m338 -494 c-15 -105 -74 -208 -159
-276 l-41 -34 -31 19 c-70 40 -186 95 -246 115 -148 50 -178 52 -670 57 l-465
5 140 33 c139 33 341 98 360 116 5 5 241 9 563 9 l555 0 -6 -44z m-2974 -95
l92 -19 -325 -1 -325 -1 65 23 c36 13 92 37 124 53 l59 30 109 -33 c60 -18
150 -41 201 -52z m2358 -124 c202 -50 336 -122 459 -246 187 -189 230 -405
124 -628 -104 -220 -360 -384 -660 -424 -256 -34 -525 25 -723 160 l-45 30
-29 -25 c-70 -59 -245 -133 -407 -171 -145 -34 -414 -40 -570 -13 -182 32
-370 105 -473 184 l-47 36 -59 -40 c-291 -199 -732 -225 -1056 -62 -284 142
-440 415 -381 666 65 276 352 496 711 545 33 5 742 8 1575 7 1369 -2 1521 -4
1581 -19z"/>
<path d="M3193 6590 c-60 -36 -74 -104 -30 -147 61 -62 187 -4 189 88 2 68
-89 102 -159 59z m115 -54 c5 -41 -31 -76 -79 -76 -43 0 -62 22 -49 56 13 33
51 55 90 52 30 -3 35 -7 38 -32z"/>
<path d="M2921 6303 c-39 -20 -71 -67 -71 -105 0 -35 51 -78 93 -78 61 0 127
62 127 119 0 59 -86 96 -149 64z m91 -40 c26 -23 22 -48 -13 -77 -33 -28 -59
-32 -90 -16 -47 26 5 106 70 109 8 1 23 -6 33 -16z"/>
<path d="M2702 6002 c-13 -2 -38 -19 -57 -38 -91 -90 12 -201 123 -134 38 23
66 81 58 116 -10 40 -67 66 -124 56z m74 -53 c21 -18 17 -38 -15 -70 -46 -46
-111 -36 -111 16 0 22 33 58 60 67 20 7 49 1 66 -13z"/>
<path d="M3750 5870 c-126 -16 -205 -95 -260 -260 -37 -109 -128 -541 -156
-733 -63 -441 -101 -578 -189 -676 -21 -23 -123 -98 -226 -167 -104 -68 -212
-148 -242 -176 -66 -65 -105 -143 -153 -308 -35 -118 -37 -133 -38 -275 -1
-165 11 -219 76 -349 67 -134 191 -272 315 -352 123 -79 304 -135 385 -120 48
9 83 39 161 139 148 190 255 241 502 241 240 0 350 -55 495 -247 36 -47 83
-98 105 -112 37 -24 46 -26 110 -21 237 19 505 214 620 451 68 139 89 234 89
390 0 159 -19 236 -100 404 -71 146 -114 189 -305 301 -306 180 -347 261 -429
833 -33 236 -125 677 -165 790 -43 124 -112 208 -195 236 -41 14 -319 22 -400
11z m395 -54 c74 -31 126 -99 165 -210 36 -105 129 -560 165 -805 78 -534 129
-641 372 -790 274 -168 293 -186 363 -335 80 -169 94 -229 94 -386 0 -118 -4
-146 -28 -225 -69 -228 -213 -398 -421 -501 -141 -69 -246 -90 -305 -59 -15 8
-64 61 -108 118 -150 194 -268 250 -527 251 -249 0 -372 -59 -516 -248 -107
-139 -138 -154 -260 -122 -151 40 -276 112 -384 222 -94 95 -96 100 -27 95 75
-4 317 16 412 35 144 29 236 87 314 197 106 150 284 571 328 777 35 164 15
354 -62 595 -59 183 -106 251 -189 276 -58 17 -108 4 -153 -41 -21 -21 -38
-34 -38 -30 0 55 72 474 114 666 72 324 93 386 158 459 62 71 116 84 343 80
115 -1 159 -6 190 -19z"/>
<path d="M3940 5698 c-14 -7 -33 -29 -43 -49 -23 -48 -10 -85 38 -105 30 -12
39 -12 69 0 47 20 70 57 62 100 -4 19 -13 39 -20 45 -22 19 -79 23 -106 9z
m71 -38 c26 -15 24 -45 -6 -68 -29 -23 -61 -19 -76 9 -8 15 -5 24 15 44 28 28
38 30 67 15z"/>
<path d="M3589 5401 c-62 -63 -21 -149 66 -138 79 11 115 102 59 146 -39 31
-89 28 -125 -8z m109 -39 c4 -28 -23 -62 -49 -62 -49 0 -65 36 -32 72 25 28
77 21 81 -10z"/>
<path d="M4223 5181 c-55 -35 -59 -113 -8 -143 82 -47 186 60 128 131 -26 31
-81 37 -120 12z m91 -43 c13 -22 0 -48 -34 -65 -51 -26 -85 38 -37 72 27 19
56 16 71 -7z"/>
<path d="M4319 4481 c-61 -29 -71 -108 -17 -145 58 -41 148 10 148 83 0 29
-37 68 -70 73 -16 3 -44 -2 -61 -11z m85 -47 c9 -25 7 -33 -14 -54 -50 -50
-110 2 -67 58 14 18 74 15 81 -4z"/>
<path d="M4633 3982 c-38 -6 -73 -50 -73 -93 0 -66 73 -101 130 -62 37 26 49
45 50 79 0 48 -51 85 -107 76z m67 -72 c0 -25 -34 -60 -58 -60 -37 0 -58 55
-29 78 33 27 87 16 87 -18z"/>
<path d="M2690 2113 c-25 -2 -85 -10 -135 -19 -500 -86 -790 -400 -646 -700
16 -33 35 -67 42 -76 13 -17 16 -16 46 3 l32 20 -37 67 c-32 58 -36 75 -37
137 0 56 6 82 28 129 53 115 204 228 389 292 152 53 243 65 531 71 147 3 267
3 267 -1 0 -4 -9 -19 -20 -34 -73 -99 15 -229 179 -263 70 -14 192 -7 249 16
42 17 42 17 77 -9 20 -15 61 -39 93 -54 51 -24 69 -27 167 -27 127 0 188 17
258 70 l45 35 48 -21 c59 -27 188 -36 265 -20 64 13 153 63 181 102 34 45 35
101 3 155 l-27 47 263 -6 c278 -6 361 -17 517 -68 182 -59 350 -182 401 -294
46 -98 37 -208 -24 -297 l-25 -36 33 -21 32 -21 23 28 c43 52 66 130 67 223 0
79 -3 91 -38 161 -89 180 -314 318 -621 380 -91 18 -157 21 -666 28 -544 8
-1867 10 -1960 3z m874 -102 c25 -11 46 -22 46 -24 0 -3 -7 -22 -16 -43 -9
-20 -14 -51 -12 -66 7 -47 -34 -63 -157 -63 -88 1 -106 4 -151 27 -64 33 -85
74 -60 113 52 79 233 108 350 56z m507 -2 c61 -27 109 -79 109 -119 0 -39 -52
-97 -110 -122 -188 -81 -463 31 -395 161 50 97 258 139 396 80z m454 6 c65
-17 120 -53 130 -86 11 -34 -14 -67 -73 -96 -72 -35 -192 -42 -267 -16 l-50
18 -6 55 c-4 30 -10 62 -13 71 -5 12 2 21 27 33 79 37 162 44 252 21z"/>
<path d="M4060 6921 c-68 -24 -135 -91 -146 -146 -34 -183 244 -298 411 -171
113 87 92 242 -41 303 -75 34 -154 39 -224 14z m155 -72 c46 -13 105 -68 105
-98 0 -67 -73 -120 -163 -121 -61 0 -106 19 -140 59 -34 41 -34 73 1 111 46
52 120 70 197 49z"/>
<path d="M3922 6459 c-169 -67 -189 -240 -38 -334 45 -27 57 -30 135 -30 73 0
93 4 130 25 97 55 136 152 93 236 -24 47 -43 65 -100 93 -64 32 -154 36 -220
10z m160 -71 c43 -13 98 -68 98 -99 0 -64 -73 -118 -159 -119 -83 0 -161 57
-161 118 0 47 88 111 154 112 16 0 46 -5 68 -12z"/>
</g>
</svg>
