<?xml version="1.0" standalone="no"?>
<!DOCTYPE svg PUBLIC "-//W3C//DTD SVG 20010904//EN"
 "http://www.w3.org/TR/2001/REC-SVG-20010904/DTD/svg10.dtd">
<svg version="1.0" xmlns="http://www.w3.org/2000/svg"
 width="786.000000pt" height="786.000000pt" viewBox="0 0 786.000000 786.000000"
 preserveAspectRatio="xMidYMid meet">

<g transform="translate(0.000000,786.000000) scale(0.100000,-0.100000)"
fill="#000000" stroke="none">
<path d="M2581 7088 c-362 -40 -706 -221 -948 -497 -240 -274 -355 -573 -370
-956 -11 -284 39 -540 148 -757 l39 -77 -85 -173 c-226 -458 -249 -650 -91
-755 82 -56 251 -95 440 -103 5 0 -27 -37 -70 -82 -132 -138 -212 -237 -304
-375 -132 -198 -181 -330 -202 -540 -21 -206 15 -424 85 -515 51 -67 105 -91
210 -96 l87 -4 -4 -102 c-3 -62 1 -134 9 -186 19 -112 20 -105 -21 -130 -44
-28 -77 -79 -94 -148 -30 -116 26 -300 123 -408 121 -134 421 -283 682 -340
60 -13 125 -17 260 -17 99 1 194 4 210 8 17 4 307 9 645 11 491 2 651 -1 795
-13 99 -9 288 -16 420 -17 215 -1 259 2 425 27 581 87 909 179 1094 306 79 54
173 165 215 253 50 106 68 167 135 473 100 457 146 749 188 1185 19 206 17
647 -5 795 -39 264 -147 713 -168 700 -19 -13 -7 14 38 81 167 248 243 439
279 696 22 155 14 432 -16 573 -116 547 -501 968 -1030 1128 -223 68 -209 67
-1698 66 -753 -1 -1374 -6 -1421 -11z m1749 -93 c-18 -48 -38 -80 -67 -107
-31 -30 -91 -58 -123 -58 -11 0 -20 -7 -20 -15 0 -12 -122 -15 -912 -18 -1027
-4 -952 2 -1123 -82 -195 -97 -343 -279 -402 -495 -24 -92 -24 -320 1 -410 24
-87 62 -175 98 -227 l29 -43 -20 -73 c-73 -264 -47 -572 68 -807 20 -41 54
-102 76 -135 49 -75 203 -231 272 -275 29 -18 51 -35 49 -37 -7 -8 -160 63
-232 107 -349 214 -585 557 -661 960 -25 131 -24 446 1 580 99 537 497 969
1022 1109 173 47 220 49 1111 50 l843 1 -10 -25z m175 -7 c-11 -54 -54 -135
-86 -163 -24 -20 -41 -25 -81 -25 l-51 0 38 37 c35 34 95 142 95 171 0 8 16
12 46 12 l46 0 -7 -32z m360 0 c-11 -54 -54 -135 -86 -163 -30 -24 -34 -25
-182 -25 l-151 0 27 28 c30 31 62 100 72 155 l7 37 160 0 160 0 -7 -32z m125
14 c0 -39 -30 -115 -62 -157 -29 -39 -38 -44 -72 -45 -38 0 -38 0 -22 23 27
36 64 119 71 160 7 35 9 37 46 37 31 0 39 -4 39 -18z m535 -7 c536 -97 974
-506 1110 -1035 72 -278 55 -689 -38 -909 -14 -32 -15 -24 -19 130 -4 133 -10
182 -31 260 -38 144 -101 278 -177 379 -26 34 -27 37 -22 156 3 88 0 143 -12
202 -59 290 -269 517 -548 591 -106 28 -131 30 -475 30 l-312 1 26 51 c14 28
30 78 37 111 l11 60 180 -5 c99 -3 221 -13 270 -22z m192 -250 c266 -51 478
-238 560 -492 20 -63 26 -105 30 -218 l5 -140 -49 48 c-49 47 -50 50 -56 120
-13 154 -76 286 -192 403 -89 91 -169 140 -285 176 l-75 23 -1655 0 -1655 0
-89 -29 c-152 -50 -300 -168 -376 -301 -101 -176 -117 -439 -39 -622 21 -49
20 -74 -4 -107 -13 -18 -16 -15 -44 35 -117 207 -123 500 -16 714 105 208 314
362 537 395 28 4 789 8 1691 8 1360 1 1652 -1 1712 -13z m-54 -170 c192 -40
360 -183 427 -363 22 -57 41 -144 35 -151 -2 -2 -18 7 -34 18 -95 68 -291 140
-436 160 -44 6 -614 9 -1530 7 -1305 -2 -1467 -4 -1525 -18 -282 -70 -498
-213 -658 -436 l-31 -43 -16 53 c-25 80 -30 229 -12 315 50 234 244 424 470
462 28 5 770 9 1647 10 1355 1 1605 -2 1663 -14z m-8 -416 c395 -62 714 -349
816 -737 27 -100 37 -330 19 -439 -27 -170 -87 -314 -187 -448 -94 -126 -217
-228 -353 -294 l-65 -32 35 28 c194 153 321 339 380 558 31 114 39 337 15 460
-69 366 -315 653 -655 763 -160 52 -138 52 -1510 49 l-1275 -2 -100 -28 c-382
-105 -663 -415 -721 -797 -63 -418 97 -800 427 -1019 69 -46 55 -46 -57 0
-221 91 -423 296 -515 524 -49 122 -70 218 -76 353 -17 344 108 636 362 847
131 109 325 193 490 214 96 12 2894 12 2970 0z m-1367 -187 c-11 -28 -143
-262 -148 -262 -3 0 -16 22 -30 48 -14 26 -47 86 -74 135 l-48 87 152 0 c83 0
150 -4 148 -8z m1942 -891 l0 -108 -171 52 c-93 29 -172 55 -175 57 -4 5 309
105 334 107 9 1 12 -27 12 -108z m-3899 47 c93 -29 167 -53 165 -55 -2 -2 -80
-27 -174 -57 l-172 -54 0 109 c0 60 3 109 6 109 4 0 82 -23 175 -52z m-786
-475 c58 -83 208 -236 298 -305 82 -63 194 -131 265 -162 23 -11 42 -22 42
-25 0 -4 -45 -46 -101 -95 -55 -49 -142 -127 -192 -173 -75 -70 -93 -82 -95
-66 -3 18 -16 21 -129 32 -197 18 -294 49 -346 111 -50 59 -48 128 9 300 33
99 191 440 203 440 3 0 24 -26 46 -57z m4880 -349 c74 -295 126 -658 112 -788
-9 -89 -78 -376 -122 -511 -40 -125 -99 -254 -152 -339 l-25 -39 -35 68 c-75
150 -217 315 -346 404 -102 70 -250 131 -377 156 -140 27 -362 5 -492 -50 -17
-7 -18 4 -18 149 l0 156 30 0 c42 0 84 23 98 55 18 39 16 338 -2 374 l-15 27
107 18 c59 10 159 29 222 43 63 13 161 30 218 38 276 38 479 139 658 328 49
52 90 93 91 93 1 -1 23 -83 48 -182z m-2196 -66 l52 -98 -151 0 -151 0 29 53
c16 28 46 84 67 122 21 39 43 76 48 83 11 14 13 10 106 -160z m-1935 -128 c32
-11 92 -26 134 -35 43 -8 86 -17 98 -20 18 -4 22 -14 26 -63 14 -150 136 -267
305 -292 220 -32 408 19 513 138 41 46 70 116 70 169 l0 33 908 -1 c794 -1
898 -3 837 -15 -143 -27 -249 -33 -615 -32 -206 1 -441 1 -522 0 -143 -2 -148
-3 -148 -23 0 -20 4 -20 168 -19 92 1 187 1 212 1 l45 -1 -3 -602 -2 -601 22
-24 c15 -16 33 -23 59 -23 l37 0 -28 -67 c-190 -452 -96 -967 237 -1298 199
-198 457 -298 727 -282 411 24 760 311 896 734 76 236 79 480 9 718 l-21 71
61 109 c76 135 129 271 175 440 33 123 35 127 35 77 2 -124 -62 -646 -114
-927 -40 -218 -134 -635 -161 -720 -120 -370 -366 -489 -1318 -637 -172 -26
-514 -32 -706 -11 -183 19 -1294 26 -1530 9 -385 -28 -552 0 -835 139 -139 67
-243 140 -288 199 -65 84 -106 223 -92 311 12 80 91 145 178 145 24 0 77 12
118 26 71 25 83 27 289 27 175 0 274 -6 530 -33 221 -23 367 -34 490 -34 165
-1 177 0 211 22 73 45 73 120 0 167 -71 46 -136 54 -496 59 -309 5 -590 -7
-719 -29 -50 -9 -144 -33 -210 -55 -153 -48 -246 -66 -257 -49 -16 26 -30 205
-22 283 l8 79 170 35 170 36 335 0 c321 1 337 2 381 23 89 41 149 110 149 172
0 69 -79 119 -299 187 l-136 43 -11 -37 c-8 -27 -8 -39 0 -43 6 -4 62 -21 124
-40 133 -38 235 -86 240 -112 6 -29 -62 -85 -124 -103 -48 -14 -94 -15 -327
-9 -266 7 -275 6 -407 -19 -378 -74 -453 -80 -527 -47 -75 34 -115 139 -129
331 -14 201 32 409 129 578 135 237 305 428 695 780 100 90 182 168 182 173 0
13 10 11 74 -11z m846 -102 c0 -18 -10 -53 -21 -78 -55 -122 -181 -177 -298
-131 -105 42 -164 100 -182 179 -14 64 -22 62 252 62 l249 0 0 -32z m217 -14
c-3 -28 -16 -62 -33 -86 -33 -45 -122 -104 -173 -114 l-35 -7 23 24 c37 39 72
118 78 175 l6 54 70 0 70 0 -6 -46z m1213 -583 c0 -431 -2 -521 -14 -530 -8
-6 -29 -36 -47 -66 -33 -54 -35 -55 -81 -55 l-48 0 0 578 c0 318 3 582 7 585
3 4 46 7 95 7 l88 0 0 -519z m461 509 c18 -10 19 -23 19 -168 0 -110 -4 -162
-12 -170 -17 -17 -379 -17 -396 0 -8 8 -12 59 -12 164 0 125 3 155 16 168 13
13 45 16 190 16 102 0 183 -4 195 -10z m-123 -582 l2 -167 -32 -17 c-53 -27
-150 -95 -195 -137 l-43 -40 0 260 c0 143 3 263 7 267 4 3 63 5 132 4 l126 -3
3 -167z m547 -162 c194 -34 346 -114 486 -255 302 -303 392 -780 226 -1188
-66 -162 -207 -342 -343 -439 -77 -55 -207 -116 -299 -140 -98 -26 -312 -26
-410 0 -595 156 -897 883 -616 1482 181 385 575 607 956 540z m-2307 -1327
c91 -12 137 -37 114 -61 -17 -17 -304 -17 -452 0 -230 27 -485 51 -560 53 -53
2 -54 2 -15 8 22 4 94 8 160 9 66 2 121 4 122 6 8 7 562 -5 631 -15z"/>
<path d="M2017 3637 c-89 -88 -136 -176 -171 -322 -42 -173 -41 -162 -7 -167
30 -4 31 -3 41 51 20 103 61 234 87 283 15 27 59 79 98 117 68 64 71 69 57 89
-8 12 -18 22 -23 22 -5 0 -41 -33 -82 -73z"/>
<path d="M3521 2417 c-8 -11 16 -33 115 -107 238 -178 294 -271 294 -489 0
-108 -18 -190 -66 -306 -39 -91 -39 -91 -19 -99 11 -4 22 10 41 52 60 133 76
193 81 313 13 273 -57 387 -375 612 -60 42 -56 41 -71 24z"/>
<path d="M3377 2085 c-4 -9 13 -26 53 -50 85 -52 157 -120 171 -162 11 -35 8
-140 -7 -190 -5 -19 -2 -23 14 -23 25 0 30 14 38 100 12 130 -24 194 -165 290
-79 53 -96 59 -104 35z"/>
<path d="M2030 1455 c-10 -12 4 -25 87 -78 189 -123 278 -157 409 -157 94 0
114 5 114 29 0 16 -9 17 -81 13 -140 -8 -240 27 -421 149 -48 33 -89 59 -91
59 -3 0 -10 -7 -17 -15z"/>
<path d="M3935 1174 c-95 -22 -240 -28 -345 -14 -106 13 -323 22 -346 13 -17
-6 -19 -33 -1 -33 158 -4 262 -10 347 -20 113 -14 254 -8 355 14 49 10 61 16
63 34 2 12 0 22 -5 21 -4 -1 -35 -7 -68 -15z"/>
<path d="M5374 3096 c-38 -17 -59 -66 -77 -181 l-13 -80 -7 70 c-15 147 -44
195 -119 195 -48 -1 -131 -32 -216 -82 -111 -65 -347 -331 -419 -471 -32 -65
-80 -226 -88 -304 -5 -43 -3 -69 8 -95 23 -54 50 -65 202 -83 58 -7 72 -15 26
-15 -43 0 -147 -27 -176 -46 -24 -15 -45 -54 -45 -83 0 -72 85 -228 206 -377
127 -157 254 -265 360 -307 104 -40 292 -60 327 -34 21 15 45 117 54 222 l6
80 32 -100 c35 -111 48 -139 78 -172 55 -60 175 1 370 186 97 92 171 202 244
362 67 146 77 202 42 242 -26 29 -113 56 -184 58 -22 0 -49 4 -60 9 -16 7 -12
9 20 9 54 2 161 28 196 48 80 48 56 226 -66 478 -60 125 -121 211 -201 284
-145 133 -406 230 -500 187z m209 -62 c160 -57 293 -160 384 -297 89 -134 183
-379 183 -478 0 -51 -8 -67 -40 -84 -30 -16 -192 -45 -250 -45 -38 0 -81 -18
-87 -37 -7 -20 35 -34 135 -44 192 -19 242 -37 242 -86 0 -57 -114 -295 -190
-398 -55 -75 -229 -235 -301 -278 -35 -20 -76 -37 -91 -37 -35 0 -53 33 -103
192 -40 128 -56 152 -83 125 -12 -13 -19 -51 -28 -150 -7 -72 -18 -145 -25
-161 l-13 -29 -81 6 c-191 13 -273 54 -435 217 -163 162 -272 321 -301 434
-21 85 18 107 241 137 118 15 160 27 160 45 0 22 -43 34 -128 34 -111 0 -241
17 -268 35 -38 25 -40 73 -8 204 15 64 43 145 61 181 47 95 153 231 267 346
84 84 115 108 187 143 93 46 160 61 184 41 21 -17 34 -72 50 -207 9 -80 18
-120 30 -132 15 -15 17 -15 30 2 7 10 16 51 20 90 15 171 35 243 69 258 31 13
107 2 189 -27z"/>
<path d="M5276 2250 c-34 -11 -73 -45 -92 -82 -63 -122 102 -248 231 -175 82
46 98 147 34 213 -47 48 -107 63 -173 44z m109 -44 c60 -25 83 -103 44 -147
l-21 -24 16 25 c49 77 -36 171 -128 140 -42 -13 -61 -35 -74 -80 -8 -26 -10
-29 -11 -12 -2 36 25 78 61 95 41 20 69 21 113 3z m-8 -60 c24 -21 26 -27 18
-52 -13 -35 -53 -52 -92 -38 -17 5 -32 21 -38 38 -8 25 -6 31 18 52 16 13 37
24 47 24 10 0 31 -11 47 -24z"/>
</g>
</svg>
