<?xml version="1.0" standalone="no"?>
<!DOCTYPE svg PUBLIC "-//W3C//DTD SVG 20010904//EN"
 "http://www.w3.org/TR/2001/REC-SVG-20010904/DTD/svg10.dtd">
<svg version="1.0" xmlns="http://www.w3.org/2000/svg"
 width="150.000000pt" height="150.000000pt" viewBox="0 0 150.000000 150.000000"
 preserveAspectRatio="xMidYMid meet">

<g transform="translate(0.000000,150.000000) scale(0.100000,-0.100000)"
fill="#000000" stroke="none">
<path d="M534 1466 c-38 -17 -50 -48 -62 -156 -11 -95 -3 -184 18 -217 20 -31
63 -48 88 -34 45 24 39 8 -17 -48 -52 -52 -63 -70 -82 -133 -39 -128 -38 -228
1 -228 27 0 25 -22 -5 -50 -29 -27 -31 -42 -10 -60 19 -15 19 -39 1 -59 -20
-24 -28 -78 -12 -93 18 -19 13 -135 -8 -175 -25 -47 -18 -95 16 -111 47 -22
118 -30 192 -21 48 6 90 5 129 -2 31 -7 87 -9 123 -6 51 4 78 0 122 -16 82
-30 204 -29 297 2 74 25 105 45 105 68 0 26 -31 25 -93 -2 -54 -25 -74 -28
-152 -28 -49 1 -110 7 -135 15 l-45 14 -5 55 c-4 40 -13 66 -32 92 -16 19 -28
40 -28 46 0 6 18 20 40 31 24 12 41 29 44 43 15 73 15 85 -2 99 -24 20 -91 38
-145 38 -37 0 -49 5 -66 26 -29 37 -37 90 -17 113 10 11 12 21 6 27 -6 6 -4
24 5 49 7 22 11 50 8 63 -6 25 3 28 26 9 28 -24 94 -36 161 -31 108 8 164 61
201 188 8 27 29 65 47 84 44 48 40 70 -8 40 -15 -10 -34 -8 -99 11 -109 31
-219 27 -305 -12 -70 -32 -102 -28 -121 16 -14 34 -7 66 28 125 16 27 17 32 4
32 -24 0 -56 -52 -69 -111 -14 -65 -23 -77 -36 -52 -7 13 -7 33 0 63 19 81 59
178 74 184 9 4 41 -10 74 -30 l59 -36 148 5 c84 2 165 10 188 18 23 8 61 35
88 63 46 46 51 49 102 50 30 0 57 -3 61 -6 4 -4 -1 -23 -10 -42 -9 -19 -16
-51 -16 -73 0 -21 -7 -49 -17 -62 -38 -55 -61 -114 -57 -145 4 -27 0 -35 -31
-56 -33 -24 -49 -49 -106 -178 -27 -62 -66 -99 -112 -106 -66 -11 -157 -13
-199 -6 -46 9 -69 3 -47 -11 8 -5 62 -9 121 -9 188 0 245 36 304 193 32 86 38
94 81 112 32 13 33 17 32 62 -2 48 15 94 52 142 13 16 19 40 19 72 0 26 6 54
13 61 20 20 26 55 13 74 -19 25 -137 32 -172 9 -25 -16 -28 -16 -67 2 -35 15
-67 18 -212 18 -93 0 -192 -2 -220 -3 -27 -1 -93 0 -145 3 -68 3 -104 1 -126
-9z m176 -40 c0 -7 -7 -19 -15 -26 -15 -13 -34 -49 -68 -133 -9 -20 -19 -64
-23 -96 -5 -51 -10 -60 -29 -65 -35 -9 -52 2 -59 36 -14 73 3 234 30 276 13
20 23 22 89 22 57 0 75 -3 75 -14z m487 -2 c29 -3 56 -10 60 -17 3 -6 -10 -25
-31 -43 -45 -39 -76 -45 -248 -47 l-124 -2 -38 33 c-20 17 -46 32 -56 32 -25
0 -26 25 -2 36 38 17 308 22 439 8z m-69 -365 c35 -15 37 -23 20 -83 -30 -103
-97 -156 -197 -156 -117 0 -174 90 -124 194 23 50 74 67 183 62 47 -3 100 -10
118 -17z m-384 -25 l36 -6 0 -65 c0 -35 5 -73 11 -84 10 -20 9 -20 -14 -5 -32
21 -41 9 -17 -22 36 -44 23 -135 -23 -162 -32 -20 -47 -17 -89 13 -26 19 -29
19 -70 4 -64 -25 -78 -22 -78 12 0 41 28 159 45 190 34 62 126 145 152 136 6
-2 28 -7 47 -11z m-92 -383 c12 -14 30 -21 52 -21 31 0 34 -3 40 -39 4 -26 15
-46 31 -58 23 -17 25 -21 14 -50 -13 -39 -30 -39 -79 -1 -25 18 -53 28 -95 33
-33 3 -72 11 -87 17 -28 10 -43 34 -28 43 20 12 98 7 129 -10 18 -9 36 -14 39
-10 13 12 -31 35 -80 41 -27 4 -51 11 -55 17 -3 6 10 25 31 44 39 36 54 35 88
-6z m-9 -163 c56 -17 46 -31 -18 -23 -50 6 -57 4 -80 -19 -14 -14 -25 -32 -25
-41 0 -8 -4 -15 -10 -15 -16 0 -11 73 6 99 17 24 39 24 127 -1z m325 6 c25 -7
37 -41 28 -77 -4 -16 -19 -29 -45 -39 -51 -21 -64 -57 -32 -96 50 -63 50 -121
1 -147 -37 -19 -76 -19 -131 1 -38 13 -58 13 -145 3 -82 -10 -107 -10 -133 0
-37 16 -41 46 -11 83 14 19 18 34 13 61 -4 30 -2 37 20 52 22 14 37 15 117 6
77 -9 98 -8 131 5 l39 16 0 62 c0 35 3 66 7 69 8 9 110 9 141 1z m-250 -76
c44 -2 73 -22 56 -38 -12 -11 -31 -13 -131 -11 -73 1 -83 3 -83 19 0 32 22 44
70 38 25 -4 64 -7 88 -8z"/>
<path d="M955 1396 c-11 -8 -16 -19 -12 -30 9 -23 125 -23 134 0 9 23 -23 44
-67 44 -20 0 -45 -6 -55 -14z m95 -15 c0 -14 -38 -24 -66 -17 -14 4 -22 11
-19 16 8 13 85 13 85 1z"/>
<path d="M1190 751 c-85 -45 -127 -176 -134 -416 -3 -119 6 -141 71 -165 88
-33 122 -26 203 39 41 32 15 35 -32 3 -59 -40 -83 -46 -134 -32 -74 21 -79 34
-78 179 2 223 67 391 151 391 36 0 35 -16 -4 -41 -49 -32 -68 -68 -88 -164
-27 -130 -31 -235 -11 -273 16 -31 52 -55 69 -45 13 8 7 22 -12 28 -23 7 -41
53 -41 104 0 43 33 220 52 275 13 39 19 44 71 65 46 18 30 71 -23 71 -14 0
-41 -8 -60 -19z"/>
</g>
</svg>
