<?xml version="1.0" standalone="no"?>
<!DOCTYPE svg PUBLIC "-//W3C//DTD SVG 20010904//EN"
 "http://www.w3.org/TR/2001/REC-SVG-20010904/DTD/svg10.dtd">
<svg version="1.0" xmlns="http://www.w3.org/2000/svg"
 width="150.000000pt" height="150.000000pt" viewBox="0 0 150.000000 150.000000"
 preserveAspectRatio="xMidYMid meet">

<g transform="translate(0.000000,150.000000) scale(0.100000,-0.100000)"
fill="#000000" stroke="none">
<path d="M510 1441 c-104 -39 -127 -52 -188 -108 -50 -46 -53 -51 -61 -116
-12 -82 -2 -116 40 -141 28 -17 29 -19 14 -36 -24 -27 -55 -124 -55 -176 0
-39 5 -51 31 -75 17 -16 42 -29 56 -29 37 0 24 -21 -32 -51 -73 -40 -79 -65
-32 -125 12 -15 23 -37 24 -48 6 -38 32 -47 115 -42 62 4 78 2 78 -9 0 -9 -21
-18 -57 -25 -129 -27 -193 -72 -193 -137 0 -51 37 -83 95 -83 62 0 100 -18
165 -80 34 -32 84 -66 130 -87 69 -32 84 -36 190 -39 309 -11 463 -1 538 33
28 13 35 14 50 2 51 -41 82 -43 82 -4 0 18 -7 25 -29 30 -17 3 -31 14 -34 26
-6 22 -33 25 -56 5 -9 -7 -31 -18 -50 -24 -30 -11 -32 -10 -26 6 33 81 31 89
-25 96 -35 4 -80 46 -80 75 0 8 16 43 36 79 37 68 39 98 4 87 -11 -3 -27 -2
-35 3 -14 7 -11 14 18 49 28 35 35 53 45 123 14 96 37 135 108 176 45 27 70
57 59 74 -3 5 -33 7 -68 3 -61 -5 -64 -5 -100 29 -35 33 -37 39 -37 95 0 102
46 234 123 351 l48 74 49 -4 c43 -4 50 -2 50 14 0 16 -11 18 -132 19 -420 1
-486 -3 -552 -37 -26 -14 -49 -24 -51 -22 -1 2 -8 14 -14 26 -30 57 -126 65
-241 23z m198 -31 c12 -12 22 -31 22 -44 0 -28 -36 -83 -67 -104 -22 -14 -23
-13 -23 10 0 25 -43 58 -77 58 -31 -1 -103 -38 -103 -54 0 -12 10 -14 50 -9
44 5 50 4 50 -13 0 -40 -56 -79 -122 -86 -56 -6 -70 1 -70 36 -1 40 46 92 109
121 105 50 229 41 195 -14 -7 -12 -8 -21 -2 -21 10 0 30 32 30 49 0 23 -62 43
-112 37 -150 -20 -271 -117 -250 -199 6 -22 48 -40 77 -33 16 4 15 1 -8 -20
-53 -45 -100 -26 -109 46 -7 55 8 100 46 140 86 92 308 152 364 100z m627 0
c3 -5 -12 -33 -33 -62 -33 -44 -74 -129 -95 -198 -2 -8 -7 9 -11 37 -7 48 -20
72 -32 60 -2 -2 3 -34 11 -71 19 -80 21 -229 4 -285 -29 -96 -156 -190 -240
-176 -40 7 -69 35 -69 67 0 24 4 23 34 -7 28 -27 47 -30 94 -14 35 12 112 105
112 135 0 11 5 25 10 30 12 12 29 163 24 216 -3 38 -43 145 -69 185 -9 13 -21
23 -28 23 -9 0 2 -31 30 -86 42 -84 43 -88 43 -182 0 -54 -5 -104 -10 -112 -6
-9 -8 20 -7 85 2 93 0 104 -28 159 -23 45 -38 62 -65 74 -42 17 -126 12 -187
-13 -75 -30 -46 -48 32 -20 22 8 62 14 89 15 41 0 53 -5 81 -33 49 -49 60
-101 48 -222 -11 -101 -34 -163 -72 -192 -24 -18 -56 -16 -76 7 -25 28 -48 25
-67 -7 -27 -47 -6 -106 44 -127 l30 -13 -46 -43 c-25 -23 -55 -49 -66 -57 -20
-14 -20 -16 -4 -34 21 -24 66 -24 102 -2 l27 18 -22 -35 c-12 -19 -25 -53 -29
-74 -4 -22 -18 -50 -30 -63 -31 -31 -30 -51 1 -63 20 -7 32 -6 51 6 13 9 27
15 29 13 8 -9 -27 -185 -40 -198 -11 -12 -19 -12 -45 -1 -27 11 -33 11 -41 -1
-5 -8 -7 -20 -4 -26 3 -7 8 -20 11 -28 5 -12 0 -14 -27 -9 -81 13 -78 12 -69
43 4 16 6 31 4 34 -2 2 -9 30 -15 61 -12 66 -8 74 56 113 55 34 65 50 65 101
0 38 -5 50 -35 78 -51 48 -108 54 -177 20 -68 -34 -91 -33 -121 5 -21 27 -35
33 -102 45 -80 14 -105 26 -105 51 0 25 105 15 136 -14 14 -13 29 -23 34 -23
6 0 15 -9 22 -20 8 -12 23 -20 38 -20 l25 1 -30 25 c-65 56 -118 84 -159 84
l-41 1 30 13 c38 17 53 34 58 71 2 16 11 34 21 39 14 9 21 6 33 -11 12 -18 25
-23 62 -23 58 1 77 16 101 77 16 42 16 51 4 75 -14 27 -51 44 -76 35 -8 -3 -2
-9 15 -16 39 -15 38 -71 -2 -112 -36 -36 -55 -36 -83 -4 -25 29 -38 30 -93 10
-67 -24 -74 -21 -77 33 -3 52 15 118 49 173 27 42 103 96 227 159 65 33 107
64 161 118 41 41 88 78 106 84 29 9 125 15 421 26 26 1 50 -2 53 -8z m-728
-146 c3 -9 1 -20 -6 -27 -8 -8 -11 -5 -11 12 0 13 -8 30 -17 38 -16 13 -16 13
5 3 13 -6 26 -18 29 -26z m478 -378 c-23 -53 -28 -40 -7 17 9 27 18 42 20 35
1 -8 -4 -31 -13 -52z m153 -18 c6 -6 38 -17 69 -23 l58 -12 -45 -20 c-95 -43
-145 -119 -174 -265 -18 -85 -14 -134 15 -190 15 -30 18 -49 13 -93 -5 -38 -3
-64 6 -80 15 -27 59 -46 89 -38 30 8 18 -21 -15 -36 -38 -17 -83 -13 -120 10
l-33 20 -43 -25 c-57 -32 -141 -41 -182 -18 l-31 17 80 5 c72 5 125 23 125 42
0 3 6 13 14 21 27 27 47 123 56 272 13 194 16 216 46 304 46 133 47 134 72
109z m-221 -73 c-32 -28 -64 -32 -93 -10 -23 17 -19 18 23 6 24 -7 37 -5 59 9
40 26 44 24 11 -5z m103 -90 c0 -8 -12 -17 -27 -20 -71 -15 -110 -29 -138 -49
-16 -12 -43 -30 -60 -41 l-30 -19 29 35 c40 48 72 66 141 78 32 6 64 16 69 21
13 13 16 13 16 -5z m123 -62 c-5 -59 -29 -127 -50 -145 -15 -11 -16 -11 -9 7
5 11 8 30 7 42 -2 36 38 143 54 143 1 0 0 -21 -2 -47z m-133 17 c0 -13 -12
-17 -79 -24 -59 -6 -60 3 -3 20 48 15 82 17 82 4z m-90 -44 c0 -2 -7 -7 -16
-10 -8 -3 -12 -2 -9 4 6 10 25 14 25 6z m80 -41 c0 -31 -3 -35 -26 -35 -40 0
-87 -34 -125 -90 -19 -27 -37 -50 -41 -50 -8 0 16 79 35 116 28 54 83 92 135
93 19 1 22 -4 22 -34z m-710 -25 c13 -9 13 -11 0 -20 -19 -13 -34 -8 -38 13
-4 19 15 22 38 7z m75 -21 c10 -15 -1 -23 -20 -15 -9 3 -13 10 -10 16 8 13 22
13 30 -1z m290 -13 c32 -17 55 -58 53 -93 -2 -19 -18 -36 -59 -64 -31 -21 -59
-45 -63 -54 -9 -24 -7 -83 3 -89 14 -9 21 -66 11 -87 -6 -10 -18 -19 -27 -19
-23 0 -83 40 -83 55 0 17 -91 104 -133 128 -35 19 -112 23 -122 7 -11 -18 -35
9 -35 39 0 20 3 22 10 11 8 -12 11 -12 28 3 10 9 24 17 31 17 24 0 159 49 230
84 97 47 133 50 152 15 9 -18 8 -25 -7 -40 -17 -16 -21 -16 -38 -4 -16 12 -17
17 -6 30 11 13 9 15 -13 15 -14 0 -27 -7 -31 -15 -6 -17 19 -45 42 -45 10 0 3
-9 -19 -25 -20 -13 -39 -31 -43 -40 -10 -26 -7 -84 5 -107 6 -11 11 -36 11
-55 0 -21 4 -33 12 -30 13 5 12 45 -3 108 -15 58 -3 92 41 115 18 9 44 26 58
38 47 39 13 95 -60 97 l-35 1 30 8 c17 4 31 8 31 9 1 0 14 -5 29 -13z m335 -1
c0 -2 -19 -13 -42 -23 -37 -16 -70 -48 -100 -95 -4 -6 -9 -9 -12 -6 -8 8 84
110 108 119 24 10 46 12 46 5z m-450 -20 c-14 -8 -29 -14 -35 -14 -5 0 1 6 15
14 14 8 30 14 35 14 6 0 -1 -6 -15 -14z m460 -58 c0 -19 -12 -40 -35 -64 -36
-37 -60 -99 -70 -185 -6 -45 -8 -48 -35 -48 -27 0 -28 2 -20 28 5 15 16 67 25
117 22 123 32 150 63 172 56 38 72 34 72 -20z m-560 18 c0 -14 -167 -71 -178
-61 -2 2 27 13 65 25 37 12 75 26 83 31 16 10 30 13 30 5z m678 -52 c-5 -23
-23 -20 -26 4 -3 18 0 21 13 17 9 -4 15 -13 13 -21z m-303 -42 c-8 -13 -45
-15 -45 -2 0 5 10 11 23 13 27 5 31 3 22 -11z m160 -81 c-10 -39 -26 -81 -37
-93 l-19 -22 6 60 c5 56 48 146 62 131 3 -3 -2 -37 -12 -76z m170 -108 c-3 -3
-11 0 -18 7 -9 10 -8 11 6 5 10 -3 15 -9 12 -12z m-107 -88 c26 -14 26 -14
-27 -14 -53 0 -54 0 -36 20 10 11 22 17 26 14 5 -3 21 -12 37 -20z"/>
<path d="M627 1168 c-37 -22 -66 -43 -63 -46 6 -6 124 54 146 74 29 28 -13 13
-83 -28z"/>
<path d="M608 1100 c-26 -16 -22 -30 7 -30 18 0 25 -5 25 -19 0 -42 68 -62
121 -36 19 10 43 25 54 35 11 9 33 20 49 24 55 13 11 25 -114 31 -83 4 -131 2
-142 -5z m182 -30 c0 -19 -49 -41 -82 -38 -25 2 -34 8 -36 26 -3 21 0 22 57
22 34 0 61 -4 61 -10z"/>
<path d="M655 848 c-2 -7 -9 -35 -15 -62 -9 -40 -8 -52 4 -64 21 -21 46 -8 47
25 1 32 6 72 11 93 4 19 -40 26 -47 8z"/>
<path d="M725 838 c-2 -7 -6 -36 -9 -64 l-6 -52 37 -15 c21 -8 43 -12 50 -10
20 8 15 31 -8 38 -20 7 -21 12 -16 61 5 52 5 54 -19 54 -14 0 -26 -6 -29 -12z"/>
</g>
</svg>
