<?xml version="1.0" standalone="no"?>
<!DOCTYPE svg PUBLIC "-//W3C//DTD SVG 20010904//EN"
 "http://www.w3.org/TR/2001/REC-SVG-20010904/DTD/svg10.dtd">
<svg version="1.0" xmlns="http://www.w3.org/2000/svg"
 width="150.000000pt" height="150.000000pt" viewBox="0 0 150.000000 150.000000"
 preserveAspectRatio="xMidYMid meet">

<g transform="translate(0.000000,150.000000) scale(0.100000,-0.100000)"
fill="#000000" stroke="none">
<path d="M218 1434 c-21 -19 -39 -41 -39 -47 -3 -26 3 -42 18 -54 13 -10 14
-17 3 -42 -12 -31 -7 -66 16 -91 11 -13 10 -20 -6 -45 -11 -17 -20 -38 -20
-49 0 -24 65 -86 91 -86 26 0 24 -6 -11 -38 -39 -36 -118 -180 -121 -223 -5
-60 17 -91 66 -94 5 0 11 -8 13 -17 2 -12 -11 -27 -42 -45 -48 -29 -63 -55
-68 -113 -3 -45 5 -57 42 -65 35 -8 34 -5 13 -49 -20 -43 -6 -66 39 -66 30 0
88 28 88 42 0 11 41 10 58 -1 11 -7 11 -12 1 -29 -10 -15 -28 -21 -81 -27 -57
-5 -75 -11 -101 -35 l-32 -29 28 -23 28 -23 -25 -24 c-42 -40 -29 -78 37 -106
45 -18 101 -19 192 -2 59 11 82 11 145 0 63 -12 150 -17 220 -15 8 1 40 -1 70
-4 30 -3 81 -1 113 4 44 7 68 6 100 -5 24 -8 88 -15 152 -17 60 -1 116 -4 124
-6 11 -4 17 6 21 33 4 20 10 40 13 43 10 10 27 -6 27 -25 0 -26 34 -66 48 -57
15 9 16 43 2 51 -21 13 -11 109 16 164 l26 52 -25 27 c-59 62 -67 118 -42 304
19 144 33 205 57 246 23 42 23 52 -2 52 -31 0 -57 53 -65 132 -8 82 4 108 29
59 18 -34 43 -41 53 -15 4 10 -2 23 -14 33 -37 29 -53 75 -53 151 0 72 16 121
45 137 14 8 14 11 0 28 -15 20 -15 19 -36 -7 -25 -33 -31 -34 -67 -8 -55 39
-126 49 -352 45 -116 -1 -226 1 -243 5 -18 3 -38 5 -44 3 -23 -8 -15 -69 14
-103 21 -26 24 -33 12 -41 -29 -18 -49 -10 -49 19 0 36 -25 71 -64 87 -25 11
-36 11 -67 -2 -36 -14 -39 -13 -78 12 -37 25 -46 27 -105 21 -42 -5 -66 -4
-71 3 -13 23 -60 11 -97 -25z m85 -1 c9 -15 -61 -86 -78 -80 -21 9 -19 21 11
56 24 29 57 40 67 24z m185 -28 c27 -22 36 -24 89 -19 89 10 106 -25 46 -96
-29 -35 -39 -37 -46 -10 -6 24 -45 40 -99 40 -46 0 -108 39 -108 69 0 46 70
56 118 16z m777 13 c3 -3 -38 -9 -91 -13 -53 -4 -122 -15 -153 -25 -183 -59
-281 -52 -281 21 l0 27 260 -2 c143 -1 262 -5 265 -8z m-910 -48 c3 -10 20
-31 36 -45 19 -15 25 -25 16 -25 -16 0 -77 64 -77 80 0 18 19 10 25 -10z m960
11 c13 -5 -13 -10 -72 -13 -120 -7 -181 -40 -255 -139 -62 -83 -69 -145 -22
-193 l26 -25 -20 -108 c-33 -176 -34 -191 -17 -222 9 -19 21 -28 32 -26 10 2
26 4 35 4 31 2 74 103 93 219 10 60 26 72 93 72 l57 -1 -35 -19 c-19 -10 -43
-32 -52 -48 -17 -28 -76 -187 -83 -221 -2 -9 -12 -41 -23 -71 -41 -112 -37
-193 12 -231 l26 -20 -49 -48 c-59 -58 -82 -99 -90 -166 l-6 -50 -57 -3 -58
-3 0 42 c0 32 -6 50 -25 69 l-25 26 29 28 c38 37 57 29 72 -29 6 -25 15 -45
20 -45 15 0 10 32 -11 78 -20 45 -18 96 4 89 6 -2 15 -18 21 -35 5 -18 13 -32
18 -32 15 0 -1 62 -22 85 -10 11 -28 40 -39 63 l-21 44 27 -6 c15 -4 33 -16
41 -26 13 -19 41 -28 41 -12 -1 12 -24 38 -45 49 -25 13 -178 27 -205 18 -11
-4 -18 -10 -15 -15 3 -5 -21 -24 -52 -43 -32 -20 -71 -49 -87 -66 -26 -27 -32
-29 -45 -17 -9 8 -32 21 -52 29 -26 11 -42 28 -63 68 -30 57 -90 111 -145 130
-33 12 -66 6 -56 -10 3 -6 12 -8 20 -5 26 10 118 -55 155 -109 19 -29 37 -55
38 -59 2 -5 -14 -8 -36 -8 -28 0 -49 7 -69 24 -39 33 -68 46 -97 46 -37 0 -58
37 -50 86 5 33 12 42 48 59 37 18 41 23 41 58 0 43 2 43 91 16 93 -28 162 38
106 103 -19 22 -31 15 -25 -15 9 -48 -57 -75 -101 -42 -23 18 -64 19 -102 5
-31 -12 -44 -1 -44 37 0 33 77 187 113 226 18 19 55 47 82 63 28 16 79 59 115
96 36 37 86 76 110 87 25 11 56 30 70 41 16 13 52 24 95 31 125 17 185 30 273
56 136 40 222 51 267 34z m-930 -109 c-10 -10 -52 20 -68 48 -31 51 -18 53 28
5 25 -27 43 -51 40 -53z m968 79 c26 -1 37 -5 35 -13 -3 -8 -34 -15 -85 -19
-101 -8 -170 -39 -240 -109 -47 -45 -63 -70 -48 -70 2 0 26 23 52 51 26 28 63
59 83 69 69 34 200 54 222 32 15 -15 7 -17 -99 -31 -56 -7 -95 -18 -120 -34
-45 -28 -105 -93 -128 -136 -21 -42 -45 -31 -45 20 0 95 112 221 208 234 26 3
54 8 62 9 8 2 26 2 40 1 14 -2 42 -4 63 -4z m-1083 -44 c0 -14 43 -63 60 -69
8 -2 7 -18 -1 -56 -12 -48 -11 -55 9 -82 12 -16 22 -31 22 -34 0 -2 -18 -7
-41 -11 -34 -6 -44 -3 -65 16 -28 26 -30 48 -8 90 14 28 14 33 0 54 -19 29
-20 46 -4 80 12 26 28 34 28 12z m90 -54 c0 -8 -46 21 -57 36 -23 30 -13 29
22 -2 19 -17 35 -32 35 -34z m181 26 l21 -21 -34 -32 c-19 -18 -42 -43 -51
-57 -16 -21 -18 -22 -33 -7 -13 13 -14 20 -4 38 15 28 7 36 -14 15 -20 -21
-21 -53 0 -76 14 -16 14 -19 -9 -33 -45 -30 -77 8 -63 74 5 28 70 97 105 112
31 13 61 8 82 -13z m839 -39 c0 -12 -28 -20 -68 -20 -49 0 -142 -47 -180 -90
-67 -79 -138 -250 -103 -250 6 0 11 12 11 28 0 42 70 172 120 222 35 36 59 50
106 63 75 21 110 22 118 2 7 -19 -1 -22 -74 -30 -63 -7 -140 -57 -172 -111
-28 -48 -67 -161 -88 -253 -20 -90 -36 -116 -64 -105 -13 5 -17 15 -13 38 3
17 10 69 16 116 26 191 85 306 188 367 57 33 203 50 203 23z m-18 -85 c9 -4
13 -17 10 -41 -3 -27 -12 -41 -33 -53 -37 -21 -37 -34 1 -26 26 6 30 3 36 -20
3 -14 3 -29 -1 -33 -4 -4 -54 -7 -111 -7 -99 0 -104 1 -104 21 0 35 55 97 117
131 62 35 64 36 85 28z m38 -245 c17 -16 35 -30 40 -30 5 0 1 -19 -9 -43 -10
-23 -22 -58 -25 -77 -15 -73 -16 -74 -37 -54 -14 13 -16 21 -8 35 10 20 -3 59
-21 59 -27 0 -63 -24 -81 -55 -15 -25 -28 -35 -46 -35 -13 0 -33 -5 -45 -11
-11 -6 -22 -8 -25 -5 -9 9 49 161 72 190 23 29 82 55 127 56 17 0 39 -11 58
-30z m-67 -174 c-4 -29 -1 -37 21 -51 32 -21 32 -41 4 -108 -28 -69 -45 -87
-81 -87 -19 0 -36 -8 -49 -26 -27 -33 -43 -18 -34 31 5 24 14 39 29 45 18 7
19 9 6 14 -14 6 -14 12 1 59 12 37 23 52 36 53 37 3 39 5 20 19 -17 13 -17 18
-6 45 13 30 38 52 52 44 4 -2 4 -20 1 -38z m-116 -44 c18 -12 -26 -122 -49
-122 -38 0 -29 96 11 120 20 12 23 12 38 2z m-64 -207 c-8 -50 11 -75 56 -75
22 0 44 6 51 15 6 8 22 17 33 21 12 3 32 16 45 27 l22 20 0 -29 c0 -16 3 -45
6 -64 5 -32 3 -37 -21 -48 -44 -20 -169 -17 -207 5 -47 27 -65 85 -49 156 l12
54 29 -25 c23 -20 27 -31 23 -57z m-386 -21 c-3 -3 -12 -4 -19 -1 -8 3 -5 6 6
6 11 1 17 -2 13 -5z m102 -60 c19 -42 20 -48 5 -82 -8 -20 -32 -54 -52 -75
-34 -35 -35 -39 -22 -60 35 -56 41 -76 30 -97 -14 -26 -22 -20 -26 16 -2 14
-10 34 -18 43 -26 29 -19 56 29 112 25 29 45 58 46 63 0 6 2 20 4 32 3 11 -4
37 -14 57 -10 21 -15 37 -10 37 4 0 17 -21 28 -46z m-53 1 c23 -36 11 -91 -31
-135 -47 -48 -57 -80 -39 -116 19 -37 11 -74 -17 -74 -17 0 -19 3 -10 14 8 10
10 34 6 73 -7 59 -7 60 34 107 33 38 41 55 39 79 -3 29 -13 39 -53 52 -16 5
-17 8 -5 15 27 17 59 11 76 -15z m-547 -4 c22 -14 -12 -61 -44 -61 -29 0 -31
11 -9 45 17 27 30 30 53 16z m447 0 c-3 -5 10 -12 29 -15 28 -6 35 -12 35 -29
0 -22 -18 -55 -51 -91 -31 -33 -43 -74 -30 -100 16 -29 11 -66 -11 -80 -12 -7
-38 -4 -98 13 -78 23 -86 23 -181 11 -99 -12 -183 -8 -195 11 -3 6 1 18 10 28
21 24 20 40 -5 67 l-21 22 24 13 c15 9 67 13 154 13 126 1 132 2 173 29 23 15
59 43 80 62 21 19 49 39 62 44 31 13 31 13 25 2z m-257 -67 c56 -11 34 -44
-30 -44 -21 0 -29 5 -29 18 0 32 8 36 59 26z m696 -37 c-16 -22 -21 -77 -7
-77 4 0 13 20 20 45 7 25 17 45 24 45 9 0 9 -3 0 -12 -22 -22 -14 -67 13 -80
33 -15 72 11 92 62 13 32 21 39 50 42 30 4 38 0 60 -28 l24 -33 -27 -60 c-15
-33 -35 -62 -46 -64 -9 -3 -27 -21 -38 -40 -18 -31 -27 -36 -73 -41 -57 -7
-173 6 -206 23 -53 29 -24 127 61 207 49 45 82 52 53 11z m125 13 c0 -6 -7
-24 -15 -40 -23 -45 -75 -37 -60 9 9 28 75 55 75 31z"/>
<path d="M484 1067 c-21 -19 -58 -46 -80 -60 -46 -29 -94 -87 -72 -87 7 0 24
14 38 31 14 17 37 37 52 45 39 20 131 104 115 104 -7 0 -31 -15 -53 -33z"/>
<path d="M518 1033 c-29 -5 -39 -23 -13 -23 12 0 14 -8 9 -38 -7 -46 12 -66
76 -81 42 -10 48 -8 95 21 28 17 70 34 95 37 l44 6 -74 39 c-61 31 -87 39
-140 41 -36 2 -77 1 -92 -2z m147 -35 c33 -15 32 -32 -4 -57 -60 -43 -141 -7
-111 50 12 22 73 26 115 7z"/>
<path d="M485 834 c51 -121 46 -154 -31 -201 -18 -11 -18 -12 3 -12 13 -1 37
12 55 28 28 25 32 34 31 79 -1 53 -26 111 -52 120 -11 4 -12 0 -6 -14z"/>
<path d="M731 710 c-19 -3 -36 -10 -38 -16 -2 -7 23 -10 74 -10 43 1 86 -3 96
-8 12 -6 17 -4 17 7 0 11 -13 18 -37 22 -64 10 -77 11 -112 5z"/>
<path d="M805 650 c28 -12 47 -12 40 0 -3 6 -18 10 -33 9 -24 0 -25 -1 -7 -9z"/>
<path d="M778 624 c-16 -15 -7 -19 35 -16 27 2 49 -2 62 -12 19 -15 19 -15
-10 -16 -29 -1 -29 -1 10 -15 21 -8 40 -13 41 -12 1 1 4 11 8 23 5 16 0 23
-18 32 -33 15 -119 26 -128 16z"/>
<path d="M395 557 c-10 -8 -14 -19 -9 -30 9 -25 48 -18 52 9 4 26 -20 37 -43
21z"/>
<path d="M714 536 c-20 -15 -11 -36 17 -36 10 0 19 2 19 4 0 2 3 11 6 19 7 20
-20 28 -42 13z"/>
<path d="M843 543 c-7 -3 -13 -9 -13 -15 0 -6 7 -8 15 -4 8 3 27 1 41 -4 19
-8 25 -7 22 2 -5 14 -47 27 -65 21z"/>
<path d="M612 488 c-16 -16 -15 -35 3 -42 9 -3 12 -12 8 -22 -5 -13 2 -12 38
7 35 18 40 24 24 27 -11 2 -26 13 -33 23 -15 22 -23 24 -40 7z"/>
<path d="M225 480 c-3 -5 1 -10 9 -10 9 0 16 5 16 10 0 6 -4 10 -9 10 -6 0
-13 -4 -16 -10z"/>
<path d="M446 481 c-4 -5 -3 -17 0 -26 10 -24 48 -15 52 13 3 18 -1 22 -22 22
-14 0 -27 -4 -30 -9z"/>
<path d="M534 409 c-9 -15 12 -33 30 -26 9 4 16 13 16 22 0 17 -35 21 -46 4z"/>
<path d="M854 195 c9 -13 16 -40 16 -60 0 -19 5 -35 10 -35 10 0 11 3 14 43 3
31 -21 77 -40 77 -15 0 -15 -2 0 -25z"/>
<path d="M1006 779 c-3 -18 -4 -34 -2 -36 2 -3 7 10 11 27 4 17 5 34 2 36 -2
3 -7 -10 -11 -27z"/>
<path d="M690 335 c-14 -17 -7 -45 12 -45 8 0 13 13 14 30 1 33 -7 38 -26 15z"/>
<path d="M610 131 c0 -10 7 -22 16 -25 22 -8 24 -5 17 22 -7 27 -33 29 -33 3z"/>
</g>
</svg>
