<?xml version="1.0" standalone="no"?>
<!DOCTYPE svg PUBLIC "-//W3C//DTD SVG 20010904//EN"
 "http://www.w3.org/TR/2001/REC-SVG-20010904/DTD/svg10.dtd">
<svg version="1.0" xmlns="http://www.w3.org/2000/svg"
 width="150.000000pt" height="150.000000pt" viewBox="0 0 150.000000 150.000000"
 preserveAspectRatio="xMidYMid meet">

<g transform="translate(0.000000,150.000000) scale(0.100000,-0.100000)"
fill="#000000" stroke="none">
<path d="M736 1400 c-64 -19 -136 -118 -136 -186 0 -72 35 -127 88 -141 13 -3
49 -3 79 1 l56 7 -6 -46 c-5 -35 -19 -60 -62 -113 -121 -148 -136 -168 -142
-189 -8 -36 3 -53 37 -53 34 0 39 -16 16 -58 -57 -106 -66 -152 -30 -152 13 0
13 -5 -5 -34 -28 -44 -26 -82 3 -121 20 -25 23 -40 19 -72 -13 -100 45 -130
269 -140 110 -5 146 -3 186 10 37 12 62 14 102 8 50 -8 145 -1 197 14 28 9 35
28 19 50 -12 17 -16 16 -70 -4 -52 -19 -146 -29 -146 -15 0 3 5 14 10 25 15
26 -10 60 -53 75 -58 19 -48 55 44 164 62 74 71 93 60 123 -13 32 -42 41 -86
27 -31 -10 -38 -9 -62 9 -14 12 -49 28 -77 37 -110 33 -124 46 -141 127 -3 16
-16 32 -30 39 -33 15 -45 2 -17 -18 25 -17 28 -50 8 -76 -16 -22 -42 -22 -76
-3 -14 8 -46 14 -72 15 -40 0 -48 3 -48 19 0 21 34 74 89 141 65 78 89 123
102 190 13 68 45 136 88 184 31 35 111 73 168 82 58 8 171 -20 228 -58 43 -28
54 -40 99 -102 22 -31 36 -25 36 14 0 36 -68 98 -155 143 -51 26 -74 31 -151
35 -108 5 -147 -5 -206 -55 l-42 -35 -24 52 c-19 41 -31 55 -65 71 -46 20 -58
21 -101 9z m121 -75 c46 -53 43 -98 -12 -162 -77 -90 -185 -59 -185 53 0 43
12 67 56 111 31 30 38 33 77 29 29 -4 49 -13 64 -31z m-59 -676 c29 -12 37
-12 63 4 30 17 32 17 59 -6 31 -27 69 -43 121 -52 41 -6 89 -39 89 -60 0 -24
-26 -33 -125 -39 l-100 -7 -39 35 c-21 20 -46 37 -55 38 -37 4 -58 5 -88 7
-38 1 -41 14 -16 66 19 39 26 40 91 14z m439 -95 c8 -20 -10 -51 -59 -105 -47
-50 -91 -138 -86 -171 2 -18 14 -26 51 -37 33 -10 47 -19 45 -30 -5 -24 -65
-59 -116 -67 -64 -10 -311 10 -347 27 -27 13 -31 20 -35 71 -3 37 -13 67 -27
87 -17 22 -20 32 -11 37 7 5 68 7 136 7 185 -2 234 15 332 118 74 77 105 94
117 63z m-537 -27 c0 -17 -20 -37 -37 -37 -13 0 -18 32 -6 43 11 12 43 7 43
-6z m65 -17 c-17 -33 -32 -38 -41 -15 -8 20 13 45 37 45 18 0 19 -2 4 -30z
m68 -11 c-6 -6 -18 -9 -26 -7 -11 2 -12 9 -5 27 8 23 10 24 25 8 13 -12 14
-20 6 -28z m-103 -35 c0 -2 -7 -4 -15 -4 -8 0 -15 4 -15 10 0 5 7 7 15 4 8 -4
15 -8 15 -10z m148 -7 c3 -16 1 -17 -16 -8 -10 5 -32 8 -47 5 -16 -3 -35 -2
-44 2 -11 5 -2 10 29 15 62 9 74 7 78 -14z m197 12 c-4 -6 -13 -8 -21 -5 -7 3
-16 1 -20 -5 -3 -5 -14 -7 -24 -4 -10 3 -21 1 -25 -5 -9 -15 -25 -12 -19 4 6
15 31 21 87 25 18 0 26 -3 22 -10z m-135 -14 c0 -8 -9 -15 -20 -15 -11 0 -20
7 -20 15 0 8 9 15 20 15 11 0 20 -7 20 -15z m-240 -35 c0 -23 -4 -30 -20 -30
-14 0 -20 7 -20 23 0 27 7 37 27 37 8 0 13 -12 13 -30z m65 9 c8 -23 -7 -45
-24 -35 -12 8 -15 39 -4 49 12 12 22 7 28 -14z m95 -9 c8 -16 8 -22 -4 -26
-16 -6 -56 12 -56 25 0 27 45 28 60 1z m154 11 c3 -5 -1 -11 -9 -15 -15 -6
-29 7 -18 18 9 9 21 8 27 -3z m-54 -23 c0 -13 -63 -6 -67 8 -2 6 10 8 32 6 19
-2 35 -8 35 -14z"/>
<path d="M1113 444 c-33 -42 -106 -82 -165 -89 -23 -3 -57 -15 -75 -26 -28
-18 -43 -20 -96 -14 -34 3 -71 9 -82 12 -18 5 -18 4 -5 -11 9 -12 24 -16 42
-14 16 3 33 -1 39 -9 19 -22 103 -9 120 19 6 9 117 44 149 47 8 1 6 -113 -3
-126 -13 -21 10 -23 28 -3 15 17 16 26 7 61 -13 51 -2 76 57 134 44 42 50 55
26 55 -8 0 -27 -16 -42 -36z"/>
<path d="M1125 1107 c-11 -7 -35 -22 -53 -35 -19 -14 -40 -21 -51 -17 -30 9
-100 -24 -116 -56 -19 -36 -19 -53 1 -92 21 -40 31 -47 69 -47 44 0 92 33 100
69 6 30 12 34 73 46 17 4 32 11 32 17 0 6 -9 7 -22 3 -13 -4 -36 -8 -52 -9
-24 -1 -31 4 -36 24 -10 36 3 55 49 70 23 7 41 19 41 27 0 16 -8 16 -35 0z
m-91 -93 c9 -8 16 -20 16 -25 0 -13 -45 -29 -81 -29 -36 0 -40 31 -7 54 29 20
52 20 72 0z m6 -83 c0 -14 -62 -40 -79 -33 -20 7 -31 23 -25 34 7 11 104 10
104 -1z"/>
<path d="M1136 855 c-10 -49 -64 -90 -111 -82 -40 7 -48 -9 -9 -19 65 -16 154
47 154 109 0 40 -27 34 -34 -8z"/>
<path d="M1058 710 c-18 -16 -36 -30 -40 -30 -5 0 -8 -5 -8 -11 0 -6 8 -8 20
-4 10 3 29 1 41 -5 47 -26 102 26 69 65 -19 23 -45 18 -82 -15z m60 -7 c-5
-25 -28 -28 -28 -4 0 12 6 21 16 21 9 0 14 -7 12 -17z"/>
</g>
</svg>
