<?xml version="1.0" standalone="no"?>
<!DOCTYPE svg PUBLIC "-//W3C//DTD SVG 20010904//EN"
 "http://www.w3.org/TR/2001/REC-SVG-20010904/DTD/svg10.dtd">
<svg version="1.0" xmlns="http://www.w3.org/2000/svg"
 width="150.000000pt" height="150.000000pt" viewBox="0 0 150.000000 150.000000"
 preserveAspectRatio="xMidYMid meet">

<g transform="translate(0.000000,150.000000) scale(0.100000,-0.100000)"
fill="#000000" stroke="none">
<path d="M1150 1468 c-54 -11 -66 -11 -148 -2 -41 4 -67 3 -76 -5 -9 -8 -26
-9 -54 -3 -49 12 -102 7 -139 -11 -19 -9 -42 -11 -73 -6 -99 15 -182 -27 -219
-112 -11 -24 -24 -78 -30 -119 -9 -66 -9 -96 -3 -147 2 -16 73 -53 107 -55 31
-3 31 -9 1 -39 -13 -14 -31 -49 -40 -79 -8 -30 -29 -99 -46 -154 -21 -69 -30
-119 -30 -166 0 -80 17 -109 67 -113 39 -2 39 -6 13 -49 -24 -39 -26 -76 -5
-85 14 -5 14 -8 0 -29 -17 -27 -20 -76 -5 -104 7 -13 7 -21 0 -25 -12 -8 -2
-85 14 -102 36 -38 309 -55 540 -33 116 11 151 24 181 64 11 14 27 26 35 26
10 0 11 3 3 8 -8 5 -8 19 2 57 l14 50 0 -73 c1 -67 3 -73 25 -83 17 -8 46 -9
93 -3 80 11 84 30 5 26 -94 -4 -105 15 -82 153 7 40 6 61 0 63 -20 7 -40 61
-40 107 0 56 39 115 75 115 31 0 85 39 107 77 15 25 17 42 12 84 -9 64 -36 95
-90 104 -67 11 -67 12 -60 55 6 36 4 40 -19 46 -14 3 -37 20 -51 37 -22 27
-25 37 -20 74 8 62 27 93 85 137 35 26 51 45 51 61 0 12 9 30 20 40 11 10 20
23 20 30 0 7 9 20 21 31 25 22 49 66 49 89 0 50 -112 89 -184 65 -20 -6 -43
-7 -57 -2 -13 4 -44 4 -69 0z m238 -44 c28 -19 28 -45 1 -70 -12 -10 -30 -36
-40 -56 -22 -43 -53 -55 -102 -41 -40 11 -47 48 -21 105 30 67 110 98 162 62z
m-258 -8 c0 -2 -7 -7 -16 -10 -8 -3 -12 -2 -9 4 6 10 25 14 25 6z m-465 -16
c4 -6 -7 -10 -25 -10 -63 0 -125 -43 -164 -115 -15 -26 -16 -27 -10 -5 18 70
65 119 121 130 56 11 71 11 78 0z m102 -26 c-21 -14 -41 -24 -43 -21 -6 5 57
47 71 47 5 0 -8 -12 -28 -26z m81 4 c-3 -7 -14 -15 -26 -18 -61 -14 -111 -80
-139 -180 l-12 -45 3 40 c7 82 67 172 134 201 36 16 45 17 40 2z m91 -36 c-19
-21 -36 -37 -38 -36 -7 6 50 74 61 74 6 0 -5 -17 -23 -38z m-293 21 c-8 -8
-13 -10 -46 -12 -11 0 -28 -9 -39 -20 -20 -20 -58 -124 -71 -199 -8 -41 -9
-37 -6 33 1 48 9 92 18 110 20 38 58 81 78 88 23 8 74 8 66 0z m350 -13 c-50
-25 -54 -25 -25 0 13 10 33 19 44 19 14 0 7 -6 -19 -19z m-166 -10 c0 -5 -5
-10 -11 -10 -7 0 -27 -17 -45 -37 -18 -21 -33 -33 -33 -28 0 14 29 47 59 68
29 20 30 20 30 7z m-195 -10 c-3 -5 -11 -10 -18 -10 -6 0 -24 -12 -39 -27 -34
-33 -38 -12 -3 22 23 24 73 36 60 15z m358 -25 c-15 -19 -31 -35 -36 -35 -11
0 20 57 35 63 28 11 28 6 1 -28z m-57 -21 c-4 -9 -9 -15 -11 -12 -3 3 -3 13 1
22 4 9 9 15 11 12 3 -3 3 -13 -1 -22z m104 -19 c-6 -30 -8 -33 -9 -13 -1 25 8
62 14 56 2 -2 -1 -21 -5 -43z m-420 30 c0 -2 -10 -10 -22 -16 -21 -11 -22 -11
-9 4 13 16 31 23 31 12z m570 -43 c0 -4 -13 -20 -30 -35 -31 -30 -39 -61 -17
-70 17 -6 68 15 86 36 15 19 41 23 41 7 0 -6 -19 -30 -42 -53 -24 -24 -52 -59
-63 -78 -26 -43 -76 -62 -120 -45 -27 11 -30 17 -33 62 -3 45 1 54 30 86 31
34 123 98 140 98 4 0 8 -3 8 -8z m-213 -24 c-3 -8 -6 -5 -6 6 -1 11 2 17 5 13
3 -3 4 -12 1 -19z m-443 -37 c-4 -17 -9 -30 -11 -27 -3 2 -2 19 2 36 4 17 9
30 11 27 2 -2 1 -18 -2 -36z m696 29 c0 -13 -49 -44 -57 -36 -9 8 27 46 44 46
7 0 13 -4 13 -10z m90 -5 c0 -8 -7 -15 -15 -15 -16 0 -20 12 -8 23 11 12 23 8
23 -8z m-608 -47 c-6 -6 -7 0 -4 19 5 21 7 23 10 9 2 -10 0 -22 -6 -28z m165
20 c-3 -8 -6 -5 -6 6 -1 11 2 17 5 13 3 -3 4 -12 1 -19z m-286 -35 c-12 -20
-14 -14 -5 12 4 9 9 14 11 11 3 -2 0 -13 -6 -23z m134 -55 l59 -3 -3 -47 c-3
-48 8 -77 40 -112 15 -15 32 -20 75 -20 52 -1 57 1 84 34 25 31 34 35 77 35
26 1 60 4 75 9 23 7 27 5 33 -22 6 -30 43 -71 83 -91 15 -8 22 -21 22 -42 0
-24 -7 -34 -36 -51 -47 -28 -84 -103 -77 -157 3 -24 -1 -49 -11 -69 -9 -17
-16 -44 -16 -61 0 -33 23 -46 73 -43 28 2 28 2 21 -45 -3 -27 -7 -49 -8 -49
-8 -9 -153 -15 -331 -14 -258 2 -228 2 -290 -4 -87 -9 -93 -2 -57 72 14 27 22
32 52 32 93 0 160 49 160 116 0 42 -15 74 -35 74 -12 0 -14 -10 -9 -52 5 -47
3 -55 -18 -75 -19 -18 -38 -22 -107 -25 -108 -5 -111 -3 -111 113 0 138 66
349 124 400 14 12 26 37 30 61 8 52 15 62 30 49 6 -5 38 -11 71 -13z m160 3
c3 -5 1 -12 -5 -16 -5 -3 -10 1 -10 9 0 18 6 21 15 7z m85 -21 c0 -5 -4 -10
-10 -10 -5 0 -10 5 -10 10 0 6 5 10 10 10 6 0 10 -4 10 -10z m-60 -10 c0 -5
-5 -10 -11 -10 -5 0 -7 5 -4 10 3 6 8 10 11 10 2 0 4 -4 4 -10z m-50 -10 c0
-5 -5 -10 -11 -10 -5 0 -7 5 -4 10 3 6 8 10 11 10 2 0 4 -4 4 -10z m84 -21
c-3 -5 -10 -7 -15 -3 -5 3 -7 10 -3 15 3 5 10 7 15 3 5 -3 7 -10 3 -15z m-54
2 c0 -6 -4 -13 -10 -16 -5 -3 -10 1 -10 9 0 9 5 16 10 16 6 0 10 -4 10 -9z
m30 -31 c0 -5 -4 -10 -10 -10 -5 0 -10 5 -10 10 0 6 5 10 10 10 6 0 10 -4 10
-10z m468 -262 c28 -27 44 -82 32 -113 -28 -73 -158 -89 -135 -15 3 11 2 20
-4 20 -14 0 -25 -39 -22 -80 2 -47 -35 -86 -73 -76 -32 8 -34 38 -7 82 12 19
17 41 14 58 -7 33 14 111 35 128 8 7 31 18 51 24 41 12 74 3 109 -28z m-338
-458 c0 -40 -15 -76 -35 -84 -28 -10 -192 -26 -209 -20 -9 3 -16 15 -16 25 0
29 50 99 74 104 31 7 116 11 154 6 28 -3 32 -7 32 -31z m160 5 c0 -63 -21
-134 -48 -163 -45 -47 -156 -66 -398 -67 -212 0 -254 8 -254 46 0 19 -4 19
349 39 185 11 206 15 232 46 14 18 15 20 17 71 2 41 25 63 68 63 32 0 34 -2
34 -35z m-650 21 c0 -2 -11 -28 -24 -57 -23 -51 -24 -53 -31 -27 -7 26 8 66
29 80 12 8 26 10 26 4z m230 -3 c0 -14 -35 -82 -42 -83 -10 0 -11 74 -1 83 8
9 43 9 43 0z m-78 -48 c1 -25 2 -52 2 -62 1 -9 -8 -18 -19 -19 -39 -7 -135 -8
-141 -1 -10 10 15 74 41 101 19 21 33 26 70 26 l45 0 2 -45z m558 15 c0 -5 -5
-10 -11 -10 -5 0 -7 5 -4 10 3 6 8 10 11 10 2 0 4 -4 4 -10z"/>
<path d="M1085 899 c-5 -16 -10 -18 -21 -8 -17 14 -40 -1 -50 -33 -5 -16 -8
-17 -14 -7 -11 16 -28 3 -53 -40 -15 -26 -16 -31 -3 -31 8 0 20 8 25 18 7 12
10 13 11 3 0 -19 40 16 40 35 0 7 4 15 10 19 5 3 5 -7 -2 -25 -13 -39 -3 -52
13 -16 8 17 15 23 20 15 4 -8 15 4 28 31 12 24 21 47 21 52 0 17 -19 7 -25
-13z"/>
<path d="M619 891 c-46 -14 -70 -31 -62 -44 4 -7 6 -19 5 -28 -1 -8 9 -27 22
-42 22 -23 33 -27 82 -27 64 0 118 26 130 63 7 22 7 21 16 -3 12 -33 11 -254
-1 -305 -11 -42 -7 -55 10 -38 19 19 27 80 28 206 2 156 -9 181 -89 208 -57
20 -98 23 -141 10z m131 -37 c24 -14 24 -14 -15 -8 -22 4 -56 7 -77 7 -20 0
-35 4 -32 9 9 13 97 8 124 -8z m3 -31 c26 -16 -35 -43 -100 -43 -33 0 -70 27
-56 41 18 17 129 19 156 2z"/>
<path d="M1106 852 c-19 -54 -19 -52 -6 -52 5 0 14 18 20 40 13 49 25 53 17 5
-3 -19 -2 -35 3 -35 12 0 16 9 24 51 6 34 5 37 -18 37 -21 0 -28 -8 -40 -46z"/>
<path d="M1040 732 c-81 -42 -106 -179 -45 -242 16 -17 35 -28 41 -26 7 3 18
-2 24 -10 16 -18 34 -18 49 0 8 10 7 19 -8 38 -13 15 -16 29 -11 38 5 9 1 28
-11 52 -17 34 -18 40 -5 53 8 8 24 15 35 15 27 0 39 39 17 55 -9 7 -16 20 -16
29 0 21 -27 20 -70 -2z m54 -37 c-4 -8 -15 -15 -26 -15 -17 0 -18 3 -8 15 7 8
19 15 26 15 8 0 11 -6 8 -15z m-65 -81 c-10 -19 -10 -27 -1 -36 7 -7 12 -19
12 -27 0 -8 7 -23 17 -33 9 -10 12 -18 6 -18 -27 0 -68 86 -56 118 3 9 11 23
17 31 16 21 21 -6 5 -35z"/>
</g>
</svg>
