<?xml version="1.0" standalone="no"?>
<!DOCTYPE svg PUBLIC "-//W3C//DTD SVG 20010904//EN"
 "http://www.w3.org/TR/2001/REC-SVG-20010904/DTD/svg10.dtd">
<svg version="1.0" xmlns="http://www.w3.org/2000/svg"
 width="150.000000pt" height="150.000000pt" viewBox="0 0 150.000000 150.000000"
 preserveAspectRatio="xMidYMid meet">

<g transform="translate(0.000000,150.000000) scale(0.100000,-0.100000)"
fill="#000000" stroke="none">
<path d="M750 1473 c-231 -24 -299 -61 -361 -199 -35 -77 -49 -160 -38 -222 7
-37 17 -55 51 -85 48 -43 127 -87 156 -87 36 0 32 -14 -10 -38 -58 -34 -76
-50 -107 -97 -30 -47 -50 -109 -58 -181 -4 -44 -2 -55 16 -73 11 -11 32 -21
46 -21 14 0 25 -4 25 -10 0 -5 -15 -10 -33 -10 -42 0 -57 -15 -57 -56 0 -23 9
-42 31 -63 17 -17 35 -31 40 -31 5 0 9 -6 9 -14 0 -26 30 -46 58 -41 92 18
105 18 100 4 -3 -10 -28 -15 -86 -19 -119 -7 -154 -39 -137 -126 3 -19 16 -43
28 -55 18 -17 30 -20 69 -15 26 4 63 13 83 22 42 17 133 23 190 12 22 -4 94
-10 160 -14 153 -8 288 11 371 53 29 15 33 15 55 0 26 -19 74 -23 84 -7 3 6
-5 14 -19 20 -54 20 -72 124 -32 185 13 20 11 23 -24 45 -32 20 -39 31 -46 69
-3 25 -9 60 -12 76 -11 57 -6 340 7 430 24 171 72 318 142 433 22 35 39 66 39
68 0 12 -24 1 -46 -21 l-25 -25 -37 29 c-69 54 -132 65 -377 67 -121 0 -236
-1 -255 -3z m518 -48 c65 -16 122 -58 122 -88 0 -34 -47 -127 -64 -127 -8 0
-22 15 -31 33 -33 70 -108 89 -350 88 -93 0 -179 -2 -190 -4 -11 -3 -45 -8
-75 -12 -74 -10 -96 -20 -149 -63 l-45 -37 24 35 c54 76 120 106 251 115 53 4
103 11 110 17 9 6 -15 7 -68 3 -169 -12 -207 -24 -277 -85 -34 -30 -59 -77
-52 -95 3 -8 -5 -38 -17 -67 -49 -118 -63 -117 -47 3 16 119 50 184 120 231
73 49 110 57 302 64 90 4 165 8 168 11 9 8 216 -9 268 -22z m-299 -144 c-20
-56 -43 -71 -115 -71 -63 0 -65 1 -58 23 22 72 23 72 131 76 l52 1 -10 -29z
m51 20 c0 -6 -11 -23 -24 -38 l-24 -28 11 38 c11 33 37 53 37 28z m198 -20
c23 -12 42 -23 42 -25 0 -3 3 -11 6 -20 5 -14 -11 -16 -136 -16 -135 0 -142 1
-128 18 8 9 20 30 26 46 13 28 14 29 80 24 41 -3 84 -14 110 -27z m-466 -11
c-5 -49 -28 -60 -120 -60 l-85 0 19 21 c25 28 49 40 109 55 67 16 81 14 77
-16z m33 -13 c-4 -15 -14 -32 -23 -39 -8 -7 -13 -8 -10 -3 2 6 10 25 17 43 15
38 25 37 16 -1z m542 -71 c-3 -8 -98 -11 -348 -11 -405 -1 -540 8 -259 16 360
10 611 8 607 -5z m-644 -50 c-7 -37 22 -46 149 -45 121 1 144 7 158 45 l10 24
153 0 c85 0 156 -3 160 -6 3 -3 0 -22 -7 -42 -12 -35 -13 -36 -76 -38 -57 -2
-65 -5 -92 -35 -16 -19 -42 -55 -59 -81 -20 -31 -38 -48 -51 -48 -16 0 -19 5
-14 24 4 17 1 26 -10 30 -26 10 -31 7 -44 -24 -10 -24 -19 -30 -42 -30 -28 0
-29 2 -23 30 6 27 4 30 -18 30 -20 0 -27 -6 -32 -30 -4 -16 -12 -30 -18 -30
-7 0 -23 -3 -35 -7 -24 -6 -24 -6 -8 25 20 40 20 42 -4 42 -13 0 -28 -13 -41
-34 -19 -33 -46 -45 -81 -38 -15 3 -14 8 8 39 47 70 25 95 -103 114 -92 14
-98 21 -68 79 15 30 16 30 104 30 88 0 88 0 84 -24z m135 -3 c-3 -14 -13 -18
-48 -18 -35 0 -45 4 -48 18 -3 14 4 17 48 17 44 0 51 -3 48 -17z m126 11 c25
-10 0 -34 -34 -34 -28 0 -55 21 -43 33 8 9 56 9 77 1z m346 -91 c0 -36 -25
-81 -53 -101 -35 -23 -141 -51 -153 -39 -8 8 11 37 58 91 24 27 45 41 73 46
55 11 75 11 75 3z m-711 -24 c35 -5 67 -12 72 -15 18 -11 8 -49 -22 -80 -29
-30 -34 -31 -63 -21 -40 13 -96 49 -119 75 -15 17 -17 24 -7 42 10 18 17 21
43 15 18 -3 61 -11 96 -16z m681 -129 c0 -26 -4 -30 -27 -30 -31 0 -71 19 -43
20 8 0 26 9 40 20 32 25 30 25 30 -10z m-216 -63 c-14 -25 -14 -37 -4 -70 10
-34 9 -45 -6 -73 -21 -39 -34 -42 -58 -15 -25 28 -27 78 -4 138 19 51 35 63
70 55 16 -4 16 -6 2 -35z m-89 11 c-4 -13 -12 -29 -18 -36 -9 -11 -12 -73 -7
-137 1 -11 -12 -69 -29 -130 -48 -172 -50 -230 -9 -287 15 -20 -11 -73 -55
-116 -27 -26 -33 -27 -130 -27 -56 -1 -125 -7 -153 -14 -82 -22 -127 2 -109
59 9 29 30 37 115 45 80 7 100 17 100 45 0 21 -15 35 -50 45 -14 4 -38 18 -53
31 -21 18 -41 24 -77 24 -46 0 -49 2 -55 30 -8 39 1 52 31 44 19 -5 30 1 51
24 24 28 31 31 70 25 73 -10 117 39 79 90 -16 21 -56 23 -56 2 0 -8 5 -15 10
-15 6 0 10 -9 10 -20 0 -17 -5 -19 -44 -14 -29 4 -54 2 -73 -8 -39 -19 -73 -5
-73 31 1 46 55 186 88 227 63 78 109 91 375 102 67 3 68 2 62 -20z m273 -3
c19 -5 22 -12 22 -49 0 -52 -5 -58 -39 -44 -14 5 -52 10 -83 11 -50 0 -57 3
-62 23 -16 61 47 84 162 59z m3 -120 c5 -4 9 -19 9 -35 0 -27 -1 -28 -40 -23
-46 6 -74 -11 -84 -53 -5 -17 -13 -24 -32 -24 -14 0 -36 -11 -49 -25 -24 -23
-25 -23 -25 -3 0 37 59 147 88 162 26 14 111 14 133 1z m-29 -75 c15 0 4 -53
-29 -145 -37 -101 -50 -125 -68 -125 -29 0 -29 51 0 139 36 113 52 144 71 137
9 -3 20 -6 26 -6z m-204 -9 c10 -6 9 -23 -9 -86 -15 -57 -20 -98 -17 -152 3
-71 5 -76 38 -103 19 -16 32 -31 29 -34 -11 -12 -56 -10 -87 3 -61 25 -67 140
-17 299 25 79 35 91 63 73z m252 -61 c0 -5 -4 -10 -10 -10 -5 0 -10 5 -10 10
0 6 5 10 10 10 6 0 10 -4 10 -10z m-165 -47 c-3 -21 -11 -42 -15 -47 -11 -11
-40 10 -40 28 0 20 30 56 47 56 12 0 14 -7 8 -37z m168 -14 c15 -23 1 -64 -26
-76 -39 -18 -48 -4 -30 50 16 49 36 58 56 26z m-198 -111 c1 -18 9 -36 20 -45
26 -19 75 -9 96 18 12 16 73 47 96 49 7 0 23 -72 18 -80 -14 -23 -93 -53 -150
-57 -51 -4 -65 -1 -95 19 -19 13 -37 34 -41 48 -9 32 -11 94 -3 113 9 25 58
-28 59 -65z m275 -93 c0 -16 -9 -19 -34 -9 -20 8 -11 24 15 24 10 0 19 -7 19
-15z m-792 -28 c2 -12 -3 -17 -17 -17 -15 0 -21 6 -21 21 0 25 33 22 38 -4z
m774 -14 c19 -97 -69 -173 -200 -173 -52 0 -76 19 -76 63 0 70 62 115 92 67
23 -38 82 -20 82 25 0 30 8 35 56 35 33 0 43 -4 46 -17z m-127 -12 c7 -12 -12
-24 -25 -16 -11 7 -4 25 10 25 5 0 11 -4 15 -9z m-254 -66 c-24 -42 -71 -95
-83 -95 -6 0 4 17 20 38 16 20 37 52 46 70 9 18 21 30 27 26 6 -3 2 -19 -10
-39z m79 14 c0 -23 -73 -102 -105 -113 -14 -5 -7 6 20 36 22 23 43 45 46 48 3
3 11 15 18 28 15 27 21 28 21 1z m8 -90 c16 -26 13 -29 -32 -35 -40 -5 -43 1
-20 34 19 28 35 28 52 1z"/>
<path d="M895 1380 c3 -5 8 -10 11 -10 2 0 4 5 4 10 0 6 -5 10 -11 10 -5 0 -7
-4 -4 -10z"/>
<path d="M940 1380 c0 -5 5 -10 10 -10 6 0 10 5 10 10 0 6 -4 10 -10 10 -5 0
-10 -4 -10 -10z"/>
<path d="M1001 1376 c11 -9 99 -15 99 -6 0 6 -23 10 -52 10 -28 0 -49 -2 -47
-4z"/>
<path d="M1146 1361 c11 -11 94 -19 94 -10 0 9 -38 19 -74 19 -18 0 -26 -4
-20 -9z"/>
<path d="M1276 1324 c17 -16 35 -38 41 -49 7 -11 15 -16 19 -12 10 10 -49 81
-72 86 -14 2 -11 -4 12 -25z"/>
<path d="M810 794 c-21 -7 -44 -8 -57 -3 -20 7 -135 -5 -155 -17 -15 -9 -8
-26 10 -22 9 2 24 -5 32 -15 12 -15 29 -19 73 -18 60 0 100 16 131 50 26 29
10 40 -34 25z m-30 -33 c0 -11 -73 -21 -100 -14 -40 11 -18 23 40 23 33 0 60
-4 60 -9z"/>
<path d="M685 534 c-5 -43 -3 -59 7 -65 22 -14 30 -5 34 36 2 22 6 50 9 63 4
18 1 22 -19 22 -21 0 -24 -5 -31 -56z m22 -41 c-3 -10 -5 -2 -5 17 0 19 2 27
5 18 2 -10 2 -26 0 -35z"/>
<path d="M760 565 c0 -1 -5 -26 -10 -55 -11 -60 -5 -70 43 -70 34 0 36 17 2
26 -21 5 -25 12 -24 43 2 34 2 34 6 6 5 -33 18 -45 48 -45 19 1 19 2 -3 20
-19 15 -22 26 -17 49 5 26 3 29 -19 29 -15 0 -26 -2 -26 -3z"/>
</g>
</svg>
