<?xml version="1.0" standalone="no"?>
<!DOCTYPE svg PUBLIC "-//W3C//DTD SVG 20010904//EN"
 "http://www.w3.org/TR/2001/REC-SVG-20010904/DTD/svg10.dtd">
<svg version="1.0" xmlns="http://www.w3.org/2000/svg"
 width="150.000000pt" height="150.000000pt" viewBox="0 0 150.000000 150.000000"
 preserveAspectRatio="xMidYMid meet">

<g transform="translate(0.000000,150.000000) scale(0.100000,-0.100000)"
fill="#000000" stroke="none">
<path d="M1195 1462 c-11 -2 -36 -9 -55 -17 -25 -9 -67 -11 -145 -8 -127 6
-264 -16 -298 -48 -12 -10 -24 -19 -27 -19 -4 0 -13 -11 -20 -25 -16 -29 -40
-33 -40 -7 0 30 -41 58 -103 71 -51 11 -64 10 -106 -5 -46 -16 -51 -16 -91 0
-98 39 -180 15 -220 -64 -23 -45 -25 -78 -8 -115 10 -21 9 -31 -5 -55 -14 -23
-16 -37 -8 -70 10 -44 28 -64 74 -82 15 -5 26 -13 24 -17 -35 -65 -58 -129
-65 -183 -10 -80 -2 -92 65 -103 67 -11 57 -40 -25 -75 -57 -25 -73 -53 -54
-95 11 -24 62 -42 83 -29 9 5 10 2 6 -10 -4 -10 -7 -31 -7 -47 0 -17 -5 -29
-13 -29 -7 0 -22 -6 -33 -14 -15 -12 -17 -17 -6 -27 18 -19 15 -35 -14 -98
-33 -69 -40 -124 -21 -175 21 -59 55 -69 262 -70 94 -1 207 4 252 11 59 8 92
9 120 1 20 -5 79 -8 130 -6 73 3 99 8 120 24 24 18 31 18 53 7 72 -37 265 12
300 77 15 27 30 25 30 -4 0 -32 45 -64 104 -75 46 -8 46 -8 46 19 0 25 -4 29
-47 36 -60 11 -81 44 -63 99 20 60 65 76 97 36 11 -14 12 -12 13 13 0 16 -14
51 -31 77 -22 36 -33 68 -40 121 -11 79 -3 406 11 503 5 33 12 98 15 145 4 47
15 118 26 158 24 91 25 109 3 92 -8 -8 -14 -9 -13 -4 5 26 -5 37 -46 55 -42
19 -186 38 -230 31z m183 -47 c47 -14 70 -30 60 -41 -3 -2 -25 3 -49 11 -65
23 -177 18 -240 -11 -60 -28 -59 -28 -59 -10 0 54 172 85 288 51z m-385 -11
c11 -11 -35 -74 -55 -74 -11 0 -18 3 -16 8 3 4 11 22 18 40 13 29 37 41 53 26z
m-143 -12 c0 -4 -7 -18 -16 -30 -13 -19 -24 -22 -80 -22 -35 0 -64 4 -64 9 0
10 61 41 80 41 7 0 9 -8 5 -22 l-6 -23 18 21 c23 27 63 44 63 26z m75 -9 c-4
-10 -10 -26 -12 -36 -4 -13 -13 -17 -35 -15 -31 4 -33 11 -10 46 18 28 68 32
57 5z m155 12 c0 -9 -25 -60 -33 -66 -10 -8 -67 1 -67 11 0 4 7 13 15 20 8 7
15 19 15 26 0 9 12 14 35 14 19 0 35 -2 35 -5z m-828 -22 c10 -9 18 -23 18
-30 0 -8 6 -13 13 -10 6 2 11 11 11 20 -1 13 7 15 47 10 32 -4 61 0 89 11 88
35 150 10 150 -59 0 -59 -79 -117 -147 -109 -29 4 -33 1 -33 -19 0 -34 -31
-57 -81 -61 -50 -3 -89 -21 -89 -40 0 -8 -7 -19 -15 -26 -13 -10 -15 -9 -15 9
0 11 -5 21 -12 21 -6 0 -19 7 -29 16 -20 18 -39 11 -39 -14 0 -13 2 -13 16 4
14 17 15 17 10 1 -3 -11 1 -26 10 -35 20 -20 4 -28 -25 -13 -20 11 -37 63 -26
81 3 5 14 10 25 10 26 0 35 31 11 37 -11 3 -20 12 -20 21 0 10 -3 36 -7 59 -5
35 -4 44 11 49 12 5 23 0 36 -17 10 -13 21 -20 26 -15 4 4 -7 20 -25 36 -31
26 -32 29 -17 44 19 19 40 9 50 -25 4 -10 11 -19 16 -19 15 0 10 36 -6 50 -8
7 -12 16 -9 21 8 14 36 10 56 -8z m1127 1 c52 -15 53 -16 47 -46 -3 -17 -6
-36 -6 -44 0 -10 -21 -13 -92 -11 -51 0 -123 -5 -160 -13 -55 -11 -70 -11 -82
0 -21 17 -20 30 7 63 46 58 181 82 286 51z m-569 -68 c0 -7 -9 -21 -19 -30
-17 -15 -31 -17 -95 -11 -71 7 -75 9 -65 27 15 27 38 33 113 30 45 -3 66 -8
66 -16z m93 8 c8 -9 -20 -69 -32 -68 -6 1 -24 2 -41 3 l-30 1 17 35 c14 29 22
35 48 35 18 0 34 -3 38 -6z m130 -3 c23 -1 22 -24 -3 -46 -22 -20 -120 -34
-120 -18 0 6 5 24 11 40 9 28 13 30 52 28 23 -2 50 -3 60 -4z m-359 -70 c2 -3
6 -18 10 -34 6 -26 5 -27 -21 -21 -65 16 -107 54 -72 66 16 5 78 -3 83 -11z
m409 5 c17 -13 16 -15 -9 -35 -32 -25 -42 -26 -66 -4 -18 16 -18 18 14 35 40
21 39 21 61 4z m319 -31 c-5 -49 -8 -52 -33 -37 -59 37 -143 22 -259 -48 -61
-36 -82 -54 -127 -106 -25 -28 -67 -113 -60 -120 3 -3 13 9 23 28 33 63 95
138 136 164 72 46 162 84 197 84 52 0 109 -20 114 -41 7 -27 -6 -31 -47 -14
-57 24 -115 19 -184 -16 -68 -33 -111 -79 -164 -174 -36 -64 -76 -91 -100 -67
-20 20 -14 83 11 133 26 52 139 175 186 204 59 37 136 54 225 52 l85 -2 -3
-40z m-631 20 c19 -2 68 -7 109 -10 41 -3 83 -8 92 -11 18 -5 34 -41 23 -52
-9 -9 -199 -8 -245 1 -29 6 -37 13 -46 42 -12 39 -8 48 17 40 9 -3 32 -7 50
-10z m-168 -43 l36 -17 -19 -25 -19 -25 -25 24 c-25 23 -36 61 -18 61 5 0 25
-8 45 -18z m-143 -16 c0 -2 -7 -6 -15 -10 -8 -3 -15 -1 -15 4 0 6 7 10 15 10
8 0 15 -2 15 -4z m77 -15 c30 -48 165 -100 305 -116 l58 -6 -15 -28 c-7 -15
-19 -49 -26 -75 -11 -45 -11 -48 17 -77 15 -16 36 -29 47 -29 19 0 78 54 105
95 13 20 13 20 6 0 -3 -11 -17 -51 -31 -90 -63 -175 -78 -280 -62 -438 10 -94
19 -122 52 -148 l20 -17 -21 -11 c-14 -8 -24 -25 -28 -51 -6 -34 -11 -41 -43
-52 -39 -13 -165 -17 -193 -6 -17 7 -17 9 -1 43 l17 35 -32 33 c-31 32 -41 69
-24 93 4 6 28 21 54 34 120 59 82 200 -53 200 -40 0 -53 -5 -82 -32 -18 -18
-38 -41 -44 -52 -8 -15 -21 -18 -73 -17 -55 0 -71 6 -132 42 -59 36 -78 42
-145 48 -63 5 -78 9 -81 24 -9 47 132 57 180 13 52 -49 112 -86 140 -86 15 0
28 5 28 10 0 6 -12 10 -27 10 -17 0 -49 17 -84 45 -72 57 -123 79 -163 71
l-31 -6 28 22 c20 17 28 33 29 56 1 33 2 34 40 28 21 -3 56 -9 79 -12 50 -8
83 8 100 48 13 33 -1 72 -33 89 -22 12 -23 1 -3 -25 8 -11 15 -33 15 -48 0
-42 -35 -55 -102 -39 -29 7 -84 11 -123 9 -82 -4 -85 2 -64 91 30 128 63 170
177 222 66 30 166 91 177 109 10 16 29 12 42 -9z m116 -19 c-3 -12 -9 -22 -14
-22 -5 0 -3 11 3 25 13 30 20 28 11 -3z m123 -9 c7 -7 10 -23 7 -34 -5 -18
-11 -19 -47 -13 -46 7 -78 22 -73 32 2 4 7 14 10 24 5 13 15 15 49 11 24 -3
48 -12 54 -20z m31 -45 c-2 -13 -4 -5 -4 17 -1 22 1 32 4 23 2 -10 2 -28 0
-40z m173 43 c0 -11 -63 -65 -79 -68 -9 -1 -30 0 -47 3 -32 6 -33 10 -19 59 3
10 145 16 145 6z m-662 -29 c8 -6 1 -13 -23 -25 -20 -9 -38 -17 -40 -17 -10 0
-4 19 11 34 17 18 32 20 52 8z m1039 -11 c31 -12 51 -139 35 -221 l-10 -45 -1
48 c-1 43 -12 74 -39 115 -5 8 -27 18 -50 23 -60 13 -123 -16 -161 -76 -69
-109 -123 -352 -102 -455 13 -60 54 -115 96 -126 37 -9 115 38 148 90 31 50
33 56 12 56 -8 0 -17 -11 -21 -25 -9 -35 -81 -95 -114 -95 -15 0 -36 10 -47
23 -66 71 -69 149 -15 357 17 66 70 166 102 193 24 20 42 27 76 27 53 0 70
-20 80 -100 3 -30 14 -66 22 -80 13 -20 17 -54 17 -170 0 -197 -24 -265 -115
-321 -55 -34 -172 -49 -225 -29 -114 43 -83 499 49 724 38 66 109 99 196 92
36 -2 66 -5 67 -5z m-607 -567 c5 -5 -13 -7 -41 -6 -59 5 -94 -14 -114 -61
-12 -26 -14 -28 -15 -10 0 12 16 38 35 59 33 34 38 36 81 31 25 -2 50 -9 54
-13z m-455 -20 c48 -31 17 -68 -53 -62 -35 3 -37 5 -40 41 -2 36 -2 37 33 37
20 0 47 -7 60 -16z m476 -25 c5 -8 9 -28 9 -45 0 -35 -26 -63 -73 -79 -36 -12
-57 -45 -57 -93 0 -25 5 -35 19 -39 42 -11 34 -73 -13 -102 -28 -18 -52 -20
-192 -22 -87 0 -179 -4 -204 -8 -63 -10 -107 3 -123 37 -16 31 -15 91 0 125 6
12 19 41 29 65 16 40 20 43 53 42 54 -3 63 -1 56 11 -4 6 -30 9 -59 8 -39 -2
-51 0 -51 11 0 16 38 27 103 29 32 1 49 7 66 26 l23 25 19 -21 c11 -12 17 -32
16 -48 -4 -37 32 -61 90 -61 44 0 88 21 88 43 0 7 9 18 20 25 11 7 20 19 20
28 0 8 12 26 28 40 23 22 34 25 76 21 26 -2 52 -11 57 -18z m-221 -68 c0 -34
-29 -54 -72 -48 -45 6 -68 22 -68 48 0 17 8 19 70 19 62 0 70 -2 70 -19z m836
-51 c-28 -55 -48 -80 -65 -80 -16 0 -13 17 3 23 8 3 29 30 47 60 19 30 36 54
37 52 2 -2 -8 -27 -22 -55z m54 -32 c0 -4 -14 -15 -30 -23 -17 -9 -36 -27 -42
-40 -12 -26 -23 -31 -32 -16 -3 4 4 17 15 27 12 11 30 37 41 58 19 38 21 39
34 21 8 -10 14 -22 14 -27z m-420 -48 c0 -5 -5 -10 -11 -10 -5 0 -7 5 -4 10 3
6 8 10 11 10 2 0 4 -4 4 -10z m290 -31 c17 -32 -5 -76 -50 -99 -70 -35 -203
-44 -248 -16 -16 9 -15 48 1 68 6 8 22 18 34 21 19 4 22 2 18 -16 -11 -43 78
-64 150 -37 33 13 50 47 34 66 -10 13 -10 17 2 25 24 15 48 10 59 -12z m-76
-42 c-6 -17 -15 -21 -73 -32 -23 -5 -31 -4 -27 4 4 6 18 11 31 11 14 0 32 10
42 24 19 26 38 21 27 -7z m-49 14 c-6 -5 -20 -12 -32 -16 -17 -5 -23 -2 -23 9
0 11 10 16 32 16 19 0 28 -4 23 -9z m-72 -21 c6 -22 0 -25 -22 -11 -7 5 -10
14 -7 20 11 17 23 13 29 -9z"/>
<path d="M467 1363 c-12 -12 -7 -33 8 -33 17 0 19 9 7 28 -5 7 -11 9 -15 5z"/>
<path d="M393 1343 c-17 -6 -17 -33 0 -33 7 0 13 9 14 20 1 11 1 20 0 19 -1 0
-8 -3 -14 -6z"/>
<path d="M490 1285 c0 -8 7 -15 15 -15 8 0 15 7 15 15 0 8 -7 15 -15 15 -8 0
-15 -7 -15 -15z"/>
<path d="M290 1205 c-16 -19 -6 -45 17 -45 25 0 63 28 63 46 0 19 -64 19 -80
-1z m60 -10 c0 -2 -9 -9 -20 -15 -16 -9 -20 -8 -20 5 0 8 9 15 20 15 11 0 20
-2 20 -5z"/>
<path d="M1220 1353 c-47 -17 -100 -44 -106 -55 -5 -8 -2 -9 12 -3 92 40 130
47 184 37 30 -6 63 -13 73 -17 9 -4 17 -3 17 2 0 24 -138 51 -180 36z"/>
<path d="M390 1005 c0 -8 9 -19 20 -25 10 -6 28 -29 38 -53 31 -69 53 -82 137
-82 67 0 76 2 104 29 16 15 33 45 38 65 6 26 15 37 31 39 26 4 30 22 5 23 -10
0 -85 0 -168 -1 -85 -1 -162 3 -177 9 -23 8 -28 8 -28 -4z m310 -52 c0 -10
-11 -31 -24 -48 -22 -28 -29 -30 -91 -30 -59 0 -68 3 -85 25 -11 14 -20 35
-20 48 0 21 3 22 110 22 98 0 110 -2 110 -17z"/>
<path d="M472 708 c2 -48 7 -63 18 -63 12 0 15 13 15 60 0 50 -3 60 -18 63
-16 3 -18 -3 -15 -60z"/>
<path d="M547 723 c-3 -26 -3 -53 0 -60 7 -19 97 -17 117 3 23 23 10 36 -33
32 -35 -3 -36 -2 -33 30 2 18 -1 32 -7 32 -6 0 -11 -18 -11 -40 0 -37 2 -40
28 -41 l27 -1 -25 -7 c-34 -11 -45 2 -41 48 4 56 -15 60 -22 4z"/>
<path d="M644 590 c-49 -11 -126 -72 -111 -87 4 -3 24 10 46 30 48 43 75 52
138 42 80 -12 123 -57 123 -128 0 -41 -36 -97 -73 -115 -31 -15 -36 -32 -8
-32 27 0 71 39 87 76 21 50 18 126 -6 156 -34 43 -135 73 -196 58z"/>
<path d="M1173 844 c-11 -5 -23 -63 -42 -213 -10 -78 -3 -111 24 -111 15 0 23
36 35 149 0 2 20 0 44 -3 36 -6 45 -4 50 10 9 23 -1 32 -44 39 -48 8 -52 15
-41 65 13 58 5 76 -26 64z m11 -78 l-6 -54 41 -7 c23 -4 39 -11 36 -15 -3 -5
-12 -7 -20 -3 -30 11 -64 -6 -68 -35 -4 -28 4 107 9 143 3 25 3 25 9 25 3 0 2
-24 -1 -54z"/>
<path d="M650 432 c0 -30 20 -43 44 -30 21 12 21 12 -4 19 -25 7 -25 7 -2 8
31 1 18 21 -14 21 -16 0 -24 -6 -24 -18z"/>
<path d="M625 370 c-3 -5 -1 -10 4 -10 6 0 11 5 11 10 0 6 -2 10 -4 10 -3 0
-8 -4 -11 -10z"/>
<path d="M570 319 c0 -5 5 -7 10 -4 6 3 10 8 10 11 0 2 -4 4 -10 4 -5 0 -10
-5 -10 -11z"/>
<path d="M547 294 c-10 -10 -9 -44 2 -44 13 0 23 32 13 42 -5 5 -11 5 -15 2z"/>
<path d="M519 211 c-20 -16 -22 -23 -13 -38 6 -10 23 -19 37 -21 33 -4 53 28
37 58 -13 25 -31 25 -61 1z m46 -21 c-3 -5 -10 -10 -16 -10 -5 0 -9 5 -9 10 0
6 7 10 16 10 8 0 12 -4 9 -10z"/>
<path d="M168 209 c-22 -12 -23 -23 -2 -43 17 -18 44 -21 44 -6 0 6 -7 10 -15
10 -8 0 -15 7 -15 15 0 8 6 15 14 15 8 0 18 5 21 10 8 13 -25 12 -47 -1z"/>
</g>
</svg>
