<?xml version="1.0" standalone="no"?>
<!DOCTYPE svg PUBLIC "-//W3C//DTD SVG 20010904//EN"
 "http://www.w3.org/TR/2001/REC-SVG-20010904/DTD/svg10.dtd">
<svg version="1.0" xmlns="http://www.w3.org/2000/svg"
 width="150.000000pt" height="150.000000pt" viewBox="0 0 150.000000 150.000000"
 preserveAspectRatio="xMidYMid meet">

<g transform="translate(0.000000,150.000000) scale(0.100000,-0.100000)"
fill="#000000" stroke="none">
<path d="M389 1448 c-13 -4 -50 -14 -82 -24 -56 -16 -60 -16 -128 6 l-70 23
-27 -20 c-15 -11 -35 -34 -45 -51 -16 -28 -17 -34 -3 -66 9 -21 30 -45 51 -57
19 -12 35 -24 35 -28 0 -4 -12 -18 -26 -32 -62 -57 -98 -197 -74 -283 15 -56
65 -110 116 -126 48 -16 44 -43 -15 -100 -53 -50 -79 -116 -89 -216 -5 -61 12
-84 64 -84 27 0 37 -5 46 -25 8 -19 8 -28 -2 -40 -7 -8 -10 -25 -6 -39 5 -19
1 -26 -14 -31 -25 -8 -80 -101 -80 -136 0 -35 13 -44 87 -63 71 -19 167 -15
238 10 40 13 50 13 97 0 64 -18 156 -21 222 -7 39 9 61 8 110 -5 78 -21 137
-19 186 6 71 36 88 84 44 119 -30 23 -26 34 24 64 l30 17 -5 -58 c-10 -109 39
-156 160 -155 96 1 142 23 173 85 16 32 24 64 24 100 0 47 -3 56 -31 78 l-30
26 33 35 c76 81 108 323 68 509 -7 30 -16 60 -21 66 -5 6 0 39 12 80 32 112
40 201 22 248 -8 23 -17 50 -20 62 -7 29 -131 88 -183 86 -50 -2 -117 -29
-134 -54 -14 -20 -15 -19 -49 15 -41 40 -111 57 -238 57 -93 0 -143 -14 -168
-46 l-21 -26 -10 26 c-15 40 -70 60 -166 60 -44 1 -91 -2 -105 -6z m221 -57
c31 -22 37 -54 16 -87 -15 -23 -22 -24 -107 -24 l-91 0 6 30 c4 22 2 30 -9 30
-18 0 -30 -20 -27 -42 3 -16 -5 -18 -56 -18 -32 0 -82 -7 -111 -16 -52 -15
-53 -15 -92 11 -52 34 -65 67 -42 106 20 34 28 35 68 9 38 -25 77 -25 201 0
170 33 200 34 244 1z m392 -2 c60 -12 88 -37 88 -79 0 -37 -21 -52 -81 -58
l-51 -5 16 25 c20 31 13 53 -22 66 -78 30 -161 19 -180 -23 -18 -40 -55 -30
-67 17 -6 23 -2 30 27 48 27 16 50 20 125 20 51 0 116 -5 145 -11z m364 -28
c53 -24 74 -73 74 -173 0 -68 -25 -188 -39 -188 -4 0 -15 6 -25 13 -16 12 -17
18 -5 56 9 30 10 48 2 60 -6 9 -8 31 -5 49 3 26 -1 37 -29 63 -39 37 -77 34
-121 -8 -58 -56 -21 -152 46 -122 15 7 26 20 26 31 0 19 1 18 30 -2 21 -15 30
-30 30 -48 0 -41 -10 -49 -70 -54 -30 -3 -62 -8 -71 -12 -11 -5 -27 2 -45 18
-29 24 -29 25 -29 143 1 73 5 126 13 140 14 25 82 51 137 52 22 0 58 -8 81
-18z m-440 -55 c15 -12 17 -18 8 -33 -19 -29 -144 -14 -144 18 0 27 104 38
136 15z m-232 -21 c19 -14 18 -15 -12 -15 -30 0 -40 9 -25 23 9 10 15 8 37 -8z
m126 -40 c60 -5 109 -13 122 -21 4 -3 17 -7 29 -9 12 -2 41 -20 64 -40 34 -27
47 -47 59 -89 23 -78 21 -96 -9 -96 -14 0 -27 6 -29 13 -2 6 -9 32 -16 56 -6
24 -23 54 -37 67 -41 38 -135 62 -263 68 -63 3 -178 8 -255 12 -115 5 -150 3
-196 -10 -67 -20 -121 -69 -145 -132 -15 -38 -21 -44 -47 -44 -29 0 -29 0 -23
43 9 56 68 139 114 162 20 10 62 21 92 25 53 7 427 4 540 -5z m284 -41 c2 -22
1 -42 -1 -47 -5 -8 -83 53 -83 66 0 4 10 7 23 7 12 0 29 4 37 10 19 12 20 10
24 -36z m197 16 c23 -13 27 -45 4 -36 -25 9 -46 -4 -40 -25 8 -24 -23 -39 -36
-18 -10 17 -2 48 19 72 18 20 26 21 53 7z m-947 -112 c-7 -93 -9 -98 -35 -98
-18 0 -20 4 -15 38 3 20 7 55 8 77 2 40 12 55 35 55 9 0 10 -20 7 -72z m108
15 c-6 -92 -14 -108 -53 -108 -38 0 -35 -10 -31 111 l2 55 43 -3 42 -3 -3 -52z
m61 -5 c-7 -95 -11 -108 -34 -108 -19 0 -20 4 -14 68 9 89 13 102 35 102 16 0
18 -7 13 -62z m105 52 c8 0 12 -23 12 -80 l0 -80 -50 0 -51 0 7 68 c8 84 19
106 47 98 12 -3 28 -6 35 -6z m-337 -67 c-4 -83 -11 -92 -68 -87 -26 3 -49 7
-52 10 -11 11 46 100 78 121 19 13 37 21 39 18 3 -3 4 -31 3 -62z m422 54 c-1
-4 -5 -39 -9 -77 -6 -64 -9 -70 -29 -70 -22 0 -23 3 -18 68 2 37 6 73 9 80 4
14 51 13 47 -1z m90 0 c14 -10 17 -25 15 -77 l-3 -65 -44 -3 -43 -3 4 71 c5
85 27 110 71 77z m72 -77 c0 -68 -2 -75 -20 -75 -14 0 -20 6 -19 23 4 137 4
134 22 130 14 -3 17 -15 17 -78z m94 44 c25 -18 51 -71 51 -104 0 -18 -6 -20
-60 -20 l-60 0 0 39 c0 96 19 120 69 85z m196 -122 c0 -18 -20 -15 -23 4 -3
10 1 15 10 12 7 -3 13 -10 13 -16z m-746 -7 c377 -4 674 -14 683 -23 11 -11
-8 -82 -30 -111 -21 -29 -117 -65 -198 -74 -233 -28 -446 -16 -651 37 -113 28
-136 43 -151 94 -21 70 -14 97 22 86 11 -4 157 -8 325 -9z m937 -12 c14 -9 36
-38 50 -64 21 -42 24 -63 25 -156 1 -144 -18 -277 -47 -334 -27 -53 -58 -69
-136 -69 -104 0 -137 48 -145 215 -5 108 12 280 33 331 7 17 29 45 49 63 31
27 43 31 91 31 34 0 64 -6 80 -17z m-270 -205 c-7 -45 -38 -89 -128 -185 -32
-34 -58 -67 -58 -75 0 -14 58 46 128 132 25 30 46 56 47 58 1 2 3 -52 4 -120
1 -68 3 -138 4 -156 2 -26 -3 -36 -25 -50 -39 -23 -48 -6 -13 23 21 17 25 24
14 25 -8 0 -26 -11 -39 -25 -25 -27 -42 -33 -35 -12 4 9 -17 12 -88 11 -96 -1
-146 -15 -362 -98 -113 -44 -124 -46 -169 -35 -70 19 -114 22 -148 10 -36 -13
-59 -1 -41 21 6 7 11 32 11 56 1 33 -3 42 -16 42 -14 0 -13 4 6 18 28 21 129
22 124 0 -2 -7 0 -10 4 -6 4 4 13 3 20 -3 8 -6 55 -15 106 -19 99 -8 122 -14
151 -38 24 -21 34 -7 12 18 -23 25 -62 37 -164 50 -99 12 -111 19 -104 64 6
37 -15 66 -48 66 -22 0 -26 -18 -5 -26 42 -16 13 -68 -31 -57 -27 6 -94 -15
-109 -35 -16 -22 -48 -11 -53 18 -5 42 18 130 36 130 9 0 13 6 9 15 -3 8 0 28
6 45 7 23 15 30 26 25 9 -3 13 -3 10 1 -4 3 3 21 16 38 13 17 26 40 28 51 4
23 0 23 202 1 76 -9 189 -17 252 -19 63 -1 114 -6 114 -10 0 -4 -12 -19 -27
-32 -16 -13 -25 -27 -20 -31 4 -4 25 11 48 34 25 27 49 42 64 42 14 0 25 -2
25 -5 0 -2 -23 -26 -51 -52 -28 -26 -47 -49 -41 -51 5 -1 36 24 68 57 58 58
83 70 168 85 17 3 39 15 50 26 11 11 22 20 25 20 2 0 1 -19 -3 -42z m51 -415
l31 -27 -35 -23 c-18 -13 -37 -23 -41 -23 -4 0 -15 16 -24 35 -17 34 -17 35 5
50 28 20 27 20 64 -12z m-227 8 c0 -5 -16 -19 -35 -32 -31 -21 -45 -39 -30
-39 3 0 25 16 51 35 48 37 59 41 69 25 3 -5 15 -10 26 -10 16 0 7 -11 -33 -41
-84 -66 -122 -121 -53 -79 45 28 45 17 -2 -26 -40 -37 -41 -56 0 -24 32 25 40
25 32 0 -7 -23 -2 -25 24 -8 15 9 24 8 47 -7 l28 -18 -32 -28 c-27 -24 -41
-29 -87 -29 -30 0 -76 7 -102 16 -39 13 -56 14 -96 5 -68 -16 -157 -14 -231 5
-61 15 -68 15 -145 -5 -79 -21 -157 -25 -216 -12 -34 8 -35 22 -4 87 l19 40
118 -4 c117 -4 119 -4 243 38 68 23 158 56 199 73 41 16 89 33 105 37 42 11
105 12 105 1z m134 -60 c8 -12 -14 -28 -49 -36 l-30 -6 30 25 c32 28 41 31 49
17z m150 -36 c-4 -28 -2 -45 4 -45 11 0 22 33 22 68 0 17 6 22 25 22 25 0 26
-1 19 -50 -4 -31 -3 -50 4 -50 11 0 22 33 22 73 0 34 10 34 49 1 34 -28 39
-60 21 -125 -12 -41 -34 -59 -97 -77 -89 -26 -163 22 -163 106 0 53 47 111 98
121 2 1 0 -19 -4 -44z m-889 -25 c4 -6 -12 -10 -40 -10 -28 0 -44 4 -40 10 3
6 21 10 40 10 19 0 37 -4 40 -10z m695 -25 c-13 -16 -40 -20 -40 -7 0 14 12
22 33 22 16 0 17 -3 7 -15z"/>
<path d="M511 969 c-50 -10 -71 -24 -71 -49 0 -25 48 -40 145 -46 90 -6 128 7
133 44 3 18 -5 26 -43 42 -49 21 -91 23 -164 9z m144 -23 c71 -30 25 -62 -76
-52 -79 7 -99 13 -99 31 0 32 116 45 175 21z"/>
<path d="M1237 880 c-41 -32 -54 -76 -66 -212 -10 -114 -9 -126 9 -164 33 -66
106 -85 152 -39 24 24 32 51 59 192 14 78 5 162 -24 205 -29 43 -88 51 -130
18z m104 -29 c19 -20 29 -39 28 -58 l-1 -28 -10 31 c-13 41 -45 56 -84 39 -43
-18 -52 -34 -65 -115 -22 -146 11 -222 86 -194 18 7 45 55 56 99 7 28 7 29 8
4 1 -27 -23 -115 -38 -137 -15 -24 -81 -17 -109 11 -24 24 -25 31 -24 126 2
124 12 171 46 216 34 44 67 46 107 6z m-15 -56 c15 -22 15 -36 6 -111 -14
-106 -29 -139 -62 -139 -39 0 -57 67 -43 163 15 105 61 145 99 87z m41 -122
c-3 -10 -5 -4 -5 12 0 17 2 24 5 18 2 -7 2 -21 0 -30z"/>
<path d="M885 660 c-44 -44 -75 -80 -69 -80 6 0 24 13 40 29 74 72 117 121
113 125 -3 3 -41 -30 -84 -74z"/>
<path d="M308 724 c-32 -10 -20 -27 15 -20 98 18 236 -2 267 -40 7 -7 19 -14
27 -14 24 0 -1 25 -50 50 -33 17 -64 23 -142 25 -55 2 -108 2 -117 -1z"/>
<path d="M917 632 c-73 -74 -87 -92 -69 -92 11 0 156 160 150 165 -2 3 -39
-30 -81 -73z"/>
<path d="M358 680 c-28 -17 -1 -57 49 -71 45 -12 116 -6 121 10 2 6 10 7 19 4
28 -11 8 21 -25 40 -37 22 -139 32 -164 17z m136 -44 c-7 -18 -78 -23 -89 -6
-6 10 19 14 63 10 12 -1 22 4 22 11 0 7 2 10 5 7 3 -3 3 -13 -1 -22z"/>
<path d="M660 620 c0 -4 20 -16 43 -25 50 -19 94 -56 107 -91 10 -24 30 -33
30 -13 0 24 -43 80 -72 95 -48 25 -108 44 -108 34z"/>
<path d="M360 600 c0 -14 33 -29 79 -36 44 -7 131 18 131 38 0 6 -7 7 -17 3
-55 -24 -112 -28 -152 -13 -23 9 -41 12 -41 8z"/>
<path d="M610 571 c0 -6 11 -11 25 -11 42 0 106 -38 118 -71 11 -29 21 -36 31
-21 10 16 -32 69 -68 86 -48 23 -106 32 -106 17z"/>
<path d="M958 512 c-29 -28 -50 -53 -47 -56 3 -4 30 16 59 44 29 28 50 53 47
56 -3 4 -30 -16 -59 -44z"/>
<path d="M625 530 c3 -5 15 -10 25 -10 11 0 35 -13 53 -30 37 -32 47 -36 47
-20 0 17 -81 70 -107 70 -14 0 -21 -4 -18 -10z"/>
<path d="M1005 500 c-21 -22 -36 -43 -32 -46 4 -4 8 -5 10 -3 1 2 20 23 42 47
50 53 32 56 -20 2z"/>
<path d="M902 309 c-29 -23 -51 -43 -48 -46 6 -6 36 13 86 56 52 45 23 37 -38
-10z"/>
</g>
</svg>
