<?xml version="1.0" standalone="no"?>
<!DOCTYPE svg PUBLIC "-//W3C//DTD SVG 20010904//EN"
 "http://www.w3.org/TR/2001/REC-SVG-20010904/DTD/svg10.dtd">
<svg version="1.0" xmlns="http://www.w3.org/2000/svg"
 width="150.000000pt" height="150.000000pt" viewBox="0 0 150.000000 150.000000"
 preserveAspectRatio="xMidYMid meet">

<g transform="translate(0.000000,150.000000) scale(0.100000,-0.100000)"
fill="#000000" stroke="none">
<path d="M820 1452 c-41 -5 -94 -24 -111 -38 -14 -12 -19 -12 -42 6 -38 30
-110 27 -155 -6 -76 -58 -126 -186 -102 -260 14 -40 56 -84 82 -84 22 0 23
-13 2 -31 -31 -25 -43 -68 -60 -206 l-17 -141 21 -41 c18 -35 20 -48 13 -83
-6 -27 -6 -48 0 -61 7 -12 7 -22 0 -30 -5 -7 -9 -61 -7 -127 2 -63 -2 -124 -7
-135 -15 -29 -9 -96 10 -117 47 -52 73 -59 225 -58 168 2 207 4 270 19 38 9
60 7 124 -9 162 -42 371 -13 402 56 9 19 8 40 -4 91 -15 65 -24 148 -26 225 0
43 29 128 50 145 16 14 9 43 -11 43 -22 0 -49 59 -54 120 -8 79 3 142 32 184
25 37 23 46 -10 46 -44 0 -57 41 -44 137 5 38 12 104 15 148 8 96 27 154 57
177 28 22 16 33 -22 20 -20 -7 -43 -7 -73 0 -40 9 -501 18 -558 10z m478 -28
c84 -7 107 -23 97 -63 -4 -14 -10 -48 -14 -76 l-6 -50 -55 -6 c-30 -3 -72 -11
-93 -18 -36 -12 -87 -65 -87 -90 0 -8 -7 -10 -22 -5 -13 5 -82 7 -155 6 -104
-3 -138 0 -162 12 -34 18 -41 19 -41 8 0 -23 80 -37 198 -34 74 1 122 -2 122
-8 0 -5 -17 -9 -37 -8 -21 1 -76 -1 -123 -5 -74 -5 -90 -3 -129 16 l-43 22 6
58 c8 82 36 139 80 167 50 30 147 38 211 17 36 -13 52 -14 68 -5 40 21 117 36
157 31 26 -4 40 -2 40 6 0 17 -97 14 -160 -5 -45 -13 -66 -14 -132 -4 -85 12
-171 2 -213 -26 -32 -21 -67 -91 -86 -169 -18 -78 -34 -90 -69 -55 -28 28 -22
72 18 150 59 113 66 118 184 129 111 10 364 13 446 5z m-649 -38 c7 -13 10
-33 6 -45 -6 -18 -12 -21 -40 -15 -48 9 -69 -1 -93 -45 -39 -69 -20 -121 45
-121 40 0 44 -22 8 -38 -44 -20 -81 -15 -105 16 -19 23 -21 35 -15 77 14 112
76 194 146 195 27 0 39 -5 48 -24z m-29 -100 c0 -6 -6 -31 -14 -56 -10 -36
-18 -46 -38 -48 -17 -2 -28 3 -32 14 -10 27 5 83 26 98 21 15 58 10 58 -8z
m754 -94 c2 -4 0 -45 -6 -91 -11 -91 -1 -136 33 -146 24 -8 24 -15 -1 -93 -34
-108 -22 -201 30 -245 26 -23 28 -28 18 -55 l-11 -29 -86 1 c-75 0 -99 -4
-196 -38 -165 -58 -302 -56 -356 6 -17 20 -19 33 -16 106 4 63 2 82 -8 82 -7
0 -15 5 -17 12 -2 6 -12 9 -21 5 -9 -3 -14 -12 -11 -20 3 -8 -2 -20 -11 -27
-13 -11 -22 -10 -56 6 -39 17 -45 17 -103 2 -33 -9 -64 -13 -69 -9 -12 11 -10
210 2 265 24 105 58 137 168 162 101 22 105 18 107 -113 1 -113 17 -147 83
-179 57 -27 192 -26 230 2 44 33 63 85 73 202 10 116 21 139 80 180 24 16 47
22 86 22 29 0 55 -4 58 -8z m-254 -98 c0 -2 -7 -4 -15 -4 -8 0 -15 4 -15 10 0
5 7 7 15 4 8 -4 15 -8 15 -10z m-267 -41 c4 -2 -7 -16 -23 -30 -32 -27 -37
-27 -40 -3 -6 42 -1 51 28 44 15 -4 30 -9 35 -11z m109 -15 c-25 -16 -34 -17
-56 -7 -39 18 -32 28 22 31 63 4 70 -1 34 -24z m144 -33 c-8 -80 -22 -102 -67
-109 -21 -3 -68 -22 -104 -42 -45 -25 -71 -33 -86 -29 -20 7 -19 9 17 47 50
51 159 138 173 138 6 0 11 5 11 10 0 23 -67 -26 -180 -129 -79 -71 -74 -45 7
39 109 113 162 145 217 132 16 -4 17 -12 12 -57z m-194 7 c3 -4 -8 -24 -26
-45 l-32 -38 -22 24 -22 24 21 27 c17 22 27 26 48 21 14 -4 29 -9 33 -13z
m212 -79 c-4 -16 -11 -39 -17 -53 -15 -40 -21 -3 -7 41 15 44 34 53 24 12z
m-305 -39 c-17 -21 -29 -17 -29 11 0 23 2 24 21 15 16 -9 18 -14 8 -26z m244
-28 c3 -8 -4 -24 -16 -37 l-21 -22 -10 23 c-8 18 -6 25 9 36 24 18 31 18 38 0z
m-73 -55 c0 -11 -25 -21 -51 -21 -21 0 -26 16 -6 23 21 9 57 7 57 -2z m-232
-192 c-3 -37 -11 -44 -28 -24 -10 13 -9 19 5 35 24 26 26 25 23 -11z m-57 -28
c44 -43 51 -84 20 -101 -30 -16 -39 -12 -43 17 -4 37 -41 55 -100 50 -45 -4
-48 -2 -48 19 0 32 36 54 88 54 38 0 50 -6 83 -39z m-194 -3 c-2 -7 -1 -23 4
-36 8 -21 13 -23 53 -17 54 8 86 -1 86 -23 0 -10 7 -27 15 -40 17 -23 32 -20
76 16 14 11 18 10 23 -3 12 -32 95 -59 178 -58 76 1 177 18 207 34 39 20 149
49 187 49 60 0 74 -8 74 -41 l0 -29 -72 6 c-65 6 -85 3 -178 -27 -201 -63
-316 -51 -550 58 -30 14 -68 29 -84 32 -38 8 -50 29 -37 64 6 15 13 27 17 27
3 0 4 -6 1 -12z m24 -120 c5 -63 -13 -108 -43 -108 -9 0 -11 81 -2 104 7 19
44 22 45 4z m90 -40 c12 -18 -3 -56 -24 -62 -28 -7 -37 1 -37 34 0 49 9 61 33
48 12 -6 25 -15 28 -20z m772 -33 c23 -32 17 -32 -13 0 -13 14 -19 25 -14 25
5 0 17 -12 27 -25z m-687 3 c4 -6 8 -24 8 -40 1 -27 -1 -28 -29 -22 -42 9 -42
9 -37 44 3 23 9 30 28 30 12 0 26 -5 30 -12z m633 -3 c48 -24 55 -69 16 -105
-26 -24 -79 -30 -98 -11 -6 6 -21 11 -34 11 -17 0 -23 -6 -23 -22 1 -56 113
-86 183 -49 l38 19 10 -24 c24 -63 3 -96 -78 -120 -59 -19 -207 -21 -291 -4
-50 10 -84 10 -165 1 -161 -19 -326 -18 -363 1 -64 34 -80 88 -41 134 28 32
20 32 312 23 127 -4 193 14 267 74 56 45 83 59 138 73 64 16 97 16 129 -1z
m-493 -32 c24 -9 16 -26 -8 -18 -13 4 -39 9 -58 10 -18 1 -36 8 -38 15 -4 10
6 11 43 6 26 -4 54 -10 61 -13z m137 -13 c7 -1 1 -10 -12 -20 -14 -13 -38 -20
-63 -20 l-41 0 24 19 c30 23 50 31 67 25 8 -2 19 -4 25 -4z m75 -1 c-2 -7 -22
-25 -44 -41 -63 -46 -159 -55 -314 -32 -14 2 -69 5 -122 7 -54 1 -98 5 -98 9
0 4 10 14 21 22 24 16 81 16 209 -3 203 -30 274 -24 307 25 15 24 48 34 41 13z
m-255 -26 c-7 -2 -19 -2 -25 0 -7 3 -2 5 12 5 14 0 19 -2 13 -5z m589 -66
c-26 -25 -134 -38 -147 -17 -6 10 0 11 27 6 38 -7 96 12 118 40 10 11 15 13
18 4 3 -7 -5 -21 -16 -33z"/>
<path d="M1246 1149 c-38 -30 -52 -64 -64 -155 -12 -89 -43 -178 -73 -210 -30
-32 -92 -46 -200 -45 -110 1 -142 10 -160 42 -6 13 -15 76 -18 141 -5 88 -11
122 -22 128 -18 12 -26 -7 -10 -23 7 -7 11 -50 11 -109 0 -112 14 -157 56
-185 24 -15 49 -18 169 -18 139 0 140 0 178 29 48 37 75 98 87 200 14 123 35
183 70 201 17 9 30 18 30 20 0 12 -30 3 -54 -16z"/>
<path d="M1064 698 c-11 -7 -46 -30 -77 -50 -61 -41 -77 -46 -77 -23 0 18 -36
34 -62 27 -43 -11 -44 -66 -2 -83 17 -6 24 -16 24 -34 0 -21 5 -25 28 -25 54
1 237 141 230 177 -4 22 -36 27 -64 11z m46 -16 c0 -23 -136 -131 -187 -148
-60 -21 -36 15 61 88 79 61 126 83 126 60z m-222 -76 c-2 -13 -10 -21 -23 -21
-23 0 -33 34 -14 45 20 13 40 -1 37 -24z"/>
<path d="M1127 640 c-30 -24 -36 -64 -11 -74 51 -20 98 11 92 61 -4 37 -43 43
-81 13z m58 -10 c10 -16 -15 -51 -33 -48 -21 4 -28 38 -10 49 18 12 35 11 43
-1z"/>
<path d="M760 215 c-8 -2 -40 -7 -71 -10 -59 -6 -124 -38 -114 -55 4 -7 21 -2
43 12 30 18 55 23 137 26 108 5 254 -12 298 -34 23 -13 27 -13 27 0 0 26 -29
37 -127 46 -54 6 -116 12 -138 14 -22 2 -47 2 -55 1z"/>
</g>
</svg>
