<?xml version="1.0" standalone="no"?>
<!DOCTYPE svg PUBLIC "-//W3C//DTD SVG 20010904//EN"
 "http://www.w3.org/TR/2001/REC-SVG-20010904/DTD/svg10.dtd">
<svg version="1.0" xmlns="http://www.w3.org/2000/svg"
 width="150.000000pt" height="150.000000pt" viewBox="0 0 150.000000 150.000000"
 preserveAspectRatio="xMidYMid meet">

<g transform="translate(0.000000,150.000000) scale(0.100000,-0.100000)"
fill="#000000" stroke="none">
<path d="M1106 1414 c-20 -7 -48 -27 -62 -43 -14 -16 -35 -33 -47 -37 -27 -8
-171 -89 -213 -121 -37 -28 -54 -29 -54 -4 0 25 -21 41 -62 47 -63 10 -135
-51 -157 -133 -11 -38 2 -88 25 -97 22 -8 17 -23 -10 -30 -32 -8 -92 -84 -137
-174 -20 -39 -20 -44 -5 -67 9 -13 31 -28 49 -33 25 -6 33 -14 35 -35 3 -22
-2 -27 -30 -35 -43 -11 -49 -44 -15 -81 14 -14 27 -39 29 -55 4 -39 29 -54 61
-37 21 11 30 10 68 -10 24 -12 58 -26 74 -30 18 -5 -9 -6 -67 -3 -72 4 -99 2
-107 -8 -69 -83 -77 -109 -40 -128 16 -9 18 -14 9 -26 -8 -9 -9 -23 -4 -41 5
-16 8 -39 9 -52 0 -20 9 -27 55 -44 46 -16 82 -20 215 -21 141 -1 164 1 195
19 19 10 41 18 48 17 6 -2 12 2 12 7 0 5 22 38 48 73 27 35 64 91 82 126 45
82 60 95 94 83 30 -12 33 -23 11 -41 -12 -10 -15 -10 -15 4 0 29 -29 17 -39
-17 -5 -17 -19 -58 -31 -89 l-21 -58 20 -26 c24 -31 28 -86 6 -104 -19 -16
-32 -6 -40 30 -4 20 -13 30 -25 30 -22 0 -35 -16 -20 -25 5 -3 10 -17 10 -29
0 -28 15 -42 54 -49 42 -7 72 7 80 37 8 33 26 34 26 2 0 -38 19 -46 64 -28
l39 15 -7 71 c-3 39 -7 80 -9 91 -1 12 5 21 18 23 64 12 95 94 94 247 0 79 27
185 52 200 12 8 12 117 -1 150 -6 17 -26 33 -53 45 -35 16 -43 24 -45 48 -4
48 -60 211 -105 302 -23 47 -44 98 -47 115 -4 25 -11 31 -41 36 -20 3 -52 0
-73 -7z m64 -33 c0 -21 -34 -47 -74 -57 -22 -5 -26 -3 -26 15 0 14 12 27 38
40 47 25 62 26 62 2z m71 -138 c45 -97 83 -207 92 -268 6 -34 3 -43 -15 -54
-30 -18 -36 -9 -113 163 -78 176 -84 199 -60 226 35 38 52 26 96 -67z m-178
55 c29 -17 34 -25 42 -67 4 -19 24 -71 45 -115 21 -45 54 -116 73 -158 l35
-77 -32 -75 -33 -75 -21 21 c-17 17 -37 22 -101 26 -74 4 -81 6 -81 26 0 35
-38 86 -77 103 -36 15 -60 12 -120 -13 -16 -7 -36 32 -28 56 3 11 18 25 32 32
59 29 13 50 -48 22 -22 -9 -42 -14 -45 -11 -14 13 7 54 33 67 22 10 24 14 11
17 -9 2 -30 -3 -47 -12 -29 -15 -31 -15 -31 4 0 11 14 33 30 50 45 44 294 189
328 190 7 1 22 -5 35 -11z m-363 -83 c15 -19 6 -32 -12 -18 -43 34 -137 -64
-121 -126 3 -12 17 -28 32 -36 14 -8 20 -14 13 -15 -24 0 -53 21 -63 48 -31
80 101 208 151 147z m-26 -41 c22 -8 20 -30 -4 -47 -10 -7 -24 -25 -29 -40
-12 -30 -23 -34 -40 -13 -14 17 -3 45 32 84 23 25 20 24 41 16z m-4 -173 c0
-5 11 -22 23 -38 13 -15 27 -40 31 -55 3 -16 11 -28 16 -28 15 0 12 -30 -5
-46 -25 -25 -18 -67 19 -110 33 -38 35 -39 100 -39 l68 0 -49 -22 c-29 -14
-57 -20 -73 -17 -55 13 -109 46 -135 84 -29 42 -29 39 -8 183 4 28 1 43 -13
58 -16 17 -16 22 -4 29 19 12 30 12 30 1z m-68 -33 c0 -7 2 -17 3 -23 2 -5 3
-16 4 -24 1 -11 4 -11 18 0 15 13 16 12 9 -11 -5 -14 -13 -44 -19 -67 -7 -24
-15 -43 -20 -43 -5 0 -6 -14 -2 -30 5 -23 3 -32 -11 -37 -9 -3 -24 -1 -33 5
-30 22 -66 36 -96 36 -26 1 -30 4 -27 28 3 27 54 114 91 156 22 24 80 31 83
10z m808 -94 c0 -21 -4 -23 -41 -21 -48 2 -71 -20 -91 -85 -13 -43 -48 -73
-48 -40 0 24 56 136 75 152 18 15 75 28 93 22 6 -2 12 -15 12 -28z m-511 -14
c24 -13 45 -64 37 -94 -7 -30 -36 -43 -36 -16 0 10 -4 21 -10 25 -5 3 -7 12
-4 19 3 7 -3 16 -12 20 -21 8 -67 -23 -72 -48 -3 -14 3 -16 37 -10 44 7 52 -3
25 -31 -33 -33 -104 9 -104 60 0 24 35 56 81 74 31 13 37 13 58 1z m537 -36
c-3 -9 -6 -18 -6 -20 0 -2 -9 -4 -20 -4 -25 0 -26 16 -2 29 25 15 35 13 28 -5z
m-64 -16 c2 -17 11 -24 31 -26 34 -4 35 -27 4 -73 -28 -41 -43 -45 -84 -19
l-32 19 14 40 c20 59 34 81 50 81 7 0 15 -10 17 -22z m-224 -75 c17 -10 32
-23 32 -29 0 -6 6 -17 14 -23 10 -9 11 -21 4 -56 -6 -30 -6 -50 2 -65 15 -29
3 -80 -19 -80 -22 0 -73 -54 -99 -105 -11 -22 -34 -59 -51 -83 -31 -42 -32
-42 -56 -25 -13 10 -24 20 -24 23 -1 3 14 12 32 20 29 13 33 21 39 69 3 30 4
60 1 68 -8 21 -47 33 -108 33 -42 0 -60 -5 -83 -25 -17 -14 -38 -25 -48 -25
-16 0 -15 2 4 23 12 13 22 28 22 33 0 18 -54 61 -94 75 -22 8 -52 26 -67 40
-24 22 -28 33 -27 78 l1 52 41 -40 c51 -49 94 -71 143 -73 52 -2 77 8 142 53
41 29 66 39 94 39 40 0 97 -24 110 -46 11 -19 27 -18 27 1 0 27 -89 75 -139
75 -35 0 -42 3 -31 11 21 14 99 4 138 -18z m-630 -8 c8 -16 23 -28 43 -32 29
-5 30 -8 24 -39 -9 -48 7 -68 78 -104 79 -40 97 -57 95 -86 -1 -13 -5 -24 -8
-24 -3 0 -32 12 -66 26 -42 18 -66 35 -79 57 -37 62 -75 80 -116 55 -17 -11
-22 -10 -35 6 -21 29 -17 39 19 56 26 12 32 21 31 45 0 17 -4 38 -8 48 -5 9
-4 17 1 17 6 0 15 -11 21 -25z m447 -5 c-3 -5 -12 -10 -18 -10 -7 0 -6 4 3 10
19 12 23 12 15 0z m345 -50 c8 -5 10 -10 4 -10 -7 0 -22 9 -35 21 -19 16 -20
18 -4 10 11 -6 27 -15 35 -21z m23 -51 l32 -9 -6 -112 c-3 -62 -12 -126 -19
-143 l-12 -30 -16 35 c-19 45 -18 114 2 145 20 31 20 40 -1 60 -11 12 -25 15
-50 10 l-33 -6 0 44 c0 24 3 47 6 50 4 4 20 -3 36 -14 16 -12 43 -25 61 -30z
m-48 -106 c-9 -12 -17 -37 -19 -55 -3 -18 -5 -35 -5 -38 -1 -3 -6 2 -11 10
-17 27 -11 82 12 107 27 29 45 10 23 -24z m-720 17 c23 -25 16 -34 -18 -21
-13 5 -35 7 -47 4 -20 -5 -21 -4 -11 16 15 27 52 27 76 1z m404 -79 c49 -13
31 -26 -33 -23 -67 4 -87 -6 -113 -53 -7 -11 -46 -24 -124 -41 -104 -23 -120
-24 -182 -13 -55 10 -66 15 -55 25 9 9 48 14 118 15 58 1 132 5 165 11 51 8
65 15 96 48 38 41 67 48 128 31z m-431 -59 c2 -7 -7 -12 -23 -12 -24 0 -26 2
-15 15 14 17 31 16 38 -3z m192 14 c0 -3 -4 -8 -10 -11 -5 -3 -10 -1 -10 4 0
6 5 11 10 11 6 0 10 -2 10 -4z m252 -28 c13 -21 9 -38 -7 -38 -22 0 -65 -45
-65 -69 0 -11 7 -26 15 -35 24 -23 18 -35 -21 -42 -78 -14 -291 13 -403 52
-22 7 7 34 39 34 15 0 80 9 145 20 111 20 120 23 171 65 49 40 57 43 86 34 17
-5 35 -14 40 -21z m-377 12 c3 -5 -3 -10 -14 -10 -12 0 -21 5 -21 10 0 6 6 10
14 10 8 0 18 -4 21 -10z m60 0 c-3 -5 -10 -10 -16 -10 -5 0 -9 5 -9 10 0 6 7
10 16 10 8 0 12 -4 9 -10z m603 -72 c0 -40 4 -103 7 -140 6 -56 4 -68 -8 -68
-12 0 -16 26 -22 134 -4 74 -4 140 0 146 14 22 21 -2 23 -72z m-49 -53 c2 -80
-1 -95 -14 -95 -8 0 -15 6 -15 14 0 7 -6 26 -14 41 -13 25 -13 34 5 79 10 28
19 52 19 54 0 1 4 2 9 2 5 0 9 -43 10 -95z m-509 -93 c127 -14 139 -17 100
-24 -47 -7 -228 0 -270 12 -14 3 -27 15 -28 25 -3 15 1 17 25 11 15 -4 93 -14
173 -24z"/>
<path d="M1000 160 c0 -5 5 -10 10 -10 6 0 10 5 10 10 0 6 -4 10 -10 10 -5 0
-10 -4 -10 -10z"/>
</g>
</svg>
