<?xml version="1.0" encoding="UTF-8" standalone="no"?>
<svg
   xmlns:svg="http://www.w3.org/2000/svg"
   xmlns="http://www.w3.org/2000/svg"
   version="1.0"
   width="223.62117"
   height="220.38028"
   id="svg2">
  <path
     d="M 69.401344,205.53703 C 49.634983,196.61714 31.613808,187.80282 14.233262,204.1658 C 8.606901,209.46276 4.614698,212.24765 3.857226,210.89122 C -4.54451,195.84601 2.786709,113.97121 6.956393,98.65511 C 20.181604,50.07621 58.387943,10.914683 107.93064,3.1068117 C 182.76493,-8.686984 213.03533,12.379397 219.84179,78.6313 C 223.72269,116.40671 225.44653,155.1697 220.93108,167.54675 C 197.99762,230.40843 121.18525,228.90537 69.401344,205.53703 z"
     style="fill:#000000" />
 <path
     d="M 204.72764,171.77487 C 211.40619,157.82777 211.83517,152.54014 210.67646,107.6313 C 209.02745,88.959442 210.20815,74.249166 201.28468,45.39306 L 187.10766,44.731169 C 179.3103,44.36713 161.90564,44.045647 148.43064,44.016763 C 106.97962,44.444597 61.189126,53.938731 44.406778,95.86433 C 38.941236,112.92663 38.200671,119.773 36.953117,164.77184 L 36.450186,182.91238 C 52.312025,185.95267 67.246681,192.74352 82.121933,198.81814 C 130.74608,217.74405 180.80783,221.72764 204.72764,171.77487 z"
     style="fill:#ffffff;" />
  <path
     d="M 118.56351,121.23334 L 117.93064,109.6313 C 107.65458,109.17805 98.819883,106.60379 91.271983,99.34335 C 85.278283,92.84095 87.627453,93.44696 98.468443,98.65346 C 116.40443,107.26741 120.56021,108.03861 138.50001,101.21678 C 151.45872,97.15379 157.77257,93.45201 156.4159,79.1313 C 155.00027,69.394671 155.05964,68.862379 157.42029,70.125761 C 168.98596,100.51126 151.06083,100.31326 137.7236,107.40728 C 137.28747,108.08049 136.92484,114.2563 136.91775,121.1313 C 138.66312,147.77704 121.04889,151.8429 118.56351,121.23334 z"
     style="fill:#000000" />
  <path
     d="M 125.94964,112.57243 C 118.53691,108.84895 125.06446,133.17475 126.96938,136.1313 C 126.90056,128.80852 129.48274,119.38708 125.94964,112.57243 z"
     style="fill:#ffffff;" />
  <path
     d="M 29.7197,183.6313 L 29.531415,161.1313 C 29.194448,120.86388 34.277611,97.66839 47.94393,77.111313 C 59.577082,59.612555 83.116963,45.591551 111.43064,39.29687 C 122.72777,36.785298 123.57893,36.743551 159.68064,36.930377 C 184.45284,37.058572 196.43064,36.783397 196.43064,36.086091 C 196.43064,33.861756 192.43965,27.444258 188.77862,23.78169 C 180.20753,15.206972 170.75029,12.626047 150.80165,13.417595 C 83.696193,12.599719 37.647644,36.570966 17.922756,100.6313 C 12.558747,119.25359 11.298116,130.22351 10.699611,163.48653 L 10.14443,194.34176 C 16.66952,188.76097 23.19461,184.53393 29.7197,183.6313 z"
     style="fill:#ffffff;" />
</svg>
