<?xml version="1.0" encoding="UTF-8" standalone="no"?>
<!-- Created with Inkscape (http://www.inkscape.org/) -->

<svg
   xmlns:svg="http://www.w3.org/2000/svg"
   xmlns="http://www.w3.org/2000/svg"
   xmlns:xlink="http://www.w3.org/1999/xlink"
   version="1.0"
   width="223.62117"
   height="220.38028"
   id="svg2">
  <defs
     id="defs15" />
  <path
     d="M 69.401344,205.53703 C 49.634983,196.61714 31.613808,187.80282 14.233262,204.1658 8.606901,209.46276 4.614698,212.24765 3.857226,210.89122 -4.54451,195.84601 2.786709,113.97121 6.956393,98.65511 20.181604,50.07621 58.387943,10.914683 107.93064,3.1068117 182.76493,-8.686984 213.03533,12.379397 219.84179,78.6313 c 3.8809,37.77541 5.60474,76.5384 1.08929,88.91545 -22.93346,62.86168 -99.74583,61.35862 -151.529736,37.99028 z"
     id="path3"
     style="fill:#000000" />
  <path
     d="m 204.72764,171.77487 c 6.67855,-13.9471 7.10753,-19.23473 5.94882,-64.14357 -1.64901,-18.671858 -0.46831,-33.382134 -9.39178,-62.23824 L 187.10766,44.731169 C 179.3103,44.36713 161.90564,44.045647 148.43064,44.016763 106.97962,44.444597 61.189126,53.938731 44.406778,95.86433 c -5.465542,17.0623 -6.206107,23.90867 -7.453661,68.90751 l -0.502931,18.14054 c 15.861839,3.04029 30.796495,9.83114 45.671747,15.90576 48.624147,18.92591 98.685897,22.9095 122.605707,-27.04327 z"
     id="path5"
     style="fill:#ffffff" />
  <path
     d="m 29.7197,183.6313 -0.188285,-22.5 C 29.194448,120.86388 34.277611,97.66839 47.94393,77.111313 59.577082,59.612555 83.116963,45.591551 111.43064,39.29687 c 11.29713,-2.511572 12.14829,-2.553319 48.25,-2.366493 24.7722,0.128195 36.75,-0.14698 36.75,-0.844286 0,-2.224335 -3.99099,-8.641833 -7.65202,-12.304401 C 180.20753,15.206972 170.75029,12.626047 150.80165,13.417595 83.696193,12.599719 37.647644,36.570966 17.922756,100.6313 c -5.364009,18.62229 -6.62464,29.59221 -7.223145,62.85523 l -0.555181,30.85523 c 6.52509,-5.58079 13.05018,-9.80783 19.57527,-10.71046 z"
     id="path11"
     style="fill:#ffffff" />
  <path
     d="m 69.893659,120.34881 c 52.389681,-1.24335 56.088681,-3.63946 56.444841,-52.039554 -2.43863,48.448884 1.31626,50.518104 56.88828,52.039554 -55.49089,1.49471 -58.7647,1.87864 -56.88828,54.13377 -0.0127,-51.8065 -4.30954,-52.73014 -56.444841,-54.13377 z"
     id="path2899"
     style="fill:none;stroke:#000000;stroke-width:6;stroke-linecap:butt;stroke-linejoin:miter;stroke-miterlimit:4;stroke-opacity:1;stroke-dasharray:none" />
  <path
     d="m 349.24673,73.304459 a 8.87124,8.87124 0 1 1 -17.74248,0 8.87124,8.87124 0 1 1 17.74248,0 z"
     transform="translate(-248.39472,14.941036)"
     id="path2903"
     style="fill:#ffffff;fill-opacity:1;fill-rule:nonzero;stroke:#000000;stroke-width:6;stroke-linecap:round;stroke-linejoin:bevel;stroke-miterlimit:4;stroke-opacity:1;stroke-dasharray:none;stroke-dashoffset:0" />
  <use
     transform="translate(67.234662,0)"
     id="use3677"
     x="0"
     y="0"
     width="223.62117"
     height="220.38028"
     xlink:href="#path2903" />
  <use
     transform="translate(0,71.903735)"
     id="use3679"
     x="0"
     y="0"
     width="223.62117"
     height="220.38028"
     xlink:href="#path2903" />
  <use
     transform="translate(70.036106,71.903735)"
     id="use3681"
     x="0"
     y="0"
     width="223.62117"
     height="220.38028"
     xlink:href="#path2903" />
</svg>
